M48
; DRILL file {KiCad 5.1.7-a382d34a8~87~ubuntu18.04.1} date Sun Oct 18 18:02:30 2020
; FORMAT={-:-/ absolute / inch / decimal}
; #@! TF.CreationDate,2020-10-18T18:02:30+02:00
; #@! TF.GenerationSoftware,Kicad,Pcbnew,5.1.7-a382d34a8~87~ubuntu18.04.1
; #@! TF.FileFunction,Plated,1,2,PTH
FMAT,2
INCH
T1C0.0299
T2C0.0315
T3C0.0394
T4C0.0453
T5C0.0551
T6C0.0591
T7C0.0630
%
G90
G05
T1
X3.8386Y-4.4087
X4.5386Y-4.2087
X4.5386Y-4.4087
T2
X2.9724Y-2.8346
X3.0276Y-2.5394
X2.1457Y-2.8346
X2.2008Y-2.5394
X2.5591Y-2.8346
X2.6142Y-2.5394
X1.3189Y-2.8346
X1.374Y-2.5394
X1.7323Y-2.8346
X1.7874Y-2.5394
X0.9055Y-2.8346
X0.9606Y-2.5394
X3.8386Y-3.2087
X3.8386Y-3.4087
T3
X3.3465Y-3.6205
X3.3465Y-3.7205
X1.5551Y-3.5913
X1.5551Y-4.2913
X1.6551Y-3.5913
X1.6551Y-4.2913
X1.7551Y-3.5913
X1.7551Y-4.2913
X1.8551Y-3.5913
X1.8551Y-4.2913
X1.9551Y-3.5913
X1.9551Y-4.2913
X2.0551Y-3.5913
X2.0551Y-4.2913
X2.1551Y-3.5913
X2.1551Y-4.2913
X2.2551Y-3.5913
X2.2551Y-4.2913
X2.3551Y-3.5913
X2.3551Y-4.2913
X2.4551Y-3.5913
X2.4551Y-4.2913
X2.5551Y-3.5913
X2.5551Y-4.2913
X2.6551Y-3.5913
X2.6551Y-4.2913
X2.7551Y-3.5913
X2.8551Y-3.5913
X2.8551Y-4.2913
X2.9551Y-3.5913
X3.0551Y-3.5913
X3.0551Y-4.2913
T4
X2.3425Y-2.6378
X2.3425Y-2.8378
X2.3425Y-3.2378
X2.3425Y-3.3378
X2.7559Y-2.6378
X2.7559Y-2.8378
X2.7559Y-3.2378
X2.7559Y-3.3378
X3.1693Y-2.6378
X3.1693Y-2.8378
X3.1693Y-3.2378
X3.1693Y-3.3378
X1.1024Y-2.6378
X1.1024Y-2.8378
X1.1024Y-3.2378
X1.1024Y-3.3378
X1.9291Y-2.6378
X1.9291Y-2.8378
X1.9291Y-3.2378
X1.9291Y-3.3378
X1.5157Y-2.6378
X1.5157Y-2.8378
X1.5157Y-3.2378
X1.5157Y-3.3378
T5
X3.9961Y-1.9488
X4.2913Y-1.9488
X4.5866Y-1.9488
X2.9528Y-1.9488
X3.248Y-1.9488
X3.5433Y-1.9488
X0.9646Y-1.9488
X1.2598Y-1.9488
X1.5551Y-1.9488
X1.8504Y-1.9488
X2.1457Y-1.9488
X2.4409Y-1.9488
T6
X3.7402Y-2.7953
X4.6063Y-2.7953
T7
X1.6535Y-4.8425
X1.7913Y-4.8425
X1.9291Y-4.8425
X2.0669Y-4.8425
X2.2047Y-4.8425
X2.3425Y-4.8425
X2.4803Y-4.8425
X2.6181Y-4.8425
X3.1102Y-4.8425
X3.248Y-4.8425
X3.3858Y-4.8425
X3.5236Y-4.8425
X3.9567Y-4.8425
X4.0945Y-4.8425
X4.2323Y-4.8425
X4.3701Y-4.8425
T0
M30
