%TF.GenerationSoftware,KiCad,Pcbnew,5.1.7-a382d34a8~87~ubuntu18.04.1*%
%TF.CreationDate,2020-10-18T18:02:23+02:00*%
%TF.ProjectId,thermodrive,74686572-6d6f-4647-9269-76652e6b6963,rev?*%
%TF.SameCoordinates,Original*%
%TF.FileFunction,Soldermask,Bot*%
%TF.FilePolarity,Negative*%
%FSLAX46Y46*%
G04 Gerber Fmt 4.6, Leading zero omitted, Abs format (unit mm)*
G04 Created by KiCad (PCBNEW 5.1.7-a382d34a8~87~ubuntu18.04.1) date 2020-10-18 18:02:23*
%MOMM*%
%LPD*%
G01*
G04 APERTURE LIST*
%ADD10C,3.500000*%
%ADD11C,1.700000*%
%ADD12R,1.700000X1.700000*%
%ADD13O,1.700000X1.700000*%
%ADD14O,2.000000X2.600000*%
%ADD15C,1.800000*%
%ADD16C,2.300000*%
%ADD17R,2.300000X2.000000*%
%ADD18O,4.000000X2.500000*%
%ADD19C,1.998980*%
%ADD20C,2.600000*%
%ADD21R,2.600000X2.600000*%
G04 APERTURE END LIST*
D10*
%TO.C,REF\u002A\u002A*%
X114200000Y-60800000D03*
%TD*%
%TO.C,REF\u002A\u002A*%
X26800000Y-114200000D03*
%TD*%
%TO.C,R4*%
G36*
G01*
X55012500Y-84549998D02*
X55012500Y-85450002D01*
G75*
G02*
X54762502Y-85700000I-249998J0D01*
G01*
X54237498Y-85700000D01*
G75*
G02*
X53987500Y-85450002I0J249998D01*
G01*
X53987500Y-84549998D01*
G75*
G02*
X54237498Y-84300000I249998J0D01*
G01*
X54762502Y-84300000D01*
G75*
G02*
X55012500Y-84549998I0J-249998D01*
G01*
G37*
G36*
G01*
X56837500Y-84549998D02*
X56837500Y-85450002D01*
G75*
G02*
X56587502Y-85700000I-249998J0D01*
G01*
X56062498Y-85700000D01*
G75*
G02*
X55812500Y-85450002I0J249998D01*
G01*
X55812500Y-84549998D01*
G75*
G02*
X56062498Y-84300000I249998J0D01*
G01*
X56587502Y-84300000D01*
G75*
G02*
X56837500Y-84549998I0J-249998D01*
G01*
G37*
%TD*%
D11*
%TO.C,U7*%
X39500000Y-91220000D03*
X42040000Y-91220000D03*
X44580000Y-91220000D03*
X47120000Y-91220000D03*
X49660000Y-91220000D03*
X52200000Y-91220000D03*
X54740000Y-91220000D03*
X57280000Y-91220000D03*
X59820000Y-91220000D03*
X62360000Y-91220000D03*
X64900000Y-91220000D03*
X67440000Y-91220000D03*
X69980000Y-91220000D03*
X72520000Y-91220000D03*
X75060000Y-91220000D03*
X77600000Y-91220000D03*
X77600000Y-109000000D03*
X72520000Y-109000000D03*
X67440000Y-109000000D03*
X64900000Y-109000000D03*
X62360000Y-109000000D03*
X59820000Y-109000000D03*
X57280000Y-109000000D03*
X54740000Y-109000000D03*
X52200000Y-109000000D03*
X49660000Y-109000000D03*
X47120000Y-109000000D03*
X44580000Y-109000000D03*
X42040000Y-109000000D03*
D12*
X39500000Y-109000000D03*
%TD*%
D13*
%TO.C,JP1*%
X85000000Y-91960000D03*
D12*
X85000000Y-94500000D03*
%TD*%
D14*
%TO.C,J6*%
X89500000Y-123000000D03*
X86000000Y-123000000D03*
X82500000Y-123000000D03*
G36*
G01*
X78000000Y-124050000D02*
X78000000Y-121950000D01*
G75*
G02*
X78250000Y-121700000I250000J0D01*
G01*
X79750000Y-121700000D01*
G75*
G02*
X80000000Y-121950000I0J-250000D01*
G01*
X80000000Y-124050000D01*
G75*
G02*
X79750000Y-124300000I-250000J0D01*
G01*
X78250000Y-124300000D01*
G75*
G02*
X78000000Y-124050000I0J250000D01*
G01*
G37*
%TD*%
%TO.C,C4*%
G36*
G01*
X89100000Y-108849999D02*
X89100000Y-110150001D01*
G75*
G02*
X88850001Y-110400000I-249999J0D01*
G01*
X88199999Y-110400000D01*
G75*
G02*
X87950000Y-110150001I0J249999D01*
G01*
X87950000Y-108849999D01*
G75*
G02*
X88199999Y-108600000I249999J0D01*
G01*
X88850001Y-108600000D01*
G75*
G02*
X89100000Y-108849999I0J-249999D01*
G01*
G37*
G36*
G01*
X92050000Y-108849999D02*
X92050000Y-110150001D01*
G75*
G02*
X91800001Y-110400000I-249999J0D01*
G01*
X91149999Y-110400000D01*
G75*
G02*
X90900000Y-110150001I0J249999D01*
G01*
X90900000Y-108849999D01*
G75*
G02*
X91149999Y-108600000I249999J0D01*
G01*
X91800001Y-108600000D01*
G75*
G02*
X92050000Y-108849999I0J-249999D01*
G01*
G37*
%TD*%
%TO.C,C3*%
G36*
G01*
X89100000Y-111849999D02*
X89100000Y-113150001D01*
G75*
G02*
X88850001Y-113400000I-249999J0D01*
G01*
X88199999Y-113400000D01*
G75*
G02*
X87950000Y-113150001I0J249999D01*
G01*
X87950000Y-111849999D01*
G75*
G02*
X88199999Y-111600000I249999J0D01*
G01*
X88850001Y-111600000D01*
G75*
G02*
X89100000Y-111849999I0J-249999D01*
G01*
G37*
G36*
G01*
X92050000Y-111849999D02*
X92050000Y-113150001D01*
G75*
G02*
X91800001Y-113400000I-249999J0D01*
G01*
X91149999Y-113400000D01*
G75*
G02*
X90900000Y-113150001I0J249999D01*
G01*
X90900000Y-111849999D01*
G75*
G02*
X91149999Y-111600000I249999J0D01*
G01*
X91800001Y-111600000D01*
G75*
G02*
X92050000Y-111849999I0J-249999D01*
G01*
G37*
%TD*%
%TO.C,C2*%
G36*
G01*
X89125000Y-105849999D02*
X89125000Y-107150001D01*
G75*
G02*
X88875001Y-107400000I-249999J0D01*
G01*
X88224999Y-107400000D01*
G75*
G02*
X87975000Y-107150001I0J249999D01*
G01*
X87975000Y-105849999D01*
G75*
G02*
X88224999Y-105600000I249999J0D01*
G01*
X88875001Y-105600000D01*
G75*
G02*
X89125000Y-105849999I0J-249999D01*
G01*
G37*
G36*
G01*
X92075000Y-105849999D02*
X92075000Y-107150001D01*
G75*
G02*
X91825001Y-107400000I-249999J0D01*
G01*
X91174999Y-107400000D01*
G75*
G02*
X90925000Y-107150001I0J249999D01*
G01*
X90925000Y-105849999D01*
G75*
G02*
X91174999Y-105600000I249999J0D01*
G01*
X91825001Y-105600000D01*
G75*
G02*
X92075000Y-105849999I0J-249999D01*
G01*
G37*
%TD*%
D15*
%TO.C,RV6*%
X76900000Y-64500000D03*
X75500000Y-72000000D03*
%TD*%
D16*
%TO.C,PS1*%
X115280000Y-106900000D03*
X115280000Y-111980000D03*
X97500000Y-86580000D03*
D17*
X97500000Y-81500000D03*
D16*
X97500000Y-111980000D03*
%TD*%
D14*
%TO.C,J5*%
X66500000Y-123000000D03*
X63000000Y-123000000D03*
X59500000Y-123000000D03*
X56000000Y-123000000D03*
X52500000Y-123000000D03*
X49000000Y-123000000D03*
X45500000Y-123000000D03*
G36*
G01*
X41000000Y-124050000D02*
X41000000Y-121950000D01*
G75*
G02*
X41250000Y-121700000I250000J0D01*
G01*
X42750000Y-121700000D01*
G75*
G02*
X43000000Y-121950000I0J-250000D01*
G01*
X43000000Y-124050000D01*
G75*
G02*
X42750000Y-124300000I-250000J0D01*
G01*
X41250000Y-124300000D01*
G75*
G02*
X41000000Y-124050000I0J250000D01*
G01*
G37*
%TD*%
%TO.C,J4*%
X111000000Y-123000000D03*
X107500000Y-123000000D03*
X104000000Y-123000000D03*
G36*
G01*
X99500000Y-124050000D02*
X99500000Y-121950000D01*
G75*
G02*
X99750000Y-121700000I250000J0D01*
G01*
X101250000Y-121700000D01*
G75*
G02*
X101500000Y-121950000I0J-250000D01*
G01*
X101500000Y-124050000D01*
G75*
G02*
X101250000Y-124300000I-250000J0D01*
G01*
X99750000Y-124300000D01*
G75*
G02*
X99500000Y-124050000I0J250000D01*
G01*
G37*
%TD*%
D18*
%TO.C,F1*%
X117000000Y-71000000D03*
X95000000Y-71000000D03*
%TD*%
%TO.C,C1*%
G36*
G01*
X89100000Y-103025000D02*
X89100000Y-103975000D01*
G75*
G02*
X88850000Y-104225000I-250000J0D01*
G01*
X88350000Y-104225000D01*
G75*
G02*
X88100000Y-103975000I0J250000D01*
G01*
X88100000Y-103025000D01*
G75*
G02*
X88350000Y-102775000I250000J0D01*
G01*
X88850000Y-102775000D01*
G75*
G02*
X89100000Y-103025000I0J-250000D01*
G01*
G37*
G36*
G01*
X91000000Y-103025000D02*
X91000000Y-103975000D01*
G75*
G02*
X90750000Y-104225000I-250000J0D01*
G01*
X90250000Y-104225000D01*
G75*
G02*
X90000000Y-103975000I0J250000D01*
G01*
X90000000Y-103025000D01*
G75*
G02*
X90250000Y-102775000I250000J0D01*
G01*
X90750000Y-102775000D01*
G75*
G02*
X91000000Y-103025000I0J-250000D01*
G01*
G37*
%TD*%
D19*
%TO.C,U6*%
X80500000Y-67000000D03*
X80500000Y-72080000D03*
X80500000Y-82240000D03*
X80500000Y-84780000D03*
%TD*%
%TO.C,U5*%
X70000000Y-67000000D03*
X70000000Y-72080000D03*
X70000000Y-82240000D03*
X70000000Y-84780000D03*
%TD*%
%TO.C,U4*%
X59500000Y-67000000D03*
X59500000Y-72080000D03*
X59500000Y-82240000D03*
X59500000Y-84780000D03*
%TD*%
%TO.C,U3*%
X49000000Y-67000000D03*
X49000000Y-72080000D03*
X49000000Y-82240000D03*
X49000000Y-84780000D03*
%TD*%
%TO.C,U2*%
X38500000Y-67000000D03*
X38500000Y-72080000D03*
X38500000Y-82240000D03*
X38500000Y-84780000D03*
%TD*%
%TO.C,U1*%
X28000000Y-67000000D03*
X28000000Y-72080000D03*
X28000000Y-82240000D03*
X28000000Y-84780000D03*
%TD*%
D15*
%TO.C,RV5*%
X66400000Y-64500000D03*
X65000000Y-72000000D03*
%TD*%
%TO.C,RV4*%
X55900000Y-64500000D03*
X54500000Y-72000000D03*
%TD*%
%TO.C,RV3*%
X45400000Y-64500000D03*
X44000000Y-72000000D03*
%TD*%
%TO.C,RV2*%
X34900000Y-64500000D03*
X33500000Y-72000000D03*
%TD*%
%TO.C,RV1*%
X24400000Y-64500000D03*
X23000000Y-72000000D03*
%TD*%
%TO.C,R6*%
G36*
G01*
X77049998Y-85987500D02*
X77950002Y-85987500D01*
G75*
G02*
X78200000Y-86237498I0J-249998D01*
G01*
X78200000Y-86762502D01*
G75*
G02*
X77950002Y-87012500I-249998J0D01*
G01*
X77049998Y-87012500D01*
G75*
G02*
X76800000Y-86762502I0J249998D01*
G01*
X76800000Y-86237498D01*
G75*
G02*
X77049998Y-85987500I249998J0D01*
G01*
G37*
G36*
G01*
X77049998Y-84162500D02*
X77950002Y-84162500D01*
G75*
G02*
X78200000Y-84412498I0J-249998D01*
G01*
X78200000Y-84937502D01*
G75*
G02*
X77950002Y-85187500I-249998J0D01*
G01*
X77049998Y-85187500D01*
G75*
G02*
X76800000Y-84937502I0J249998D01*
G01*
X76800000Y-84412498D01*
G75*
G02*
X77049998Y-84162500I249998J0D01*
G01*
G37*
%TD*%
%TO.C,R5*%
G36*
G01*
X66549998Y-85987500D02*
X67450002Y-85987500D01*
G75*
G02*
X67700000Y-86237498I0J-249998D01*
G01*
X67700000Y-86762502D01*
G75*
G02*
X67450002Y-87012500I-249998J0D01*
G01*
X66549998Y-87012500D01*
G75*
G02*
X66300000Y-86762502I0J249998D01*
G01*
X66300000Y-86237498D01*
G75*
G02*
X66549998Y-85987500I249998J0D01*
G01*
G37*
G36*
G01*
X66549998Y-84162500D02*
X67450002Y-84162500D01*
G75*
G02*
X67700000Y-84412498I0J-249998D01*
G01*
X67700000Y-84937502D01*
G75*
G02*
X67450002Y-85187500I-249998J0D01*
G01*
X66549998Y-85187500D01*
G75*
G02*
X66300000Y-84937502I0J249998D01*
G01*
X66300000Y-84412498D01*
G75*
G02*
X66549998Y-84162500I249998J0D01*
G01*
G37*
%TD*%
%TO.C,R3*%
G36*
G01*
X45549998Y-85987500D02*
X46450002Y-85987500D01*
G75*
G02*
X46700000Y-86237498I0J-249998D01*
G01*
X46700000Y-86762502D01*
G75*
G02*
X46450002Y-87012500I-249998J0D01*
G01*
X45549998Y-87012500D01*
G75*
G02*
X45300000Y-86762502I0J249998D01*
G01*
X45300000Y-86237498D01*
G75*
G02*
X45549998Y-85987500I249998J0D01*
G01*
G37*
G36*
G01*
X45549998Y-84162500D02*
X46450002Y-84162500D01*
G75*
G02*
X46700000Y-84412498I0J-249998D01*
G01*
X46700000Y-84937502D01*
G75*
G02*
X46450002Y-85187500I-249998J0D01*
G01*
X45549998Y-85187500D01*
G75*
G02*
X45300000Y-84937502I0J249998D01*
G01*
X45300000Y-84412498D01*
G75*
G02*
X45549998Y-84162500I249998J0D01*
G01*
G37*
%TD*%
%TO.C,R2*%
G36*
G01*
X35049998Y-85987500D02*
X35950002Y-85987500D01*
G75*
G02*
X36200000Y-86237498I0J-249998D01*
G01*
X36200000Y-86762502D01*
G75*
G02*
X35950002Y-87012500I-249998J0D01*
G01*
X35049998Y-87012500D01*
G75*
G02*
X34800000Y-86762502I0J249998D01*
G01*
X34800000Y-86237498D01*
G75*
G02*
X35049998Y-85987500I249998J0D01*
G01*
G37*
G36*
G01*
X35049998Y-84162500D02*
X35950002Y-84162500D01*
G75*
G02*
X36200000Y-84412498I0J-249998D01*
G01*
X36200000Y-84937502D01*
G75*
G02*
X35950002Y-85187500I-249998J0D01*
G01*
X35049998Y-85187500D01*
G75*
G02*
X34800000Y-84937502I0J249998D01*
G01*
X34800000Y-84412498D01*
G75*
G02*
X35049998Y-84162500I249998J0D01*
G01*
G37*
%TD*%
%TO.C,R1*%
G36*
G01*
X25450002Y-85187500D02*
X24549998Y-85187500D01*
G75*
G02*
X24300000Y-84937502I0J249998D01*
G01*
X24300000Y-84412498D01*
G75*
G02*
X24549998Y-84162500I249998J0D01*
G01*
X25450002Y-84162500D01*
G75*
G02*
X25700000Y-84412498I0J-249998D01*
G01*
X25700000Y-84937502D01*
G75*
G02*
X25450002Y-85187500I-249998J0D01*
G01*
G37*
G36*
G01*
X25450002Y-87012500D02*
X24549998Y-87012500D01*
G75*
G02*
X24300000Y-86762502I0J249998D01*
G01*
X24300000Y-86237498D01*
G75*
G02*
X24549998Y-85987500I249998J0D01*
G01*
X25450002Y-85987500D01*
G75*
G02*
X25700000Y-86237498I0J-249998D01*
G01*
X25700000Y-86762502D01*
G75*
G02*
X25450002Y-87012500I-249998J0D01*
G01*
G37*
%TD*%
D20*
%TO.C,J3*%
X90000000Y-49500000D03*
X82500000Y-49500000D03*
D21*
X75000000Y-49500000D03*
%TD*%
D20*
%TO.C,J2*%
X62000000Y-49500000D03*
X54500000Y-49500000D03*
X47000000Y-49500000D03*
X39500000Y-49500000D03*
X32000000Y-49500000D03*
D21*
X24500000Y-49500000D03*
%TD*%
D20*
%TO.C,J1*%
X116500000Y-49500000D03*
X109000000Y-49500000D03*
D21*
X101500000Y-49500000D03*
%TD*%
M02*
