%TF.GenerationSoftware,KiCad,Pcbnew,5.1.7-a382d34a8~87~ubuntu18.04.1*%
%TF.CreationDate,2020-10-18T18:02:23+02:00*%
%TF.ProjectId,thermodrive,74686572-6d6f-4647-9269-76652e6b6963,rev?*%
%TF.SameCoordinates,Original*%
%TF.FileFunction,Copper,L2,Bot*%
%TF.FilePolarity,Positive*%
%FSLAX46Y46*%
G04 Gerber Fmt 4.6, Leading zero omitted, Abs format (unit mm)*
G04 Created by KiCad (PCBNEW 5.1.7-a382d34a8~87~ubuntu18.04.1) date 2020-10-18 18:02:23*
%MOMM*%
%LPD*%
G01*
G04 APERTURE LIST*
%TA.AperFunction,ComponentPad*%
%ADD10C,1.700000*%
%TD*%
%TA.AperFunction,ComponentPad*%
%ADD11R,1.700000X1.700000*%
%TD*%
%TA.AperFunction,ComponentPad*%
%ADD12O,1.700000X1.700000*%
%TD*%
%TA.AperFunction,ComponentPad*%
%ADD13O,2.000000X2.600000*%
%TD*%
%TA.AperFunction,ComponentPad*%
%ADD14C,1.800000*%
%TD*%
%TA.AperFunction,ComponentPad*%
%ADD15C,2.300000*%
%TD*%
%TA.AperFunction,ComponentPad*%
%ADD16R,2.300000X2.000000*%
%TD*%
%TA.AperFunction,ComponentPad*%
%ADD17O,4.000000X2.500000*%
%TD*%
%TA.AperFunction,ComponentPad*%
%ADD18C,1.998980*%
%TD*%
%TA.AperFunction,ComponentPad*%
%ADD19C,2.600000*%
%TD*%
%TA.AperFunction,ComponentPad*%
%ADD20R,2.600000X2.600000*%
%TD*%
%TA.AperFunction,Conductor*%
%ADD21C,3.000000*%
%TD*%
%TA.AperFunction,Conductor*%
%ADD22C,1.000000*%
%TD*%
%TA.AperFunction,Conductor*%
%ADD23C,0.508000*%
%TD*%
%TA.AperFunction,Conductor*%
%ADD24C,0.100000*%
%TD*%
G04 APERTURE END LIST*
%TO.P,R4,2*%
%TO.N,Net-(R4-Pad2)*%
%TA.AperFunction,SMDPad,CuDef*%
G36*
G01*
X55012500Y-84549998D02*
X55012500Y-85450002D01*
G75*
G02*
X54762502Y-85700000I-249998J0D01*
G01*
X54237498Y-85700000D01*
G75*
G02*
X53987500Y-85450002I0J249998D01*
G01*
X53987500Y-84549998D01*
G75*
G02*
X54237498Y-84300000I249998J0D01*
G01*
X54762502Y-84300000D01*
G75*
G02*
X55012500Y-84549998I0J-249998D01*
G01*
G37*
%TD.AperFunction*%
%TO.P,R4,1*%
%TO.N,Net-(R4-Pad1)*%
%TA.AperFunction,SMDPad,CuDef*%
G36*
G01*
X56837500Y-84549998D02*
X56837500Y-85450002D01*
G75*
G02*
X56587502Y-85700000I-249998J0D01*
G01*
X56062498Y-85700000D01*
G75*
G02*
X55812500Y-85450002I0J249998D01*
G01*
X55812500Y-84549998D01*
G75*
G02*
X56062498Y-84300000I249998J0D01*
G01*
X56587502Y-84300000D01*
G75*
G02*
X56837500Y-84549998I0J-249998D01*
G01*
G37*
%TD.AperFunction*%
%TD*%
D10*
%TO.P,U7,32*%
%TO.N,Net-(U7-Pad32)*%
X39500000Y-91220000D03*
%TO.P,U7,31*%
%TO.N,Net-(R1-Pad1)*%
X42040000Y-91220000D03*
%TO.P,U7,30*%
%TO.N,Net-(R2-Pad2)*%
X44580000Y-91220000D03*
%TO.P,U7,29*%
%TO.N,Net-(R3-Pad2)*%
X47120000Y-91220000D03*
%TO.P,U7,28*%
%TO.N,Net-(R4-Pad2)*%
X49660000Y-91220000D03*
%TO.P,U7,27*%
%TO.N,Net-(R5-Pad2)*%
X52200000Y-91220000D03*
%TO.P,U7,26*%
%TO.N,Net-(R6-Pad2)*%
X54740000Y-91220000D03*
%TO.P,U7,25*%
%TO.N,Net-(J6-Pad2)*%
X57280000Y-91220000D03*
%TO.P,U7,24*%
%TO.N,Net-(J6-Pad3)*%
X59820000Y-91220000D03*
%TO.P,U7,23*%
%TO.N,GND*%
X62360000Y-91220000D03*
%TO.P,U7,22*%
X64900000Y-91220000D03*
%TO.P,U7,21*%
X67440000Y-91220000D03*
%TO.P,U7,20*%
X69980000Y-91220000D03*
%TO.P,U7,19*%
X72520000Y-91220000D03*
%TO.P,U7,18*%
X75060000Y-91220000D03*
%TO.P,U7,17*%
%TO.N,N/C*%
X77600000Y-91220000D03*
%TO.P,U7,16*%
%TO.N,Net-(J6-Pad1)*%
X77600000Y-109000000D03*
%TO.P,U7,14*%
%TO.N,Net-(JP1-Pad1)*%
X72520000Y-109000000D03*
%TO.P,U7,12*%
%TO.N,GND*%
X67440000Y-109000000D03*
%TO.P,U7,11*%
X64900000Y-109000000D03*
%TO.P,U7,10*%
X62360000Y-109000000D03*
%TO.P,U7,9*%
%TO.N,Net-(J5-Pad8)*%
X59820000Y-109000000D03*
%TO.P,U7,8*%
%TO.N,Net-(J5-Pad7)*%
X57280000Y-109000000D03*
%TO.P,U7,7*%
%TO.N,Net-(J5-Pad6)*%
X54740000Y-109000000D03*
%TO.P,U7,6*%
%TO.N,Net-(J5-Pad5)*%
X52200000Y-109000000D03*
%TO.P,U7,5*%
%TO.N,Net-(J5-Pad4)*%
X49660000Y-109000000D03*
%TO.P,U7,4*%
%TO.N,Net-(J5-Pad3)*%
X47120000Y-109000000D03*
%TO.P,U7,3*%
%TO.N,Net-(J5-Pad2)*%
X44580000Y-109000000D03*
%TO.P,U7,2*%
%TO.N,Net-(J5-Pad1)*%
X42040000Y-109000000D03*
D11*
%TO.P,U7,1*%
%TO.N,GND*%
X39500000Y-109000000D03*
%TD*%
D12*
%TO.P,JP1,2*%
%TO.N,+3V3*%
X85000000Y-91960000D03*
D11*
%TO.P,JP1,1*%
%TO.N,Net-(JP1-Pad1)*%
X85000000Y-94500000D03*
%TD*%
D13*
%TO.P,J6,4*%
%TO.N,GND*%
X89500000Y-123000000D03*
%TO.P,J6,3*%
%TO.N,Net-(J6-Pad3)*%
X86000000Y-123000000D03*
%TO.P,J6,2*%
%TO.N,Net-(J6-Pad2)*%
X82500000Y-123000000D03*
%TO.P,J6,1*%
%TO.N,Net-(J6-Pad1)*%
%TA.AperFunction,ComponentPad*%
G36*
G01*
X78000000Y-124050000D02*
X78000000Y-121950000D01*
G75*
G02*
X78250000Y-121700000I250000J0D01*
G01*
X79750000Y-121700000D01*
G75*
G02*
X80000000Y-121950000I0J-250000D01*
G01*
X80000000Y-124050000D01*
G75*
G02*
X79750000Y-124300000I-250000J0D01*
G01*
X78250000Y-124300000D01*
G75*
G02*
X78000000Y-124050000I0J250000D01*
G01*
G37*
%TD.AperFunction*%
%TD*%
%TO.P,C4,2*%
%TO.N,GND*%
%TA.AperFunction,SMDPad,CuDef*%
G36*
G01*
X89100000Y-108849999D02*
X89100000Y-110150001D01*
G75*
G02*
X88850001Y-110400000I-249999J0D01*
G01*
X88199999Y-110400000D01*
G75*
G02*
X87950000Y-110150001I0J249999D01*
G01*
X87950000Y-108849999D01*
G75*
G02*
X88199999Y-108600000I249999J0D01*
G01*
X88850001Y-108600000D01*
G75*
G02*
X89100000Y-108849999I0J-249999D01*
G01*
G37*
%TD.AperFunction*%
%TO.P,C4,1*%
%TO.N,+3V3*%
%TA.AperFunction,SMDPad,CuDef*%
G36*
G01*
X92050000Y-108849999D02*
X92050000Y-110150001D01*
G75*
G02*
X91800001Y-110400000I-249999J0D01*
G01*
X91149999Y-110400000D01*
G75*
G02*
X90900000Y-110150001I0J249999D01*
G01*
X90900000Y-108849999D01*
G75*
G02*
X91149999Y-108600000I249999J0D01*
G01*
X91800001Y-108600000D01*
G75*
G02*
X92050000Y-108849999I0J-249999D01*
G01*
G37*
%TD.AperFunction*%
%TD*%
%TO.P,C3,2*%
%TO.N,GND*%
%TA.AperFunction,SMDPad,CuDef*%
G36*
G01*
X89100000Y-111849999D02*
X89100000Y-113150001D01*
G75*
G02*
X88850001Y-113400000I-249999J0D01*
G01*
X88199999Y-113400000D01*
G75*
G02*
X87950000Y-113150001I0J249999D01*
G01*
X87950000Y-111849999D01*
G75*
G02*
X88199999Y-111600000I249999J0D01*
G01*
X88850001Y-111600000D01*
G75*
G02*
X89100000Y-111849999I0J-249999D01*
G01*
G37*
%TD.AperFunction*%
%TO.P,C3,1*%
%TO.N,+3V3*%
%TA.AperFunction,SMDPad,CuDef*%
G36*
G01*
X92050000Y-111849999D02*
X92050000Y-113150001D01*
G75*
G02*
X91800001Y-113400000I-249999J0D01*
G01*
X91149999Y-113400000D01*
G75*
G02*
X90900000Y-113150001I0J249999D01*
G01*
X90900000Y-111849999D01*
G75*
G02*
X91149999Y-111600000I249999J0D01*
G01*
X91800001Y-111600000D01*
G75*
G02*
X92050000Y-111849999I0J-249999D01*
G01*
G37*
%TD.AperFunction*%
%TD*%
%TO.P,C2,2*%
%TO.N,GND*%
%TA.AperFunction,SMDPad,CuDef*%
G36*
G01*
X89125000Y-105849999D02*
X89125000Y-107150001D01*
G75*
G02*
X88875001Y-107400000I-249999J0D01*
G01*
X88224999Y-107400000D01*
G75*
G02*
X87975000Y-107150001I0J249999D01*
G01*
X87975000Y-105849999D01*
G75*
G02*
X88224999Y-105600000I249999J0D01*
G01*
X88875001Y-105600000D01*
G75*
G02*
X89125000Y-105849999I0J-249999D01*
G01*
G37*
%TD.AperFunction*%
%TO.P,C2,1*%
%TO.N,+3V3*%
%TA.AperFunction,SMDPad,CuDef*%
G36*
G01*
X92075000Y-105849999D02*
X92075000Y-107150001D01*
G75*
G02*
X91825001Y-107400000I-249999J0D01*
G01*
X91174999Y-107400000D01*
G75*
G02*
X90925000Y-107150001I0J249999D01*
G01*
X90925000Y-105849999D01*
G75*
G02*
X91174999Y-105600000I249999J0D01*
G01*
X91825001Y-105600000D01*
G75*
G02*
X92075000Y-105849999I0J-249999D01*
G01*
G37*
%TD.AperFunction*%
%TD*%
D14*
%TO.P,RV6,2*%
%TO.N,Net-(J2-Pad6)*%
X76900000Y-64500000D03*
%TO.P,RV6,1*%
%TO.N,/NET_L*%
X75500000Y-72000000D03*
%TD*%
D15*
%TO.P,PS1,16*%
%TO.N,+3V3*%
X115280000Y-106900000D03*
%TO.P,PS1,14*%
%TO.N,GND*%
X115280000Y-111980000D03*
%TO.P,PS1,3*%
%TO.N,/NET_N*%
X97500000Y-86580000D03*
D16*
%TO.P,PS1,1*%
%TO.N,/NET_L*%
X97500000Y-81500000D03*
D15*
%TO.P,PS1,5*%
%TO.N,Net-(PS1-Pad5)*%
X97500000Y-111980000D03*
%TD*%
D13*
%TO.P,J5,8*%
%TO.N,Net-(J5-Pad8)*%
X66500000Y-123000000D03*
%TO.P,J5,7*%
%TO.N,Net-(J5-Pad7)*%
X63000000Y-123000000D03*
%TO.P,J5,6*%
%TO.N,Net-(J5-Pad6)*%
X59500000Y-123000000D03*
%TO.P,J5,5*%
%TO.N,Net-(J5-Pad5)*%
X56000000Y-123000000D03*
%TO.P,J5,4*%
%TO.N,Net-(J5-Pad4)*%
X52500000Y-123000000D03*
%TO.P,J5,3*%
%TO.N,Net-(J5-Pad3)*%
X49000000Y-123000000D03*
%TO.P,J5,2*%
%TO.N,Net-(J5-Pad2)*%
X45500000Y-123000000D03*
%TO.P,J5,1*%
%TO.N,Net-(J5-Pad1)*%
%TA.AperFunction,ComponentPad*%
G36*
G01*
X41000000Y-124050000D02*
X41000000Y-121950000D01*
G75*
G02*
X41250000Y-121700000I250000J0D01*
G01*
X42750000Y-121700000D01*
G75*
G02*
X43000000Y-121950000I0J-250000D01*
G01*
X43000000Y-124050000D01*
G75*
G02*
X42750000Y-124300000I-250000J0D01*
G01*
X41250000Y-124300000D01*
G75*
G02*
X41000000Y-124050000I0J250000D01*
G01*
G37*
%TD.AperFunction*%
%TD*%
%TO.P,J4,4*%
%TO.N,GND*%
X111000000Y-123000000D03*
%TO.P,J4,3*%
X107500000Y-123000000D03*
%TO.P,J4,2*%
%TO.N,+3V3*%
X104000000Y-123000000D03*
%TO.P,J4,1*%
%TA.AperFunction,ComponentPad*%
G36*
G01*
X99500000Y-124050000D02*
X99500000Y-121950000D01*
G75*
G02*
X99750000Y-121700000I250000J0D01*
G01*
X101250000Y-121700000D01*
G75*
G02*
X101500000Y-121950000I0J-250000D01*
G01*
X101500000Y-124050000D01*
G75*
G02*
X101250000Y-124300000I-250000J0D01*
G01*
X99750000Y-124300000D01*
G75*
G02*
X99500000Y-124050000I0J250000D01*
G01*
G37*
%TD.AperFunction*%
%TD*%
D17*
%TO.P,F1,1*%
%TO.N,Net-(F1-Pad1)*%
X117000000Y-71000000D03*
%TO.P,F1,2*%
%TO.N,/NET_L*%
X95000000Y-71000000D03*
%TD*%
%TO.P,C1,2*%
%TO.N,GND*%
%TA.AperFunction,SMDPad,CuDef*%
G36*
G01*
X89100000Y-103025000D02*
X89100000Y-103975000D01*
G75*
G02*
X88850000Y-104225000I-250000J0D01*
G01*
X88350000Y-104225000D01*
G75*
G02*
X88100000Y-103975000I0J250000D01*
G01*
X88100000Y-103025000D01*
G75*
G02*
X88350000Y-102775000I250000J0D01*
G01*
X88850000Y-102775000D01*
G75*
G02*
X89100000Y-103025000I0J-250000D01*
G01*
G37*
%TD.AperFunction*%
%TO.P,C1,1*%
%TO.N,+3V3*%
%TA.AperFunction,SMDPad,CuDef*%
G36*
G01*
X91000000Y-103025000D02*
X91000000Y-103975000D01*
G75*
G02*
X90750000Y-104225000I-250000J0D01*
G01*
X90250000Y-104225000D01*
G75*
G02*
X90000000Y-103975000I0J250000D01*
G01*
X90000000Y-103025000D01*
G75*
G02*
X90250000Y-102775000I250000J0D01*
G01*
X90750000Y-102775000D01*
G75*
G02*
X91000000Y-103025000I0J-250000D01*
G01*
G37*
%TD.AperFunction*%
%TD*%
D18*
%TO.P,U6,4*%
%TO.N,Net-(J2-Pad6)*%
X80500000Y-67000000D03*
%TO.P,U6,3*%
%TO.N,/NET_L*%
X80500000Y-72080000D03*
%TO.P,U6,2*%
%TO.N,+3V3*%
X80500000Y-82240000D03*
%TO.P,U6,1*%
%TO.N,Net-(R6-Pad1)*%
X80500000Y-84780000D03*
%TD*%
%TO.P,U5,4*%
%TO.N,Net-(J2-Pad5)*%
X70000000Y-67000000D03*
%TO.P,U5,3*%
%TO.N,/NET_L*%
X70000000Y-72080000D03*
%TO.P,U5,2*%
%TO.N,+3V3*%
X70000000Y-82240000D03*
%TO.P,U5,1*%
%TO.N,Net-(R5-Pad1)*%
X70000000Y-84780000D03*
%TD*%
%TO.P,U4,4*%
%TO.N,Net-(J2-Pad4)*%
X59500000Y-67000000D03*
%TO.P,U4,3*%
%TO.N,/NET_L*%
X59500000Y-72080000D03*
%TO.P,U4,2*%
%TO.N,+3V3*%
X59500000Y-82240000D03*
%TO.P,U4,1*%
%TO.N,Net-(R4-Pad1)*%
X59500000Y-84780000D03*
%TD*%
%TO.P,U3,4*%
%TO.N,Net-(J2-Pad3)*%
X49000000Y-67000000D03*
%TO.P,U3,3*%
%TO.N,/NET_L*%
X49000000Y-72080000D03*
%TO.P,U3,2*%
%TO.N,+3V3*%
X49000000Y-82240000D03*
%TO.P,U3,1*%
%TO.N,Net-(R3-Pad1)*%
X49000000Y-84780000D03*
%TD*%
%TO.P,U2,4*%
%TO.N,Net-(J2-Pad2)*%
X38500000Y-67000000D03*
%TO.P,U2,3*%
%TO.N,/NET_L*%
X38500000Y-72080000D03*
%TO.P,U2,2*%
%TO.N,+3V3*%
X38500000Y-82240000D03*
%TO.P,U2,1*%
%TO.N,Net-(R2-Pad1)*%
X38500000Y-84780000D03*
%TD*%
%TO.P,U1,4*%
%TO.N,Net-(J2-Pad1)*%
X28000000Y-67000000D03*
%TO.P,U1,3*%
%TO.N,/NET_L*%
X28000000Y-72080000D03*
%TO.P,U1,2*%
%TO.N,+3V3*%
X28000000Y-82240000D03*
%TO.P,U1,1*%
%TO.N,Net-(R1-Pad2)*%
X28000000Y-84780000D03*
%TD*%
D14*
%TO.P,RV5,2*%
%TO.N,Net-(J2-Pad5)*%
X66400000Y-64500000D03*
%TO.P,RV5,1*%
%TO.N,/NET_L*%
X65000000Y-72000000D03*
%TD*%
%TO.P,RV4,2*%
%TO.N,Net-(J2-Pad4)*%
X55900000Y-64500000D03*
%TO.P,RV4,1*%
%TO.N,/NET_L*%
X54500000Y-72000000D03*
%TD*%
%TO.P,RV3,2*%
%TO.N,Net-(J2-Pad3)*%
X45400000Y-64500000D03*
%TO.P,RV3,1*%
%TO.N,/NET_L*%
X44000000Y-72000000D03*
%TD*%
%TO.P,RV2,2*%
%TO.N,Net-(J2-Pad2)*%
X34900000Y-64500000D03*
%TO.P,RV2,1*%
%TO.N,/NET_L*%
X33500000Y-72000000D03*
%TD*%
%TO.P,RV1,2*%
%TO.N,Net-(J2-Pad1)*%
X24400000Y-64500000D03*
%TO.P,RV1,1*%
%TO.N,/NET_L*%
X23000000Y-72000000D03*
%TD*%
%TO.P,R6,2*%
%TO.N,Net-(R6-Pad2)*%
%TA.AperFunction,SMDPad,CuDef*%
G36*
G01*
X77049998Y-85987500D02*
X77950002Y-85987500D01*
G75*
G02*
X78200000Y-86237498I0J-249998D01*
G01*
X78200000Y-86762502D01*
G75*
G02*
X77950002Y-87012500I-249998J0D01*
G01*
X77049998Y-87012500D01*
G75*
G02*
X76800000Y-86762502I0J249998D01*
G01*
X76800000Y-86237498D01*
G75*
G02*
X77049998Y-85987500I249998J0D01*
G01*
G37*
%TD.AperFunction*%
%TO.P,R6,1*%
%TO.N,Net-(R6-Pad1)*%
%TA.AperFunction,SMDPad,CuDef*%
G36*
G01*
X77049998Y-84162500D02*
X77950002Y-84162500D01*
G75*
G02*
X78200000Y-84412498I0J-249998D01*
G01*
X78200000Y-84937502D01*
G75*
G02*
X77950002Y-85187500I-249998J0D01*
G01*
X77049998Y-85187500D01*
G75*
G02*
X76800000Y-84937502I0J249998D01*
G01*
X76800000Y-84412498D01*
G75*
G02*
X77049998Y-84162500I249998J0D01*
G01*
G37*
%TD.AperFunction*%
%TD*%
%TO.P,R5,2*%
%TO.N,Net-(R5-Pad2)*%
%TA.AperFunction,SMDPad,CuDef*%
G36*
G01*
X66549998Y-85987500D02*
X67450002Y-85987500D01*
G75*
G02*
X67700000Y-86237498I0J-249998D01*
G01*
X67700000Y-86762502D01*
G75*
G02*
X67450002Y-87012500I-249998J0D01*
G01*
X66549998Y-87012500D01*
G75*
G02*
X66300000Y-86762502I0J249998D01*
G01*
X66300000Y-86237498D01*
G75*
G02*
X66549998Y-85987500I249998J0D01*
G01*
G37*
%TD.AperFunction*%
%TO.P,R5,1*%
%TO.N,Net-(R5-Pad1)*%
%TA.AperFunction,SMDPad,CuDef*%
G36*
G01*
X66549998Y-84162500D02*
X67450002Y-84162500D01*
G75*
G02*
X67700000Y-84412498I0J-249998D01*
G01*
X67700000Y-84937502D01*
G75*
G02*
X67450002Y-85187500I-249998J0D01*
G01*
X66549998Y-85187500D01*
G75*
G02*
X66300000Y-84937502I0J249998D01*
G01*
X66300000Y-84412498D01*
G75*
G02*
X66549998Y-84162500I249998J0D01*
G01*
G37*
%TD.AperFunction*%
%TD*%
%TO.P,R3,2*%
%TO.N,Net-(R3-Pad2)*%
%TA.AperFunction,SMDPad,CuDef*%
G36*
G01*
X45549998Y-85987500D02*
X46450002Y-85987500D01*
G75*
G02*
X46700000Y-86237498I0J-249998D01*
G01*
X46700000Y-86762502D01*
G75*
G02*
X46450002Y-87012500I-249998J0D01*
G01*
X45549998Y-87012500D01*
G75*
G02*
X45300000Y-86762502I0J249998D01*
G01*
X45300000Y-86237498D01*
G75*
G02*
X45549998Y-85987500I249998J0D01*
G01*
G37*
%TD.AperFunction*%
%TO.P,R3,1*%
%TO.N,Net-(R3-Pad1)*%
%TA.AperFunction,SMDPad,CuDef*%
G36*
G01*
X45549998Y-84162500D02*
X46450002Y-84162500D01*
G75*
G02*
X46700000Y-84412498I0J-249998D01*
G01*
X46700000Y-84937502D01*
G75*
G02*
X46450002Y-85187500I-249998J0D01*
G01*
X45549998Y-85187500D01*
G75*
G02*
X45300000Y-84937502I0J249998D01*
G01*
X45300000Y-84412498D01*
G75*
G02*
X45549998Y-84162500I249998J0D01*
G01*
G37*
%TD.AperFunction*%
%TD*%
%TO.P,R2,2*%
%TO.N,Net-(R2-Pad2)*%
%TA.AperFunction,SMDPad,CuDef*%
G36*
G01*
X35049998Y-85987500D02*
X35950002Y-85987500D01*
G75*
G02*
X36200000Y-86237498I0J-249998D01*
G01*
X36200000Y-86762502D01*
G75*
G02*
X35950002Y-87012500I-249998J0D01*
G01*
X35049998Y-87012500D01*
G75*
G02*
X34800000Y-86762502I0J249998D01*
G01*
X34800000Y-86237498D01*
G75*
G02*
X35049998Y-85987500I249998J0D01*
G01*
G37*
%TD.AperFunction*%
%TO.P,R2,1*%
%TO.N,Net-(R2-Pad1)*%
%TA.AperFunction,SMDPad,CuDef*%
G36*
G01*
X35049998Y-84162500D02*
X35950002Y-84162500D01*
G75*
G02*
X36200000Y-84412498I0J-249998D01*
G01*
X36200000Y-84937502D01*
G75*
G02*
X35950002Y-85187500I-249998J0D01*
G01*
X35049998Y-85187500D01*
G75*
G02*
X34800000Y-84937502I0J249998D01*
G01*
X34800000Y-84412498D01*
G75*
G02*
X35049998Y-84162500I249998J0D01*
G01*
G37*
%TD.AperFunction*%
%TD*%
%TO.P,R1,2*%
%TO.N,Net-(R1-Pad2)*%
%TA.AperFunction,SMDPad,CuDef*%
G36*
G01*
X25450002Y-85187500D02*
X24549998Y-85187500D01*
G75*
G02*
X24300000Y-84937502I0J249998D01*
G01*
X24300000Y-84412498D01*
G75*
G02*
X24549998Y-84162500I249998J0D01*
G01*
X25450002Y-84162500D01*
G75*
G02*
X25700000Y-84412498I0J-249998D01*
G01*
X25700000Y-84937502D01*
G75*
G02*
X25450002Y-85187500I-249998J0D01*
G01*
G37*
%TD.AperFunction*%
%TO.P,R1,1*%
%TO.N,Net-(R1-Pad1)*%
%TA.AperFunction,SMDPad,CuDef*%
G36*
G01*
X25450002Y-87012500D02*
X24549998Y-87012500D01*
G75*
G02*
X24300000Y-86762502I0J249998D01*
G01*
X24300000Y-86237498D01*
G75*
G02*
X24549998Y-85987500I249998J0D01*
G01*
X25450002Y-85987500D01*
G75*
G02*
X25700000Y-86237498I0J-249998D01*
G01*
X25700000Y-86762502D01*
G75*
G02*
X25450002Y-87012500I-249998J0D01*
G01*
G37*
%TD.AperFunction*%
%TD*%
D19*
%TO.P,J3,3*%
%TO.N,/NET_N*%
X90000000Y-49500000D03*
%TO.P,J3,2*%
X82500000Y-49500000D03*
D20*
%TO.P,J3,1*%
X75000000Y-49500000D03*
%TD*%
D19*
%TO.P,J2,6*%
%TO.N,Net-(J2-Pad6)*%
X62000000Y-49500000D03*
%TO.P,J2,5*%
%TO.N,Net-(J2-Pad5)*%
X54500000Y-49500000D03*
%TO.P,J2,4*%
%TO.N,Net-(J2-Pad4)*%
X47000000Y-49500000D03*
%TO.P,J2,3*%
%TO.N,Net-(J2-Pad3)*%
X39500000Y-49500000D03*
%TO.P,J2,2*%
%TO.N,Net-(J2-Pad2)*%
X32000000Y-49500000D03*
D20*
%TO.P,J2,1*%
%TO.N,Net-(J2-Pad1)*%
X24500000Y-49500000D03*
%TD*%
D19*
%TO.P,J1,3*%
%TO.N,Net-(F1-Pad1)*%
X116500000Y-49500000D03*
%TO.P,J1,2*%
X109000000Y-49500000D03*
D20*
%TO.P,J1,1*%
X101500000Y-49500000D03*
%TD*%
D21*
%TO.N,/NET_N*%
X75000000Y-49500000D02*
X90000000Y-49500000D01*
X90000000Y-49500000D02*
X90000000Y-52000000D01*
X90000000Y-52000000D02*
X105500000Y-67500000D01*
X105500000Y-67500000D02*
X105500000Y-84500000D01*
X102999999Y-87000001D02*
X97500000Y-87000001D01*
X105500000Y-84500000D02*
X102999999Y-87000001D01*
%TO.N,Net-(J2-Pad6)*%
X79080509Y-66580509D02*
X80500000Y-66580509D01*
X62000000Y-49500000D02*
X79080509Y-66580509D01*
%TO.N,Net-(J2-Pad5)*%
X54500000Y-52600000D02*
X66400000Y-64500000D01*
X54500000Y-49500000D02*
X54500000Y-52600000D01*
X66400000Y-64500000D02*
X68480509Y-66580509D01*
X68480509Y-66580509D02*
X70000000Y-66580509D01*
%TO.N,Net-(J2-Pad4)*%
X47000000Y-55600000D02*
X55900000Y-64500000D01*
X47000000Y-49500000D02*
X47000000Y-55600000D01*
X55900000Y-64500000D02*
X57980509Y-66580509D01*
X57980509Y-66580509D02*
X59500000Y-66580509D01*
%TO.N,Net-(J2-Pad3)*%
X39500000Y-49500000D02*
X39500000Y-58500000D01*
X47580509Y-66580509D02*
X49000000Y-66580509D01*
X39500000Y-58500000D02*
X47580509Y-66580509D01*
%TO.N,Net-(J2-Pad2)*%
X32000000Y-61600000D02*
X34900000Y-64500000D01*
X32000000Y-49500000D02*
X32000000Y-61600000D01*
X34900000Y-64500000D02*
X36900000Y-66500000D01*
X38080509Y-66580509D02*
X38500000Y-66580509D01*
X36900000Y-66500000D02*
X38000000Y-66500000D01*
X38000000Y-66500000D02*
X38080509Y-66580509D01*
%TO.N,Net-(J2-Pad1)*%
X24500000Y-64400000D02*
X24400000Y-64500000D01*
X24500000Y-49500000D02*
X24500000Y-64400000D01*
X24400000Y-64500000D02*
X24400000Y-65999999D01*
X25360243Y-66580509D02*
X28000000Y-66580509D01*
X24400000Y-65999999D02*
X25170376Y-66770376D01*
X25170376Y-66770376D02*
X25360243Y-66580509D01*
%TO.N,+3V3*%
X115280000Y-106900000D02*
X106600000Y-106900000D01*
D22*
X85000000Y-86320752D02*
X85000000Y-91960000D01*
X80919248Y-82240000D02*
X85000000Y-86320752D01*
X28000000Y-82240000D02*
X80919248Y-82240000D01*
X91475000Y-106525000D02*
X91500000Y-106500000D01*
X91475000Y-112500000D02*
X91475000Y-106525000D01*
X91500000Y-106500000D02*
X91500000Y-105500000D01*
X90500000Y-104500000D02*
X90500000Y-103500000D01*
X91500000Y-105500000D02*
X90500000Y-104500000D01*
X90500000Y-103500000D02*
X90500000Y-96000000D01*
X86460000Y-91960000D02*
X85000000Y-91960000D01*
X90500000Y-96000000D02*
X86460000Y-91960000D01*
X106200000Y-106500000D02*
X106600000Y-106900000D01*
X91500000Y-106500000D02*
X106200000Y-106500000D01*
D21*
X104000000Y-121500000D02*
X104000000Y-122900000D01*
X106600000Y-106900000D02*
X104000000Y-109500000D01*
X104000000Y-109500000D02*
X104000000Y-121500000D01*
X104000000Y-122900000D02*
X100500000Y-122900000D01*
D22*
%TO.N,Net-(R2-Pad1)*%
X38395000Y-84675000D02*
X38500000Y-84780000D01*
X35500000Y-84675000D02*
X38395000Y-84675000D01*
%TO.N,Net-(R3-Pad1)*%
X48895000Y-84675000D02*
X49000000Y-84780000D01*
X46000000Y-84675000D02*
X48895000Y-84675000D01*
%TO.N,Net-(R4-Pad1)*%
X59280000Y-85000000D02*
X59500000Y-84780000D01*
X56325000Y-85000000D02*
X59280000Y-85000000D01*
%TO.N,Net-(R5-Pad1)*%
X69895000Y-84675000D02*
X70000000Y-84780000D01*
X67000000Y-84675000D02*
X69895000Y-84675000D01*
%TO.N,Net-(R6-Pad1)*%
X80395000Y-84675000D02*
X80500000Y-84780000D01*
X77500000Y-84675000D02*
X80395000Y-84675000D01*
%TO.N,Net-(J5-Pad8)*%
X59820000Y-110820000D02*
X59820000Y-109000000D01*
X66500000Y-122900000D02*
X66500000Y-117500000D01*
X66500000Y-117500000D02*
X59820000Y-110820000D01*
%TO.N,Net-(J5-Pad7)*%
X57280000Y-111280000D02*
X57280000Y-109000000D01*
X63000000Y-122900000D02*
X63000000Y-117000000D01*
X63000000Y-117000000D02*
X57280000Y-111280000D01*
%TO.N,Net-(J5-Pad6)*%
X54740000Y-111740000D02*
X54740000Y-109000000D01*
X59500000Y-122900000D02*
X59500000Y-116500000D01*
X59500000Y-116500000D02*
X54740000Y-111740000D01*
%TO.N,Net-(J5-Pad5)*%
X52200000Y-112200000D02*
X52200000Y-109000000D01*
X56000000Y-122900000D02*
X56000000Y-116000000D01*
X56000000Y-116000000D02*
X52200000Y-112200000D01*
%TO.N,Net-(J5-Pad4)*%
X49660000Y-113160000D02*
X49660000Y-109000000D01*
X52500000Y-122900000D02*
X52500000Y-116000000D01*
X52500000Y-116000000D02*
X49660000Y-113160000D01*
%TO.N,Net-(J5-Pad3)*%
X47120000Y-113620000D02*
X47120000Y-109000000D01*
X49000000Y-123000000D02*
X49000000Y-115500000D01*
X49000000Y-115500000D02*
X47120000Y-113620000D01*
%TO.N,Net-(J5-Pad2)*%
X44580000Y-114580000D02*
X44580000Y-109000000D01*
X45500000Y-123000000D02*
X45500000Y-115500000D01*
X45500000Y-115500000D02*
X44580000Y-114580000D01*
%TO.N,Net-(J5-Pad1)*%
X42000000Y-109040000D02*
X42040000Y-109000000D01*
X42000000Y-122900000D02*
X42000000Y-109040000D01*
%TO.N,Net-(J6-Pad3)*%
X86000000Y-108000000D02*
X86000000Y-122900000D01*
X79000000Y-101000000D02*
X86000000Y-108000000D01*
X65500000Y-101000000D02*
X79000000Y-101000000D01*
X59820000Y-91220000D02*
X59820000Y-95320000D01*
X59820000Y-95320000D02*
X65500000Y-101000000D01*
%TO.N,Net-(J6-Pad2)*%
X57280000Y-97280000D02*
X57280000Y-91220000D01*
X63500000Y-103500000D02*
X57280000Y-97280000D01*
X82500000Y-122900000D02*
X82500000Y-108000000D01*
X78000000Y-103500000D02*
X63500000Y-103500000D01*
X82500000Y-108000000D02*
X78000000Y-103500000D01*
%TO.N,Net-(J6-Pad1)*%
X77600000Y-114100000D02*
X77600000Y-109000000D01*
X79000000Y-122900000D02*
X79000000Y-115500000D01*
X79000000Y-115500000D02*
X77600000Y-114100000D01*
%TO.N,Net-(R1-Pad2)*%
X27895000Y-84675000D02*
X28000000Y-84780000D01*
X25000000Y-84675000D02*
X27895000Y-84675000D01*
%TO.N,Net-(R1-Pad1)*%
X42040000Y-91220000D02*
X42040000Y-90040000D01*
X41000010Y-89000010D02*
X26000010Y-89000010D01*
X42040000Y-90040000D02*
X41000010Y-89000010D01*
X26000010Y-89000010D02*
X25000000Y-88000000D01*
X25000000Y-88000000D02*
X25000000Y-86500000D01*
%TO.N,Net-(R2-Pad2)*%
X35500000Y-86500000D02*
X36500000Y-86500000D01*
X36500000Y-86500000D02*
X37500000Y-87500000D01*
X42062081Y-87500000D02*
X44580000Y-90017919D01*
X44580000Y-90017919D02*
X44580000Y-91220000D01*
X37500000Y-87500000D02*
X42062081Y-87500000D01*
%TO.N,Net-(R3-Pad2)*%
X46000000Y-86500000D02*
X46000000Y-88000000D01*
X47120000Y-89120000D02*
X47120000Y-91220000D01*
X46000000Y-88000000D02*
X47120000Y-89120000D01*
%TO.N,Net-(R4-Pad2)*%
X49660000Y-91220000D02*
X49660000Y-89340000D01*
X54000000Y-85000000D02*
X49660000Y-89340000D01*
X54500000Y-85000000D02*
X54000000Y-85000000D01*
%TO.N,Net-(R5-Pad2)*%
X67000000Y-86500000D02*
X63000000Y-86500000D01*
X52200000Y-90017919D02*
X52200000Y-91220000D01*
X55438428Y-86779491D02*
X52200000Y-90017919D01*
X62720509Y-86779491D02*
X55438428Y-86779491D01*
X63000000Y-86500000D02*
X62720509Y-86779491D01*
%TO.N,Net-(R6-Pad2)*%
X54740000Y-90017919D02*
X55757919Y-89000000D01*
X54740000Y-91220000D02*
X54740000Y-90017919D01*
X55757919Y-89000000D02*
X72500000Y-89000000D01*
X75000000Y-86500000D02*
X77500000Y-86500000D01*
X72500000Y-89000000D02*
X75000000Y-86500000D01*
%TD*%
D23*
%TO.N,GND*%
X26238510Y-82413492D02*
X26306203Y-82753808D01*
X26438988Y-83074378D01*
X26631761Y-83362884D01*
X26681877Y-83413000D01*
X25614342Y-83413000D01*
X25450002Y-83396814D01*
X24549998Y-83396814D01*
X24351848Y-83416330D01*
X24161313Y-83474128D01*
X23985714Y-83567988D01*
X23831801Y-83694301D01*
X23705488Y-83848214D01*
X23611628Y-84023813D01*
X23553830Y-84214348D01*
X23534314Y-84412498D01*
X23534314Y-84937502D01*
X23553830Y-85135652D01*
X23611628Y-85326187D01*
X23705488Y-85501786D01*
X23775832Y-85587500D01*
X23705488Y-85673214D01*
X23611628Y-85848813D01*
X23553830Y-86039348D01*
X23534314Y-86237498D01*
X23534314Y-86762502D01*
X23553830Y-86960652D01*
X23611628Y-87151187D01*
X23705488Y-87326786D01*
X23738000Y-87366402D01*
X23738000Y-87938012D01*
X23731895Y-88000000D01*
X23738000Y-88061988D01*
X23738000Y-88061995D01*
X23756260Y-88247394D01*
X23828423Y-88485282D01*
X23945608Y-88704521D01*
X24103314Y-88896686D01*
X24151474Y-88936211D01*
X25063803Y-89848540D01*
X25103324Y-89896696D01*
X25295488Y-90054402D01*
X25462616Y-90143733D01*
X25514727Y-90171587D01*
X25752614Y-90243750D01*
X25774723Y-90245927D01*
X25938014Y-90262010D01*
X25938021Y-90262010D01*
X26000010Y-90268115D01*
X26061998Y-90262010D01*
X38201373Y-90262010D01*
X38071464Y-90456432D01*
X37949948Y-90749797D01*
X37888000Y-91061232D01*
X37888000Y-91378768D01*
X37949948Y-91690203D01*
X38071464Y-91983568D01*
X38247878Y-92247590D01*
X38472410Y-92472122D01*
X38736432Y-92648536D01*
X39029797Y-92770052D01*
X39341232Y-92832000D01*
X39658768Y-92832000D01*
X39970203Y-92770052D01*
X40263568Y-92648536D01*
X40527590Y-92472122D01*
X40752122Y-92247590D01*
X40770000Y-92220834D01*
X40787878Y-92247590D01*
X41012410Y-92472122D01*
X41276432Y-92648536D01*
X41569797Y-92770052D01*
X41881232Y-92832000D01*
X42198768Y-92832000D01*
X42510203Y-92770052D01*
X42803568Y-92648536D01*
X43067590Y-92472122D01*
X43292122Y-92247590D01*
X43310000Y-92220834D01*
X43327878Y-92247590D01*
X43552410Y-92472122D01*
X43816432Y-92648536D01*
X44109797Y-92770052D01*
X44421232Y-92832000D01*
X44738768Y-92832000D01*
X45050203Y-92770052D01*
X45343568Y-92648536D01*
X45607590Y-92472122D01*
X45832122Y-92247590D01*
X45850000Y-92220834D01*
X45867878Y-92247590D01*
X46092410Y-92472122D01*
X46356432Y-92648536D01*
X46649797Y-92770052D01*
X46961232Y-92832000D01*
X47278768Y-92832000D01*
X47590203Y-92770052D01*
X47883568Y-92648536D01*
X48147590Y-92472122D01*
X48372122Y-92247590D01*
X48390000Y-92220834D01*
X48407878Y-92247590D01*
X48632410Y-92472122D01*
X48896432Y-92648536D01*
X49189797Y-92770052D01*
X49501232Y-92832000D01*
X49818768Y-92832000D01*
X50130203Y-92770052D01*
X50423568Y-92648536D01*
X50687590Y-92472122D01*
X50912122Y-92247590D01*
X50930000Y-92220834D01*
X50947878Y-92247590D01*
X51172410Y-92472122D01*
X51436432Y-92648536D01*
X51729797Y-92770052D01*
X52041232Y-92832000D01*
X52358768Y-92832000D01*
X52670203Y-92770052D01*
X52963568Y-92648536D01*
X53227590Y-92472122D01*
X53452122Y-92247590D01*
X53470000Y-92220834D01*
X53487878Y-92247590D01*
X53712410Y-92472122D01*
X53976432Y-92648536D01*
X54269797Y-92770052D01*
X54581232Y-92832000D01*
X54898768Y-92832000D01*
X55210203Y-92770052D01*
X55503568Y-92648536D01*
X55767590Y-92472122D01*
X55992122Y-92247590D01*
X56010000Y-92220834D01*
X56018001Y-92232808D01*
X56018000Y-97218011D01*
X56011895Y-97280000D01*
X56018000Y-97341988D01*
X56018000Y-97341995D01*
X56036260Y-97527394D01*
X56108423Y-97765282D01*
X56225608Y-97984521D01*
X56383314Y-98176686D01*
X56431475Y-98216211D01*
X62563798Y-104348536D01*
X62603314Y-104396686D01*
X62651464Y-104436202D01*
X62651468Y-104436206D01*
X62751154Y-104518016D01*
X62795478Y-104554392D01*
X63014717Y-104671577D01*
X63252605Y-104743740D01*
X63438004Y-104762000D01*
X63438013Y-104762000D01*
X63499999Y-104768105D01*
X63561985Y-104762000D01*
X77477264Y-104762000D01*
X81238001Y-108522738D01*
X81238000Y-121460296D01*
X81027862Y-121716350D01*
X80864248Y-122022450D01*
X80765686Y-122347366D01*
X80765686Y-121950000D01*
X80746170Y-121751849D01*
X80688372Y-121561314D01*
X80594512Y-121385715D01*
X80468198Y-121231802D01*
X80314285Y-121105488D01*
X80262000Y-121077541D01*
X80262000Y-115561988D01*
X80268105Y-115500000D01*
X80262000Y-115438011D01*
X80262000Y-115438004D01*
X80243740Y-115252605D01*
X80237458Y-115231894D01*
X80213947Y-115154392D01*
X80171577Y-115014717D01*
X80054392Y-114795478D01*
X79896686Y-114603314D01*
X79848530Y-114563793D01*
X78862000Y-113577264D01*
X78862000Y-110012807D01*
X79028536Y-109763568D01*
X79150052Y-109470203D01*
X79212000Y-109158768D01*
X79212000Y-108841232D01*
X79150052Y-108529797D01*
X79028536Y-108236432D01*
X78852122Y-107972410D01*
X78627590Y-107747878D01*
X78363568Y-107571464D01*
X78070203Y-107449948D01*
X77758768Y-107388000D01*
X77441232Y-107388000D01*
X77129797Y-107449948D01*
X76836432Y-107571464D01*
X76572410Y-107747878D01*
X76347878Y-107972410D01*
X76171464Y-108236432D01*
X76049948Y-108529797D01*
X75988000Y-108841232D01*
X75988000Y-109158768D01*
X76049948Y-109470203D01*
X76171464Y-109763568D01*
X76338001Y-110012808D01*
X76338000Y-114038011D01*
X76331895Y-114100000D01*
X76338000Y-114161988D01*
X76338000Y-114161995D01*
X76356260Y-114347394D01*
X76428423Y-114585282D01*
X76545608Y-114804521D01*
X76703314Y-114996686D01*
X76751475Y-115036211D01*
X77738001Y-116022738D01*
X77738000Y-121077541D01*
X77685715Y-121105488D01*
X77531802Y-121231802D01*
X77405488Y-121385715D01*
X77311628Y-121561314D01*
X77253830Y-121751849D01*
X77234314Y-121950000D01*
X77234314Y-124050000D01*
X77253830Y-124248151D01*
X77311628Y-124438686D01*
X77405488Y-124614285D01*
X77531802Y-124768198D01*
X77685715Y-124894512D01*
X77861314Y-124988372D01*
X78051849Y-125046170D01*
X78250000Y-125065686D01*
X79750000Y-125065686D01*
X79948151Y-125046170D01*
X80138686Y-124988372D01*
X80314285Y-124894512D01*
X80468198Y-124768198D01*
X80594512Y-124614285D01*
X80688372Y-124438686D01*
X80746170Y-124248151D01*
X80765686Y-124050000D01*
X80765686Y-123652635D01*
X80864248Y-123977551D01*
X81027862Y-124283651D01*
X81248050Y-124551950D01*
X81516350Y-124772138D01*
X81822450Y-124935752D01*
X82154589Y-125036505D01*
X82500000Y-125070525D01*
X82845412Y-125036505D01*
X83177551Y-124935752D01*
X83483651Y-124772138D01*
X83751950Y-124551950D01*
X83972138Y-124283651D01*
X84135752Y-123977551D01*
X84236505Y-123645411D01*
X84250000Y-123508394D01*
X84263495Y-123645412D01*
X84364248Y-123977551D01*
X84527862Y-124283651D01*
X84748050Y-124551950D01*
X85016350Y-124772138D01*
X85322450Y-124935752D01*
X85654589Y-125036505D01*
X86000000Y-125070525D01*
X86345412Y-125036505D01*
X86677551Y-124935752D01*
X86983651Y-124772138D01*
X87251950Y-124551950D01*
X87472138Y-124283651D01*
X87635752Y-123977551D01*
X87736505Y-123645411D01*
X87752064Y-123487441D01*
X87790585Y-123737905D01*
X87908862Y-124062981D01*
X88088285Y-124358736D01*
X88321960Y-124613805D01*
X88600906Y-124818385D01*
X88914404Y-124964614D01*
X89129954Y-125022704D01*
X89404000Y-124868565D01*
X89404000Y-123096000D01*
X89596000Y-123096000D01*
X89596000Y-124868565D01*
X89870046Y-125022704D01*
X90085596Y-124964614D01*
X90399094Y-124818385D01*
X90678040Y-124613805D01*
X90911715Y-124358736D01*
X91091138Y-124062981D01*
X91209415Y-123737905D01*
X91262000Y-123396000D01*
X91262000Y-123096000D01*
X89596000Y-123096000D01*
X89404000Y-123096000D01*
X89384000Y-123096000D01*
X89384000Y-122904000D01*
X89404000Y-122904000D01*
X89404000Y-121131435D01*
X89596000Y-121131435D01*
X89596000Y-122904000D01*
X91262000Y-122904000D01*
X91262000Y-122604000D01*
X91209415Y-122262095D01*
X91091138Y-121937019D01*
X90911715Y-121641264D01*
X90678040Y-121386195D01*
X90399094Y-121181615D01*
X90085596Y-121035386D01*
X89870046Y-120977296D01*
X89596000Y-121131435D01*
X89404000Y-121131435D01*
X89129954Y-120977296D01*
X88914404Y-121035386D01*
X88600906Y-121181615D01*
X88321960Y-121386195D01*
X88088285Y-121641264D01*
X87908862Y-121937019D01*
X87790585Y-122262095D01*
X87752064Y-122512559D01*
X87736505Y-122354588D01*
X87635752Y-122022449D01*
X87472138Y-121716349D01*
X87262000Y-121460296D01*
X87262000Y-113729316D01*
X87313355Y-113825393D01*
X87408578Y-113941422D01*
X87524607Y-114036645D01*
X87656984Y-114107403D01*
X87800622Y-114150975D01*
X87950000Y-114165687D01*
X88238500Y-114162000D01*
X88429000Y-113971500D01*
X88429000Y-112596000D01*
X88621000Y-112596000D01*
X88621000Y-113971500D01*
X88811500Y-114162000D01*
X89100000Y-114165687D01*
X89249378Y-114150975D01*
X89393016Y-114107403D01*
X89525393Y-114036645D01*
X89641422Y-113941422D01*
X89736645Y-113825393D01*
X89807403Y-113693016D01*
X89850975Y-113549378D01*
X89865687Y-113400000D01*
X89862000Y-112786500D01*
X89671500Y-112596000D01*
X88621000Y-112596000D01*
X88429000Y-112596000D01*
X88409000Y-112596000D01*
X88409000Y-112404000D01*
X88429000Y-112404000D01*
X88429000Y-111028500D01*
X88400500Y-111000000D01*
X88429000Y-110971500D01*
X88429000Y-109596000D01*
X88621000Y-109596000D01*
X88621000Y-110971500D01*
X88649500Y-111000000D01*
X88621000Y-111028500D01*
X88621000Y-112404000D01*
X89671500Y-112404000D01*
X89862000Y-112213500D01*
X89865687Y-111600000D01*
X89850975Y-111450622D01*
X89807403Y-111306984D01*
X89736645Y-111174607D01*
X89641422Y-111058578D01*
X89570045Y-111000000D01*
X89641422Y-110941422D01*
X89736645Y-110825393D01*
X89807403Y-110693016D01*
X89850975Y-110549378D01*
X89865687Y-110400000D01*
X89862000Y-109786500D01*
X89671500Y-109596000D01*
X88621000Y-109596000D01*
X88429000Y-109596000D01*
X88409000Y-109596000D01*
X88409000Y-109404000D01*
X88429000Y-109404000D01*
X88429000Y-108028500D01*
X88621000Y-108028500D01*
X88621000Y-109404000D01*
X89671500Y-109404000D01*
X89862000Y-109213500D01*
X89865687Y-108600000D01*
X89850975Y-108450622D01*
X89807403Y-108306984D01*
X89736645Y-108174607D01*
X89641422Y-108058578D01*
X89582545Y-108010259D01*
X89666422Y-107941422D01*
X89761645Y-107825393D01*
X89832403Y-107693016D01*
X89875975Y-107549378D01*
X89890687Y-107400000D01*
X89887000Y-106786500D01*
X89696500Y-106596000D01*
X88646000Y-106596000D01*
X88646000Y-107971500D01*
X88662000Y-107987500D01*
X88621000Y-108028500D01*
X88429000Y-108028500D01*
X88413000Y-108012500D01*
X88454000Y-107971500D01*
X88454000Y-106596000D01*
X87403500Y-106596000D01*
X87213000Y-106786500D01*
X87209313Y-107400000D01*
X87224025Y-107549378D01*
X87267597Y-107693016D01*
X87338355Y-107825393D01*
X87433578Y-107941422D01*
X87492455Y-107989741D01*
X87408578Y-108058578D01*
X87313355Y-108174607D01*
X87262000Y-108270684D01*
X87262000Y-108061988D01*
X87268105Y-108000000D01*
X87262000Y-107938011D01*
X87262000Y-107938004D01*
X87243740Y-107752605D01*
X87237458Y-107731894D01*
X87200516Y-107610116D01*
X87171577Y-107514717D01*
X87054392Y-107295478D01*
X86896686Y-107103314D01*
X86848532Y-107063795D01*
X85384737Y-105600000D01*
X87209313Y-105600000D01*
X87213000Y-106213500D01*
X87403500Y-106404000D01*
X88454000Y-106404000D01*
X88454000Y-105028500D01*
X88363000Y-104937500D01*
X88504000Y-104796500D01*
X88504000Y-103596000D01*
X87528500Y-103596000D01*
X87338000Y-103786500D01*
X87334313Y-104225000D01*
X87349025Y-104374378D01*
X87392597Y-104518016D01*
X87463355Y-104650393D01*
X87558578Y-104766422D01*
X87674607Y-104861645D01*
X87714219Y-104882819D01*
X87681984Y-104892597D01*
X87549607Y-104963355D01*
X87433578Y-105058578D01*
X87338355Y-105174607D01*
X87267597Y-105306984D01*
X87224025Y-105450622D01*
X87209313Y-105600000D01*
X85384737Y-105600000D01*
X82559737Y-102775000D01*
X87334313Y-102775000D01*
X87338000Y-103213500D01*
X87528500Y-103404000D01*
X88504000Y-103404000D01*
X88504000Y-102203500D01*
X88313500Y-102013000D01*
X88100000Y-102009313D01*
X87950622Y-102024025D01*
X87806984Y-102067597D01*
X87674607Y-102138355D01*
X87558578Y-102233578D01*
X87463355Y-102349607D01*
X87392597Y-102481984D01*
X87349025Y-102625622D01*
X87334313Y-102775000D01*
X82559737Y-102775000D01*
X79936211Y-100151475D01*
X79896686Y-100103314D01*
X79704522Y-99945608D01*
X79485283Y-99828423D01*
X79247395Y-99756260D01*
X79061996Y-99738000D01*
X79061988Y-99738000D01*
X79000000Y-99731895D01*
X78938012Y-99738000D01*
X66022737Y-99738000D01*
X61082000Y-94797264D01*
X61082000Y-92296267D01*
X61419497Y-92296267D01*
X61487244Y-92584570D01*
X61770228Y-92728616D01*
X62075877Y-92814687D01*
X62392445Y-92839475D01*
X62707766Y-92802028D01*
X63009722Y-92703784D01*
X63232756Y-92584570D01*
X63300503Y-92296267D01*
X63959497Y-92296267D01*
X64027244Y-92584570D01*
X64310228Y-92728616D01*
X64615877Y-92814687D01*
X64932445Y-92839475D01*
X65247766Y-92802028D01*
X65549722Y-92703784D01*
X65772756Y-92584570D01*
X65840503Y-92296267D01*
X66499497Y-92296267D01*
X66567244Y-92584570D01*
X66850228Y-92728616D01*
X67155877Y-92814687D01*
X67472445Y-92839475D01*
X67787766Y-92802028D01*
X68089722Y-92703784D01*
X68312756Y-92584570D01*
X68380503Y-92296267D01*
X69039497Y-92296267D01*
X69107244Y-92584570D01*
X69390228Y-92728616D01*
X69695877Y-92814687D01*
X70012445Y-92839475D01*
X70327766Y-92802028D01*
X70629722Y-92703784D01*
X70852756Y-92584570D01*
X70920503Y-92296267D01*
X71579497Y-92296267D01*
X71647244Y-92584570D01*
X71930228Y-92728616D01*
X72235877Y-92814687D01*
X72552445Y-92839475D01*
X72867766Y-92802028D01*
X73169722Y-92703784D01*
X73392756Y-92584570D01*
X73460503Y-92296267D01*
X74119497Y-92296267D01*
X74187244Y-92584570D01*
X74470228Y-92728616D01*
X74775877Y-92814687D01*
X75092445Y-92839475D01*
X75407766Y-92802028D01*
X75709722Y-92703784D01*
X75932756Y-92584570D01*
X76000503Y-92296267D01*
X75060000Y-91355765D01*
X74119497Y-92296267D01*
X73460503Y-92296267D01*
X72520000Y-91355765D01*
X71579497Y-92296267D01*
X70920503Y-92296267D01*
X69980000Y-91355765D01*
X69039497Y-92296267D01*
X68380503Y-92296267D01*
X67440000Y-91355765D01*
X66499497Y-92296267D01*
X65840503Y-92296267D01*
X64900000Y-91355765D01*
X63959497Y-92296267D01*
X63300503Y-92296267D01*
X62360000Y-91355765D01*
X61419497Y-92296267D01*
X61082000Y-92296267D01*
X61082000Y-92232807D01*
X61151132Y-92129344D01*
X61283733Y-92160503D01*
X62224235Y-91220000D01*
X62210093Y-91205858D01*
X62345858Y-91070093D01*
X62360000Y-91084235D01*
X62374142Y-91070093D01*
X62509907Y-91205858D01*
X62495765Y-91220000D01*
X63436267Y-92160503D01*
X63630000Y-92114979D01*
X63823733Y-92160503D01*
X64764235Y-91220000D01*
X64750093Y-91205858D01*
X64885858Y-91070093D01*
X64900000Y-91084235D01*
X64914142Y-91070093D01*
X65049907Y-91205858D01*
X65035765Y-91220000D01*
X65976267Y-92160503D01*
X66170000Y-92114979D01*
X66363733Y-92160503D01*
X67304235Y-91220000D01*
X67290093Y-91205858D01*
X67425858Y-91070093D01*
X67440000Y-91084235D01*
X67454142Y-91070093D01*
X67589907Y-91205858D01*
X67575765Y-91220000D01*
X68516267Y-92160503D01*
X68710000Y-92114979D01*
X68903733Y-92160503D01*
X69844235Y-91220000D01*
X69830093Y-91205858D01*
X69965858Y-91070093D01*
X69980000Y-91084235D01*
X69994142Y-91070093D01*
X70129907Y-91205858D01*
X70115765Y-91220000D01*
X71056267Y-92160503D01*
X71250000Y-92114979D01*
X71443733Y-92160503D01*
X72384235Y-91220000D01*
X72655765Y-91220000D01*
X73596267Y-92160503D01*
X73790000Y-92114979D01*
X73983733Y-92160503D01*
X74924235Y-91220000D01*
X75195765Y-91220000D01*
X76136267Y-92160503D01*
X76268868Y-92129344D01*
X76347878Y-92247590D01*
X76572410Y-92472122D01*
X76836432Y-92648536D01*
X77129797Y-92770052D01*
X77441232Y-92832000D01*
X77758768Y-92832000D01*
X78070203Y-92770052D01*
X78363568Y-92648536D01*
X78627590Y-92472122D01*
X78852122Y-92247590D01*
X79028536Y-91983568D01*
X79150052Y-91690203D01*
X79212000Y-91378768D01*
X79212000Y-91061232D01*
X79150052Y-90749797D01*
X79028536Y-90456432D01*
X78852122Y-90192410D01*
X78627590Y-89967878D01*
X78363568Y-89791464D01*
X78070203Y-89669948D01*
X77758768Y-89608000D01*
X77441232Y-89608000D01*
X77129797Y-89669948D01*
X76836432Y-89791464D01*
X76572410Y-89967878D01*
X76347878Y-90192410D01*
X76268868Y-90310656D01*
X76136267Y-90279497D01*
X75195765Y-91220000D01*
X74924235Y-91220000D01*
X73983733Y-90279497D01*
X73790000Y-90325021D01*
X73596267Y-90279497D01*
X72655765Y-91220000D01*
X72384235Y-91220000D01*
X72370093Y-91205858D01*
X72505858Y-91070093D01*
X72520000Y-91084235D01*
X73460503Y-90143733D01*
X74119497Y-90143733D01*
X75060000Y-91084235D01*
X76000503Y-90143733D01*
X75932756Y-89855430D01*
X75649772Y-89711384D01*
X75344123Y-89625313D01*
X75027555Y-89600525D01*
X74712234Y-89637972D01*
X74410278Y-89736216D01*
X74187244Y-89855430D01*
X74119497Y-90143733D01*
X73460503Y-90143733D01*
X73401167Y-89891225D01*
X73436211Y-89848525D01*
X75522737Y-87762000D01*
X76885658Y-87762000D01*
X77049998Y-87778186D01*
X77950002Y-87778186D01*
X78148152Y-87758670D01*
X78338687Y-87700872D01*
X78514286Y-87607012D01*
X78668199Y-87480699D01*
X78794512Y-87326786D01*
X78888372Y-87151187D01*
X78946170Y-86960652D01*
X78965686Y-86762502D01*
X78965686Y-86237498D01*
X78946170Y-86039348D01*
X78915123Y-85937000D01*
X79165877Y-85937000D01*
X79377116Y-86148239D01*
X79665622Y-86341012D01*
X79986192Y-86473797D01*
X80326508Y-86541490D01*
X80673492Y-86541490D01*
X81013808Y-86473797D01*
X81334378Y-86341012D01*
X81622884Y-86148239D01*
X81868239Y-85902884D01*
X82061012Y-85614378D01*
X82192193Y-85297681D01*
X83738000Y-86843489D01*
X83738001Y-90947192D01*
X83571464Y-91196432D01*
X83449948Y-91489797D01*
X83388000Y-91801232D01*
X83388000Y-92118768D01*
X83449948Y-92430203D01*
X83571464Y-92723568D01*
X83747878Y-92987590D01*
X83756563Y-92996275D01*
X83724608Y-93013355D01*
X83608578Y-93108578D01*
X83513355Y-93224608D01*
X83442598Y-93356985D01*
X83399026Y-93500622D01*
X83384314Y-93650000D01*
X83384314Y-95350000D01*
X83399026Y-95499378D01*
X83442598Y-95643015D01*
X83513355Y-95775392D01*
X83608578Y-95891422D01*
X83724608Y-95986645D01*
X83856985Y-96057402D01*
X84000622Y-96100974D01*
X84150000Y-96115686D01*
X85850000Y-96115686D01*
X85999378Y-96100974D01*
X86143015Y-96057402D01*
X86275392Y-95986645D01*
X86391422Y-95891422D01*
X86486645Y-95775392D01*
X86557402Y-95643015D01*
X86600974Y-95499378D01*
X86615686Y-95350000D01*
X86615686Y-93900422D01*
X89238001Y-96522738D01*
X89238000Y-102022904D01*
X89100000Y-102009313D01*
X88886500Y-102013000D01*
X88696000Y-102203500D01*
X88696000Y-103404000D01*
X88716000Y-103404000D01*
X88716000Y-103596000D01*
X88696000Y-103596000D01*
X88696000Y-104796500D01*
X88787000Y-104887500D01*
X88646000Y-105028500D01*
X88646000Y-106404000D01*
X89696500Y-106404000D01*
X89887000Y-106213500D01*
X89890236Y-105674973D01*
X90159314Y-105944051D01*
X90159314Y-107150001D01*
X90178830Y-107348151D01*
X90213001Y-107460798D01*
X90213001Y-108458745D01*
X90211628Y-108461313D01*
X90153830Y-108651849D01*
X90134314Y-108849999D01*
X90134314Y-110150001D01*
X90153830Y-110348151D01*
X90211628Y-110538687D01*
X90213000Y-110541254D01*
X90213000Y-111458746D01*
X90211628Y-111461313D01*
X90153830Y-111651849D01*
X90134314Y-111849999D01*
X90134314Y-113150001D01*
X90153830Y-113348151D01*
X90211628Y-113538687D01*
X90305488Y-113714285D01*
X90431801Y-113868199D01*
X90585715Y-113994512D01*
X90761313Y-114088372D01*
X90951849Y-114146170D01*
X91149999Y-114165686D01*
X91800001Y-114165686D01*
X91998151Y-114146170D01*
X92188687Y-114088372D01*
X92364285Y-113994512D01*
X92518199Y-113868199D01*
X92644512Y-113714285D01*
X92738372Y-113538687D01*
X92796170Y-113348151D01*
X92815686Y-113150001D01*
X92815686Y-111849999D01*
X92809943Y-111791684D01*
X95588000Y-111791684D01*
X95588000Y-112168316D01*
X95661477Y-112537710D01*
X95805608Y-112885671D01*
X96014853Y-113198829D01*
X96281171Y-113465147D01*
X96594329Y-113674392D01*
X96942290Y-113818523D01*
X97311684Y-113892000D01*
X97688316Y-113892000D01*
X98057710Y-113818523D01*
X98405671Y-113674392D01*
X98718829Y-113465147D01*
X98985147Y-113198829D01*
X99194392Y-112885671D01*
X99338523Y-112537710D01*
X99412000Y-112168316D01*
X99412000Y-111791684D01*
X99338523Y-111422290D01*
X99194392Y-111074329D01*
X98985147Y-110761171D01*
X98718829Y-110494853D01*
X98405671Y-110285608D01*
X98057710Y-110141477D01*
X97688316Y-110068000D01*
X97311684Y-110068000D01*
X96942290Y-110141477D01*
X96594329Y-110285608D01*
X96281171Y-110494853D01*
X96014853Y-110761171D01*
X95805608Y-111074329D01*
X95661477Y-111422290D01*
X95588000Y-111791684D01*
X92809943Y-111791684D01*
X92796170Y-111651849D01*
X92738372Y-111461313D01*
X92737000Y-111458746D01*
X92737000Y-110541254D01*
X92738372Y-110538687D01*
X92796170Y-110348151D01*
X92815686Y-110150001D01*
X92815686Y-108849999D01*
X92796170Y-108651849D01*
X92738372Y-108461313D01*
X92737000Y-108458746D01*
X92737000Y-107762000D01*
X102539050Y-107762000D01*
X102479101Y-107821949D01*
X102392786Y-107892786D01*
X102110116Y-108237220D01*
X101965802Y-108507214D01*
X101900074Y-108630183D01*
X101771392Y-109054391D01*
X101770730Y-109056572D01*
X101738000Y-109388885D01*
X101738000Y-109388891D01*
X101727057Y-109500000D01*
X101738000Y-109611109D01*
X101738001Y-120638000D01*
X100388884Y-120638000D01*
X100056571Y-120670730D01*
X99630182Y-120800074D01*
X99237220Y-121010116D01*
X98892786Y-121292786D01*
X98610116Y-121637220D01*
X98400074Y-122030182D01*
X98270730Y-122456571D01*
X98227056Y-122900000D01*
X98270730Y-123343429D01*
X98400074Y-123769818D01*
X98610116Y-124162780D01*
X98797017Y-124390519D01*
X98811628Y-124438686D01*
X98905488Y-124614285D01*
X99031802Y-124768198D01*
X99185715Y-124894512D01*
X99361314Y-124988372D01*
X99551849Y-125046170D01*
X99750000Y-125065686D01*
X99846963Y-125065686D01*
X100056571Y-125129270D01*
X100388884Y-125162000D01*
X103888884Y-125162000D01*
X104000000Y-125172944D01*
X104111116Y-125162000D01*
X104443429Y-125129270D01*
X104869818Y-124999926D01*
X105262780Y-124789884D01*
X105607214Y-124507214D01*
X105889884Y-124162780D01*
X105927131Y-124093095D01*
X106088285Y-124358736D01*
X106321960Y-124613805D01*
X106600906Y-124818385D01*
X106914404Y-124964614D01*
X107129954Y-125022704D01*
X107404000Y-124868565D01*
X107404000Y-123096000D01*
X107596000Y-123096000D01*
X107596000Y-124868565D01*
X107870046Y-125022704D01*
X108085596Y-124964614D01*
X108399094Y-124818385D01*
X108678040Y-124613805D01*
X108911715Y-124358736D01*
X109091138Y-124062981D01*
X109209415Y-123737905D01*
X109250000Y-123474023D01*
X109290585Y-123737905D01*
X109408862Y-124062981D01*
X109588285Y-124358736D01*
X109821960Y-124613805D01*
X110100906Y-124818385D01*
X110414404Y-124964614D01*
X110629954Y-125022704D01*
X110904000Y-124868565D01*
X110904000Y-123096000D01*
X111096000Y-123096000D01*
X111096000Y-124868565D01*
X111370046Y-125022704D01*
X111585596Y-124964614D01*
X111899094Y-124818385D01*
X112178040Y-124613805D01*
X112411715Y-124358736D01*
X112591138Y-124062981D01*
X112709415Y-123737905D01*
X112762000Y-123396000D01*
X112762000Y-123096000D01*
X111096000Y-123096000D01*
X110904000Y-123096000D01*
X107596000Y-123096000D01*
X107404000Y-123096000D01*
X107384000Y-123096000D01*
X107384000Y-122904000D01*
X107404000Y-122904000D01*
X107404000Y-121131435D01*
X107596000Y-121131435D01*
X107596000Y-122904000D01*
X110904000Y-122904000D01*
X110904000Y-121131435D01*
X111096000Y-121131435D01*
X111096000Y-122904000D01*
X112762000Y-122904000D01*
X112762000Y-122604000D01*
X112709415Y-122262095D01*
X112591138Y-121937019D01*
X112411715Y-121641264D01*
X112178040Y-121386195D01*
X111899094Y-121181615D01*
X111585596Y-121035386D01*
X111370046Y-120977296D01*
X111096000Y-121131435D01*
X110904000Y-121131435D01*
X110629954Y-120977296D01*
X110414404Y-121035386D01*
X110100906Y-121181615D01*
X109821960Y-121386195D01*
X109588285Y-121641264D01*
X109408862Y-121937019D01*
X109290585Y-122262095D01*
X109250000Y-122525977D01*
X109209415Y-122262095D01*
X109091138Y-121937019D01*
X108911715Y-121641264D01*
X108678040Y-121386195D01*
X108399094Y-121181615D01*
X108085596Y-121035386D01*
X107870046Y-120977296D01*
X107596000Y-121131435D01*
X107404000Y-121131435D01*
X107129954Y-120977296D01*
X106914404Y-121035386D01*
X106600906Y-121181615D01*
X106321960Y-121386195D01*
X106262000Y-121451645D01*
X106262000Y-113269824D01*
X114125940Y-113269824D01*
X114229794Y-113588811D01*
X114563837Y-113762783D01*
X114925402Y-113868244D01*
X115300593Y-113901141D01*
X115674993Y-113860209D01*
X116034214Y-113747022D01*
X116330206Y-113588811D01*
X116434060Y-113269824D01*
X115280000Y-112115765D01*
X114125940Y-113269824D01*
X106262000Y-113269824D01*
X106262000Y-112000593D01*
X113358859Y-112000593D01*
X113399791Y-112374993D01*
X113512978Y-112734214D01*
X113671189Y-113030206D01*
X113990176Y-113134060D01*
X115144235Y-111980000D01*
X115415765Y-111980000D01*
X116569824Y-113134060D01*
X116888811Y-113030206D01*
X117062783Y-112696163D01*
X117168244Y-112334598D01*
X117201141Y-111959407D01*
X117160209Y-111585007D01*
X117047022Y-111225786D01*
X116888811Y-110929794D01*
X116569824Y-110825940D01*
X115415765Y-111980000D01*
X115144235Y-111980000D01*
X113990176Y-110825940D01*
X113671189Y-110929794D01*
X113497217Y-111263837D01*
X113391756Y-111625402D01*
X113358859Y-112000593D01*
X106262000Y-112000593D01*
X106262000Y-110690176D01*
X114125940Y-110690176D01*
X115280000Y-111844235D01*
X116434060Y-110690176D01*
X116330206Y-110371189D01*
X115996163Y-110197217D01*
X115634598Y-110091756D01*
X115259407Y-110058859D01*
X114885007Y-110099791D01*
X114525786Y-110212978D01*
X114229794Y-110371189D01*
X114125940Y-110690176D01*
X106262000Y-110690176D01*
X106262000Y-110436950D01*
X107536951Y-109162000D01*
X115391116Y-109162000D01*
X115723429Y-109129270D01*
X116149818Y-108999926D01*
X116542780Y-108789884D01*
X116887214Y-108507214D01*
X117169884Y-108162780D01*
X117379926Y-107769818D01*
X117509270Y-107343429D01*
X117552944Y-106900000D01*
X117509270Y-106456571D01*
X117379926Y-106030182D01*
X117169884Y-105637220D01*
X116887214Y-105292786D01*
X116542780Y-105010116D01*
X116149818Y-104800074D01*
X115723429Y-104670730D01*
X115391116Y-104638000D01*
X106711105Y-104638000D01*
X106599999Y-104627057D01*
X106488893Y-104638000D01*
X106488884Y-104638000D01*
X106156571Y-104670730D01*
X105730182Y-104800074D01*
X105337220Y-105010116D01*
X105059543Y-105238000D01*
X92739310Y-105238000D01*
X92671577Y-105014717D01*
X92658732Y-104990686D01*
X92554392Y-104795478D01*
X92396686Y-104603314D01*
X92348530Y-104563793D01*
X91765153Y-103980416D01*
X91765686Y-103975000D01*
X91765686Y-103754000D01*
X119746000Y-103754000D01*
X119746000Y-128746000D01*
X21254000Y-128746000D01*
X21254000Y-113707149D01*
X21796000Y-113707149D01*
X21796000Y-114692851D01*
X21988301Y-115659613D01*
X22365513Y-116570283D01*
X22913140Y-117389864D01*
X23610136Y-118086860D01*
X24429717Y-118634487D01*
X25340387Y-119011699D01*
X26307149Y-119204000D01*
X27292851Y-119204000D01*
X28259613Y-119011699D01*
X29170283Y-118634487D01*
X29989864Y-118086860D01*
X30686860Y-117389864D01*
X31234487Y-116570283D01*
X31611699Y-115659613D01*
X31804000Y-114692851D01*
X31804000Y-113707149D01*
X31611699Y-112740387D01*
X31234487Y-111829717D01*
X30686860Y-111010136D01*
X29989864Y-110313140D01*
X29296727Y-109850000D01*
X37884313Y-109850000D01*
X37899025Y-109999378D01*
X37942597Y-110143016D01*
X38013355Y-110275393D01*
X38108578Y-110391422D01*
X38224607Y-110486645D01*
X38356984Y-110557403D01*
X38500622Y-110600975D01*
X38650000Y-110615687D01*
X39213500Y-110612000D01*
X39404000Y-110421500D01*
X39404000Y-109096000D01*
X38078500Y-109096000D01*
X37888000Y-109286500D01*
X37884313Y-109850000D01*
X29296727Y-109850000D01*
X29170283Y-109765513D01*
X28259613Y-109388301D01*
X27292851Y-109196000D01*
X26307149Y-109196000D01*
X25340387Y-109388301D01*
X24429717Y-109765513D01*
X23610136Y-110313140D01*
X22913140Y-111010136D01*
X22365513Y-111829717D01*
X21988301Y-112740387D01*
X21796000Y-113707149D01*
X21254000Y-113707149D01*
X21254000Y-108150000D01*
X37884313Y-108150000D01*
X37888000Y-108713500D01*
X38078500Y-108904000D01*
X39404000Y-108904000D01*
X39404000Y-107578500D01*
X39596000Y-107578500D01*
X39596000Y-108904000D01*
X39616000Y-108904000D01*
X39616000Y-109096000D01*
X39596000Y-109096000D01*
X39596000Y-110421500D01*
X39786500Y-110612000D01*
X40350000Y-110615687D01*
X40499378Y-110600975D01*
X40643016Y-110557403D01*
X40738001Y-110506632D01*
X40738000Y-121077541D01*
X40685715Y-121105488D01*
X40531802Y-121231802D01*
X40405488Y-121385715D01*
X40311628Y-121561314D01*
X40253830Y-121751849D01*
X40234314Y-121950000D01*
X40234314Y-124050000D01*
X40253830Y-124248151D01*
X40311628Y-124438686D01*
X40405488Y-124614285D01*
X40531802Y-124768198D01*
X40685715Y-124894512D01*
X40861314Y-124988372D01*
X41051849Y-125046170D01*
X41250000Y-125065686D01*
X42750000Y-125065686D01*
X42948151Y-125046170D01*
X43138686Y-124988372D01*
X43314285Y-124894512D01*
X43468198Y-124768198D01*
X43594512Y-124614285D01*
X43688372Y-124438686D01*
X43746170Y-124248151D01*
X43765686Y-124050000D01*
X43765686Y-123652635D01*
X43864248Y-123977551D01*
X44027862Y-124283651D01*
X44248050Y-124551950D01*
X44516350Y-124772138D01*
X44822450Y-124935752D01*
X45154589Y-125036505D01*
X45500000Y-125070525D01*
X45845412Y-125036505D01*
X46177551Y-124935752D01*
X46483651Y-124772138D01*
X46751950Y-124551950D01*
X46972138Y-124283651D01*
X47135752Y-123977551D01*
X47236505Y-123645411D01*
X47250000Y-123508394D01*
X47263495Y-123645412D01*
X47364248Y-123977551D01*
X47527862Y-124283651D01*
X47748050Y-124551950D01*
X48016350Y-124772138D01*
X48322450Y-124935752D01*
X48654589Y-125036505D01*
X49000000Y-125070525D01*
X49345412Y-125036505D01*
X49677551Y-124935752D01*
X49983651Y-124772138D01*
X50251950Y-124551950D01*
X50472138Y-124283651D01*
X50635752Y-123977551D01*
X50736505Y-123645411D01*
X50750000Y-123508394D01*
X50763495Y-123645412D01*
X50864248Y-123977551D01*
X51027862Y-124283651D01*
X51248050Y-124551950D01*
X51516350Y-124772138D01*
X51822450Y-124935752D01*
X52154589Y-125036505D01*
X52500000Y-125070525D01*
X52845412Y-125036505D01*
X53177551Y-124935752D01*
X53483651Y-124772138D01*
X53751950Y-124551950D01*
X53972138Y-124283651D01*
X54135752Y-123977551D01*
X54236505Y-123645411D01*
X54250000Y-123508394D01*
X54263495Y-123645412D01*
X54364248Y-123977551D01*
X54527862Y-124283651D01*
X54748050Y-124551950D01*
X55016350Y-124772138D01*
X55322450Y-124935752D01*
X55654589Y-125036505D01*
X56000000Y-125070525D01*
X56345412Y-125036505D01*
X56677551Y-124935752D01*
X56983651Y-124772138D01*
X57251950Y-124551950D01*
X57472138Y-124283651D01*
X57635752Y-123977551D01*
X57736505Y-123645411D01*
X57750000Y-123508394D01*
X57763495Y-123645412D01*
X57864248Y-123977551D01*
X58027862Y-124283651D01*
X58248050Y-124551950D01*
X58516350Y-124772138D01*
X58822450Y-124935752D01*
X59154589Y-125036505D01*
X59500000Y-125070525D01*
X59845412Y-125036505D01*
X60177551Y-124935752D01*
X60483651Y-124772138D01*
X60751950Y-124551950D01*
X60972138Y-124283651D01*
X61135752Y-123977551D01*
X61236505Y-123645411D01*
X61250000Y-123508394D01*
X61263495Y-123645412D01*
X61364248Y-123977551D01*
X61527862Y-124283651D01*
X61748050Y-124551950D01*
X62016350Y-124772138D01*
X62322450Y-124935752D01*
X62654589Y-125036505D01*
X63000000Y-125070525D01*
X63345412Y-125036505D01*
X63677551Y-124935752D01*
X63983651Y-124772138D01*
X64251950Y-124551950D01*
X64472138Y-124283651D01*
X64635752Y-123977551D01*
X64736505Y-123645411D01*
X64750000Y-123508394D01*
X64763495Y-123645412D01*
X64864248Y-123977551D01*
X65027862Y-124283651D01*
X65248050Y-124551950D01*
X65516350Y-124772138D01*
X65822450Y-124935752D01*
X66154589Y-125036505D01*
X66500000Y-125070525D01*
X66845412Y-125036505D01*
X67177551Y-124935752D01*
X67483651Y-124772138D01*
X67751950Y-124551950D01*
X67972138Y-124283651D01*
X68135752Y-123977551D01*
X68236505Y-123645411D01*
X68262000Y-123386555D01*
X68262000Y-122613444D01*
X68236505Y-122354588D01*
X68135752Y-122022449D01*
X67972138Y-121716349D01*
X67762000Y-121460296D01*
X67762000Y-117561988D01*
X67768105Y-117500000D01*
X67762000Y-117438011D01*
X67762000Y-117438004D01*
X67743740Y-117252605D01*
X67671577Y-117014717D01*
X67554392Y-116795478D01*
X67396686Y-116603314D01*
X67348531Y-116563794D01*
X61082000Y-110297264D01*
X61082000Y-110076267D01*
X61419497Y-110076267D01*
X61487244Y-110364570D01*
X61770228Y-110508616D01*
X62075877Y-110594687D01*
X62392445Y-110619475D01*
X62707766Y-110582028D01*
X63009722Y-110483784D01*
X63232756Y-110364570D01*
X63300503Y-110076267D01*
X63959497Y-110076267D01*
X64027244Y-110364570D01*
X64310228Y-110508616D01*
X64615877Y-110594687D01*
X64932445Y-110619475D01*
X65247766Y-110582028D01*
X65549722Y-110483784D01*
X65772756Y-110364570D01*
X65840503Y-110076267D01*
X66499497Y-110076267D01*
X66567244Y-110364570D01*
X66850228Y-110508616D01*
X67155877Y-110594687D01*
X67472445Y-110619475D01*
X67787766Y-110582028D01*
X68089722Y-110483784D01*
X68312756Y-110364570D01*
X68380503Y-110076267D01*
X67440000Y-109135765D01*
X66499497Y-110076267D01*
X65840503Y-110076267D01*
X64900000Y-109135765D01*
X63959497Y-110076267D01*
X63300503Y-110076267D01*
X62360000Y-109135765D01*
X61419497Y-110076267D01*
X61082000Y-110076267D01*
X61082000Y-110012807D01*
X61151132Y-109909344D01*
X61283733Y-109940503D01*
X62224235Y-109000000D01*
X62495765Y-109000000D01*
X63436267Y-109940503D01*
X63630000Y-109894979D01*
X63823733Y-109940503D01*
X64764235Y-109000000D01*
X65035765Y-109000000D01*
X65976267Y-109940503D01*
X66170000Y-109894979D01*
X66363733Y-109940503D01*
X67304235Y-109000000D01*
X67575765Y-109000000D01*
X68516267Y-109940503D01*
X68804570Y-109872756D01*
X68948616Y-109589772D01*
X69034687Y-109284123D01*
X69059475Y-108967555D01*
X69044474Y-108841232D01*
X70908000Y-108841232D01*
X70908000Y-109158768D01*
X70969948Y-109470203D01*
X71091464Y-109763568D01*
X71267878Y-110027590D01*
X71492410Y-110252122D01*
X71756432Y-110428536D01*
X72049797Y-110550052D01*
X72361232Y-110612000D01*
X72678768Y-110612000D01*
X72990203Y-110550052D01*
X73283568Y-110428536D01*
X73547590Y-110252122D01*
X73772122Y-110027590D01*
X73948536Y-109763568D01*
X74070052Y-109470203D01*
X74132000Y-109158768D01*
X74132000Y-108841232D01*
X74070052Y-108529797D01*
X73948536Y-108236432D01*
X73772122Y-107972410D01*
X73547590Y-107747878D01*
X73283568Y-107571464D01*
X72990203Y-107449948D01*
X72678768Y-107388000D01*
X72361232Y-107388000D01*
X72049797Y-107449948D01*
X71756432Y-107571464D01*
X71492410Y-107747878D01*
X71267878Y-107972410D01*
X71091464Y-108236432D01*
X70969948Y-108529797D01*
X70908000Y-108841232D01*
X69044474Y-108841232D01*
X69022028Y-108652234D01*
X68923784Y-108350278D01*
X68804570Y-108127244D01*
X68516267Y-108059497D01*
X67575765Y-109000000D01*
X67304235Y-109000000D01*
X66363733Y-108059497D01*
X66170000Y-108105021D01*
X65976267Y-108059497D01*
X65035765Y-109000000D01*
X64764235Y-109000000D01*
X63823733Y-108059497D01*
X63630000Y-108105021D01*
X63436267Y-108059497D01*
X62495765Y-109000000D01*
X62224235Y-109000000D01*
X61283733Y-108059497D01*
X61151132Y-108090656D01*
X61072122Y-107972410D01*
X61023445Y-107923733D01*
X61419497Y-107923733D01*
X62360000Y-108864235D01*
X63300503Y-107923733D01*
X63959497Y-107923733D01*
X64900000Y-108864235D01*
X65840503Y-107923733D01*
X66499497Y-107923733D01*
X67440000Y-108864235D01*
X68380503Y-107923733D01*
X68312756Y-107635430D01*
X68029772Y-107491384D01*
X67724123Y-107405313D01*
X67407555Y-107380525D01*
X67092234Y-107417972D01*
X66790278Y-107516216D01*
X66567244Y-107635430D01*
X66499497Y-107923733D01*
X65840503Y-107923733D01*
X65772756Y-107635430D01*
X65489772Y-107491384D01*
X65184123Y-107405313D01*
X64867555Y-107380525D01*
X64552234Y-107417972D01*
X64250278Y-107516216D01*
X64027244Y-107635430D01*
X63959497Y-107923733D01*
X63300503Y-107923733D01*
X63232756Y-107635430D01*
X62949772Y-107491384D01*
X62644123Y-107405313D01*
X62327555Y-107380525D01*
X62012234Y-107417972D01*
X61710278Y-107516216D01*
X61487244Y-107635430D01*
X61419497Y-107923733D01*
X61023445Y-107923733D01*
X60847590Y-107747878D01*
X60583568Y-107571464D01*
X60290203Y-107449948D01*
X59978768Y-107388000D01*
X59661232Y-107388000D01*
X59349797Y-107449948D01*
X59056432Y-107571464D01*
X58792410Y-107747878D01*
X58567878Y-107972410D01*
X58550000Y-107999166D01*
X58532122Y-107972410D01*
X58307590Y-107747878D01*
X58043568Y-107571464D01*
X57750203Y-107449948D01*
X57438768Y-107388000D01*
X57121232Y-107388000D01*
X56809797Y-107449948D01*
X56516432Y-107571464D01*
X56252410Y-107747878D01*
X56027878Y-107972410D01*
X56010000Y-107999166D01*
X55992122Y-107972410D01*
X55767590Y-107747878D01*
X55503568Y-107571464D01*
X55210203Y-107449948D01*
X54898768Y-107388000D01*
X54581232Y-107388000D01*
X54269797Y-107449948D01*
X53976432Y-107571464D01*
X53712410Y-107747878D01*
X53487878Y-107972410D01*
X53470000Y-107999166D01*
X53452122Y-107972410D01*
X53227590Y-107747878D01*
X52963568Y-107571464D01*
X52670203Y-107449948D01*
X52358768Y-107388000D01*
X52041232Y-107388000D01*
X51729797Y-107449948D01*
X51436432Y-107571464D01*
X51172410Y-107747878D01*
X50947878Y-107972410D01*
X50930000Y-107999166D01*
X50912122Y-107972410D01*
X50687590Y-107747878D01*
X50423568Y-107571464D01*
X50130203Y-107449948D01*
X49818768Y-107388000D01*
X49501232Y-107388000D01*
X49189797Y-107449948D01*
X48896432Y-107571464D01*
X48632410Y-107747878D01*
X48407878Y-107972410D01*
X48390000Y-107999166D01*
X48372122Y-107972410D01*
X48147590Y-107747878D01*
X47883568Y-107571464D01*
X47590203Y-107449948D01*
X47278768Y-107388000D01*
X46961232Y-107388000D01*
X46649797Y-107449948D01*
X46356432Y-107571464D01*
X46092410Y-107747878D01*
X45867878Y-107972410D01*
X45850000Y-107999166D01*
X45832122Y-107972410D01*
X45607590Y-107747878D01*
X45343568Y-107571464D01*
X45050203Y-107449948D01*
X44738768Y-107388000D01*
X44421232Y-107388000D01*
X44109797Y-107449948D01*
X43816432Y-107571464D01*
X43552410Y-107747878D01*
X43327878Y-107972410D01*
X43310000Y-107999166D01*
X43292122Y-107972410D01*
X43067590Y-107747878D01*
X42803568Y-107571464D01*
X42510203Y-107449948D01*
X42198768Y-107388000D01*
X41881232Y-107388000D01*
X41569797Y-107449948D01*
X41276432Y-107571464D01*
X41012410Y-107747878D01*
X41003726Y-107756562D01*
X40986645Y-107724607D01*
X40891422Y-107608578D01*
X40775393Y-107513355D01*
X40643016Y-107442597D01*
X40499378Y-107399025D01*
X40350000Y-107384313D01*
X39786500Y-107388000D01*
X39596000Y-107578500D01*
X39404000Y-107578500D01*
X39213500Y-107388000D01*
X38650000Y-107384313D01*
X38500622Y-107399025D01*
X38356984Y-107442597D01*
X38224607Y-107513355D01*
X38108578Y-107608578D01*
X38013355Y-107724607D01*
X37942597Y-107856984D01*
X37899025Y-108000622D01*
X37884313Y-108150000D01*
X21254000Y-108150000D01*
X21254000Y-82254000D01*
X26238510Y-82254000D01*
X26238510Y-82413492D01*
%TA.AperFunction,Conductor*%
D24*
G36*
X26238510Y-82413492D02*
G01*
X26306203Y-82753808D01*
X26438988Y-83074378D01*
X26631761Y-83362884D01*
X26681877Y-83413000D01*
X25614342Y-83413000D01*
X25450002Y-83396814D01*
X24549998Y-83396814D01*
X24351848Y-83416330D01*
X24161313Y-83474128D01*
X23985714Y-83567988D01*
X23831801Y-83694301D01*
X23705488Y-83848214D01*
X23611628Y-84023813D01*
X23553830Y-84214348D01*
X23534314Y-84412498D01*
X23534314Y-84937502D01*
X23553830Y-85135652D01*
X23611628Y-85326187D01*
X23705488Y-85501786D01*
X23775832Y-85587500D01*
X23705488Y-85673214D01*
X23611628Y-85848813D01*
X23553830Y-86039348D01*
X23534314Y-86237498D01*
X23534314Y-86762502D01*
X23553830Y-86960652D01*
X23611628Y-87151187D01*
X23705488Y-87326786D01*
X23738000Y-87366402D01*
X23738000Y-87938012D01*
X23731895Y-88000000D01*
X23738000Y-88061988D01*
X23738000Y-88061995D01*
X23756260Y-88247394D01*
X23828423Y-88485282D01*
X23945608Y-88704521D01*
X24103314Y-88896686D01*
X24151474Y-88936211D01*
X25063803Y-89848540D01*
X25103324Y-89896696D01*
X25295488Y-90054402D01*
X25462616Y-90143733D01*
X25514727Y-90171587D01*
X25752614Y-90243750D01*
X25774723Y-90245927D01*
X25938014Y-90262010D01*
X25938021Y-90262010D01*
X26000010Y-90268115D01*
X26061998Y-90262010D01*
X38201373Y-90262010D01*
X38071464Y-90456432D01*
X37949948Y-90749797D01*
X37888000Y-91061232D01*
X37888000Y-91378768D01*
X37949948Y-91690203D01*
X38071464Y-91983568D01*
X38247878Y-92247590D01*
X38472410Y-92472122D01*
X38736432Y-92648536D01*
X39029797Y-92770052D01*
X39341232Y-92832000D01*
X39658768Y-92832000D01*
X39970203Y-92770052D01*
X40263568Y-92648536D01*
X40527590Y-92472122D01*
X40752122Y-92247590D01*
X40770000Y-92220834D01*
X40787878Y-92247590D01*
X41012410Y-92472122D01*
X41276432Y-92648536D01*
X41569797Y-92770052D01*
X41881232Y-92832000D01*
X42198768Y-92832000D01*
X42510203Y-92770052D01*
X42803568Y-92648536D01*
X43067590Y-92472122D01*
X43292122Y-92247590D01*
X43310000Y-92220834D01*
X43327878Y-92247590D01*
X43552410Y-92472122D01*
X43816432Y-92648536D01*
X44109797Y-92770052D01*
X44421232Y-92832000D01*
X44738768Y-92832000D01*
X45050203Y-92770052D01*
X45343568Y-92648536D01*
X45607590Y-92472122D01*
X45832122Y-92247590D01*
X45850000Y-92220834D01*
X45867878Y-92247590D01*
X46092410Y-92472122D01*
X46356432Y-92648536D01*
X46649797Y-92770052D01*
X46961232Y-92832000D01*
X47278768Y-92832000D01*
X47590203Y-92770052D01*
X47883568Y-92648536D01*
X48147590Y-92472122D01*
X48372122Y-92247590D01*
X48390000Y-92220834D01*
X48407878Y-92247590D01*
X48632410Y-92472122D01*
X48896432Y-92648536D01*
X49189797Y-92770052D01*
X49501232Y-92832000D01*
X49818768Y-92832000D01*
X50130203Y-92770052D01*
X50423568Y-92648536D01*
X50687590Y-92472122D01*
X50912122Y-92247590D01*
X50930000Y-92220834D01*
X50947878Y-92247590D01*
X51172410Y-92472122D01*
X51436432Y-92648536D01*
X51729797Y-92770052D01*
X52041232Y-92832000D01*
X52358768Y-92832000D01*
X52670203Y-92770052D01*
X52963568Y-92648536D01*
X53227590Y-92472122D01*
X53452122Y-92247590D01*
X53470000Y-92220834D01*
X53487878Y-92247590D01*
X53712410Y-92472122D01*
X53976432Y-92648536D01*
X54269797Y-92770052D01*
X54581232Y-92832000D01*
X54898768Y-92832000D01*
X55210203Y-92770052D01*
X55503568Y-92648536D01*
X55767590Y-92472122D01*
X55992122Y-92247590D01*
X56010000Y-92220834D01*
X56018001Y-92232808D01*
X56018000Y-97218011D01*
X56011895Y-97280000D01*
X56018000Y-97341988D01*
X56018000Y-97341995D01*
X56036260Y-97527394D01*
X56108423Y-97765282D01*
X56225608Y-97984521D01*
X56383314Y-98176686D01*
X56431475Y-98216211D01*
X62563798Y-104348536D01*
X62603314Y-104396686D01*
X62651464Y-104436202D01*
X62651468Y-104436206D01*
X62751154Y-104518016D01*
X62795478Y-104554392D01*
X63014717Y-104671577D01*
X63252605Y-104743740D01*
X63438004Y-104762000D01*
X63438013Y-104762000D01*
X63499999Y-104768105D01*
X63561985Y-104762000D01*
X77477264Y-104762000D01*
X81238001Y-108522738D01*
X81238000Y-121460296D01*
X81027862Y-121716350D01*
X80864248Y-122022450D01*
X80765686Y-122347366D01*
X80765686Y-121950000D01*
X80746170Y-121751849D01*
X80688372Y-121561314D01*
X80594512Y-121385715D01*
X80468198Y-121231802D01*
X80314285Y-121105488D01*
X80262000Y-121077541D01*
X80262000Y-115561988D01*
X80268105Y-115500000D01*
X80262000Y-115438011D01*
X80262000Y-115438004D01*
X80243740Y-115252605D01*
X80237458Y-115231894D01*
X80213947Y-115154392D01*
X80171577Y-115014717D01*
X80054392Y-114795478D01*
X79896686Y-114603314D01*
X79848530Y-114563793D01*
X78862000Y-113577264D01*
X78862000Y-110012807D01*
X79028536Y-109763568D01*
X79150052Y-109470203D01*
X79212000Y-109158768D01*
X79212000Y-108841232D01*
X79150052Y-108529797D01*
X79028536Y-108236432D01*
X78852122Y-107972410D01*
X78627590Y-107747878D01*
X78363568Y-107571464D01*
X78070203Y-107449948D01*
X77758768Y-107388000D01*
X77441232Y-107388000D01*
X77129797Y-107449948D01*
X76836432Y-107571464D01*
X76572410Y-107747878D01*
X76347878Y-107972410D01*
X76171464Y-108236432D01*
X76049948Y-108529797D01*
X75988000Y-108841232D01*
X75988000Y-109158768D01*
X76049948Y-109470203D01*
X76171464Y-109763568D01*
X76338001Y-110012808D01*
X76338000Y-114038011D01*
X76331895Y-114100000D01*
X76338000Y-114161988D01*
X76338000Y-114161995D01*
X76356260Y-114347394D01*
X76428423Y-114585282D01*
X76545608Y-114804521D01*
X76703314Y-114996686D01*
X76751475Y-115036211D01*
X77738001Y-116022738D01*
X77738000Y-121077541D01*
X77685715Y-121105488D01*
X77531802Y-121231802D01*
X77405488Y-121385715D01*
X77311628Y-121561314D01*
X77253830Y-121751849D01*
X77234314Y-121950000D01*
X77234314Y-124050000D01*
X77253830Y-124248151D01*
X77311628Y-124438686D01*
X77405488Y-124614285D01*
X77531802Y-124768198D01*
X77685715Y-124894512D01*
X77861314Y-124988372D01*
X78051849Y-125046170D01*
X78250000Y-125065686D01*
X79750000Y-125065686D01*
X79948151Y-125046170D01*
X80138686Y-124988372D01*
X80314285Y-124894512D01*
X80468198Y-124768198D01*
X80594512Y-124614285D01*
X80688372Y-124438686D01*
X80746170Y-124248151D01*
X80765686Y-124050000D01*
X80765686Y-123652635D01*
X80864248Y-123977551D01*
X81027862Y-124283651D01*
X81248050Y-124551950D01*
X81516350Y-124772138D01*
X81822450Y-124935752D01*
X82154589Y-125036505D01*
X82500000Y-125070525D01*
X82845412Y-125036505D01*
X83177551Y-124935752D01*
X83483651Y-124772138D01*
X83751950Y-124551950D01*
X83972138Y-124283651D01*
X84135752Y-123977551D01*
X84236505Y-123645411D01*
X84250000Y-123508394D01*
X84263495Y-123645412D01*
X84364248Y-123977551D01*
X84527862Y-124283651D01*
X84748050Y-124551950D01*
X85016350Y-124772138D01*
X85322450Y-124935752D01*
X85654589Y-125036505D01*
X86000000Y-125070525D01*
X86345412Y-125036505D01*
X86677551Y-124935752D01*
X86983651Y-124772138D01*
X87251950Y-124551950D01*
X87472138Y-124283651D01*
X87635752Y-123977551D01*
X87736505Y-123645411D01*
X87752064Y-123487441D01*
X87790585Y-123737905D01*
X87908862Y-124062981D01*
X88088285Y-124358736D01*
X88321960Y-124613805D01*
X88600906Y-124818385D01*
X88914404Y-124964614D01*
X89129954Y-125022704D01*
X89404000Y-124868565D01*
X89404000Y-123096000D01*
X89596000Y-123096000D01*
X89596000Y-124868565D01*
X89870046Y-125022704D01*
X90085596Y-124964614D01*
X90399094Y-124818385D01*
X90678040Y-124613805D01*
X90911715Y-124358736D01*
X91091138Y-124062981D01*
X91209415Y-123737905D01*
X91262000Y-123396000D01*
X91262000Y-123096000D01*
X89596000Y-123096000D01*
X89404000Y-123096000D01*
X89384000Y-123096000D01*
X89384000Y-122904000D01*
X89404000Y-122904000D01*
X89404000Y-121131435D01*
X89596000Y-121131435D01*
X89596000Y-122904000D01*
X91262000Y-122904000D01*
X91262000Y-122604000D01*
X91209415Y-122262095D01*
X91091138Y-121937019D01*
X90911715Y-121641264D01*
X90678040Y-121386195D01*
X90399094Y-121181615D01*
X90085596Y-121035386D01*
X89870046Y-120977296D01*
X89596000Y-121131435D01*
X89404000Y-121131435D01*
X89129954Y-120977296D01*
X88914404Y-121035386D01*
X88600906Y-121181615D01*
X88321960Y-121386195D01*
X88088285Y-121641264D01*
X87908862Y-121937019D01*
X87790585Y-122262095D01*
X87752064Y-122512559D01*
X87736505Y-122354588D01*
X87635752Y-122022449D01*
X87472138Y-121716349D01*
X87262000Y-121460296D01*
X87262000Y-113729316D01*
X87313355Y-113825393D01*
X87408578Y-113941422D01*
X87524607Y-114036645D01*
X87656984Y-114107403D01*
X87800622Y-114150975D01*
X87950000Y-114165687D01*
X88238500Y-114162000D01*
X88429000Y-113971500D01*
X88429000Y-112596000D01*
X88621000Y-112596000D01*
X88621000Y-113971500D01*
X88811500Y-114162000D01*
X89100000Y-114165687D01*
X89249378Y-114150975D01*
X89393016Y-114107403D01*
X89525393Y-114036645D01*
X89641422Y-113941422D01*
X89736645Y-113825393D01*
X89807403Y-113693016D01*
X89850975Y-113549378D01*
X89865687Y-113400000D01*
X89862000Y-112786500D01*
X89671500Y-112596000D01*
X88621000Y-112596000D01*
X88429000Y-112596000D01*
X88409000Y-112596000D01*
X88409000Y-112404000D01*
X88429000Y-112404000D01*
X88429000Y-111028500D01*
X88400500Y-111000000D01*
X88429000Y-110971500D01*
X88429000Y-109596000D01*
X88621000Y-109596000D01*
X88621000Y-110971500D01*
X88649500Y-111000000D01*
X88621000Y-111028500D01*
X88621000Y-112404000D01*
X89671500Y-112404000D01*
X89862000Y-112213500D01*
X89865687Y-111600000D01*
X89850975Y-111450622D01*
X89807403Y-111306984D01*
X89736645Y-111174607D01*
X89641422Y-111058578D01*
X89570045Y-111000000D01*
X89641422Y-110941422D01*
X89736645Y-110825393D01*
X89807403Y-110693016D01*
X89850975Y-110549378D01*
X89865687Y-110400000D01*
X89862000Y-109786500D01*
X89671500Y-109596000D01*
X88621000Y-109596000D01*
X88429000Y-109596000D01*
X88409000Y-109596000D01*
X88409000Y-109404000D01*
X88429000Y-109404000D01*
X88429000Y-108028500D01*
X88621000Y-108028500D01*
X88621000Y-109404000D01*
X89671500Y-109404000D01*
X89862000Y-109213500D01*
X89865687Y-108600000D01*
X89850975Y-108450622D01*
X89807403Y-108306984D01*
X89736645Y-108174607D01*
X89641422Y-108058578D01*
X89582545Y-108010259D01*
X89666422Y-107941422D01*
X89761645Y-107825393D01*
X89832403Y-107693016D01*
X89875975Y-107549378D01*
X89890687Y-107400000D01*
X89887000Y-106786500D01*
X89696500Y-106596000D01*
X88646000Y-106596000D01*
X88646000Y-107971500D01*
X88662000Y-107987500D01*
X88621000Y-108028500D01*
X88429000Y-108028500D01*
X88413000Y-108012500D01*
X88454000Y-107971500D01*
X88454000Y-106596000D01*
X87403500Y-106596000D01*
X87213000Y-106786500D01*
X87209313Y-107400000D01*
X87224025Y-107549378D01*
X87267597Y-107693016D01*
X87338355Y-107825393D01*
X87433578Y-107941422D01*
X87492455Y-107989741D01*
X87408578Y-108058578D01*
X87313355Y-108174607D01*
X87262000Y-108270684D01*
X87262000Y-108061988D01*
X87268105Y-108000000D01*
X87262000Y-107938011D01*
X87262000Y-107938004D01*
X87243740Y-107752605D01*
X87237458Y-107731894D01*
X87200516Y-107610116D01*
X87171577Y-107514717D01*
X87054392Y-107295478D01*
X86896686Y-107103314D01*
X86848532Y-107063795D01*
X85384737Y-105600000D01*
X87209313Y-105600000D01*
X87213000Y-106213500D01*
X87403500Y-106404000D01*
X88454000Y-106404000D01*
X88454000Y-105028500D01*
X88363000Y-104937500D01*
X88504000Y-104796500D01*
X88504000Y-103596000D01*
X87528500Y-103596000D01*
X87338000Y-103786500D01*
X87334313Y-104225000D01*
X87349025Y-104374378D01*
X87392597Y-104518016D01*
X87463355Y-104650393D01*
X87558578Y-104766422D01*
X87674607Y-104861645D01*
X87714219Y-104882819D01*
X87681984Y-104892597D01*
X87549607Y-104963355D01*
X87433578Y-105058578D01*
X87338355Y-105174607D01*
X87267597Y-105306984D01*
X87224025Y-105450622D01*
X87209313Y-105600000D01*
X85384737Y-105600000D01*
X82559737Y-102775000D01*
X87334313Y-102775000D01*
X87338000Y-103213500D01*
X87528500Y-103404000D01*
X88504000Y-103404000D01*
X88504000Y-102203500D01*
X88313500Y-102013000D01*
X88100000Y-102009313D01*
X87950622Y-102024025D01*
X87806984Y-102067597D01*
X87674607Y-102138355D01*
X87558578Y-102233578D01*
X87463355Y-102349607D01*
X87392597Y-102481984D01*
X87349025Y-102625622D01*
X87334313Y-102775000D01*
X82559737Y-102775000D01*
X79936211Y-100151475D01*
X79896686Y-100103314D01*
X79704522Y-99945608D01*
X79485283Y-99828423D01*
X79247395Y-99756260D01*
X79061996Y-99738000D01*
X79061988Y-99738000D01*
X79000000Y-99731895D01*
X78938012Y-99738000D01*
X66022737Y-99738000D01*
X61082000Y-94797264D01*
X61082000Y-92296267D01*
X61419497Y-92296267D01*
X61487244Y-92584570D01*
X61770228Y-92728616D01*
X62075877Y-92814687D01*
X62392445Y-92839475D01*
X62707766Y-92802028D01*
X63009722Y-92703784D01*
X63232756Y-92584570D01*
X63300503Y-92296267D01*
X63959497Y-92296267D01*
X64027244Y-92584570D01*
X64310228Y-92728616D01*
X64615877Y-92814687D01*
X64932445Y-92839475D01*
X65247766Y-92802028D01*
X65549722Y-92703784D01*
X65772756Y-92584570D01*
X65840503Y-92296267D01*
X66499497Y-92296267D01*
X66567244Y-92584570D01*
X66850228Y-92728616D01*
X67155877Y-92814687D01*
X67472445Y-92839475D01*
X67787766Y-92802028D01*
X68089722Y-92703784D01*
X68312756Y-92584570D01*
X68380503Y-92296267D01*
X69039497Y-92296267D01*
X69107244Y-92584570D01*
X69390228Y-92728616D01*
X69695877Y-92814687D01*
X70012445Y-92839475D01*
X70327766Y-92802028D01*
X70629722Y-92703784D01*
X70852756Y-92584570D01*
X70920503Y-92296267D01*
X71579497Y-92296267D01*
X71647244Y-92584570D01*
X71930228Y-92728616D01*
X72235877Y-92814687D01*
X72552445Y-92839475D01*
X72867766Y-92802028D01*
X73169722Y-92703784D01*
X73392756Y-92584570D01*
X73460503Y-92296267D01*
X74119497Y-92296267D01*
X74187244Y-92584570D01*
X74470228Y-92728616D01*
X74775877Y-92814687D01*
X75092445Y-92839475D01*
X75407766Y-92802028D01*
X75709722Y-92703784D01*
X75932756Y-92584570D01*
X76000503Y-92296267D01*
X75060000Y-91355765D01*
X74119497Y-92296267D01*
X73460503Y-92296267D01*
X72520000Y-91355765D01*
X71579497Y-92296267D01*
X70920503Y-92296267D01*
X69980000Y-91355765D01*
X69039497Y-92296267D01*
X68380503Y-92296267D01*
X67440000Y-91355765D01*
X66499497Y-92296267D01*
X65840503Y-92296267D01*
X64900000Y-91355765D01*
X63959497Y-92296267D01*
X63300503Y-92296267D01*
X62360000Y-91355765D01*
X61419497Y-92296267D01*
X61082000Y-92296267D01*
X61082000Y-92232807D01*
X61151132Y-92129344D01*
X61283733Y-92160503D01*
X62224235Y-91220000D01*
X62210093Y-91205858D01*
X62345858Y-91070093D01*
X62360000Y-91084235D01*
X62374142Y-91070093D01*
X62509907Y-91205858D01*
X62495765Y-91220000D01*
X63436267Y-92160503D01*
X63630000Y-92114979D01*
X63823733Y-92160503D01*
X64764235Y-91220000D01*
X64750093Y-91205858D01*
X64885858Y-91070093D01*
X64900000Y-91084235D01*
X64914142Y-91070093D01*
X65049907Y-91205858D01*
X65035765Y-91220000D01*
X65976267Y-92160503D01*
X66170000Y-92114979D01*
X66363733Y-92160503D01*
X67304235Y-91220000D01*
X67290093Y-91205858D01*
X67425858Y-91070093D01*
X67440000Y-91084235D01*
X67454142Y-91070093D01*
X67589907Y-91205858D01*
X67575765Y-91220000D01*
X68516267Y-92160503D01*
X68710000Y-92114979D01*
X68903733Y-92160503D01*
X69844235Y-91220000D01*
X69830093Y-91205858D01*
X69965858Y-91070093D01*
X69980000Y-91084235D01*
X69994142Y-91070093D01*
X70129907Y-91205858D01*
X70115765Y-91220000D01*
X71056267Y-92160503D01*
X71250000Y-92114979D01*
X71443733Y-92160503D01*
X72384235Y-91220000D01*
X72655765Y-91220000D01*
X73596267Y-92160503D01*
X73790000Y-92114979D01*
X73983733Y-92160503D01*
X74924235Y-91220000D01*
X75195765Y-91220000D01*
X76136267Y-92160503D01*
X76268868Y-92129344D01*
X76347878Y-92247590D01*
X76572410Y-92472122D01*
X76836432Y-92648536D01*
X77129797Y-92770052D01*
X77441232Y-92832000D01*
X77758768Y-92832000D01*
X78070203Y-92770052D01*
X78363568Y-92648536D01*
X78627590Y-92472122D01*
X78852122Y-92247590D01*
X79028536Y-91983568D01*
X79150052Y-91690203D01*
X79212000Y-91378768D01*
X79212000Y-91061232D01*
X79150052Y-90749797D01*
X79028536Y-90456432D01*
X78852122Y-90192410D01*
X78627590Y-89967878D01*
X78363568Y-89791464D01*
X78070203Y-89669948D01*
X77758768Y-89608000D01*
X77441232Y-89608000D01*
X77129797Y-89669948D01*
X76836432Y-89791464D01*
X76572410Y-89967878D01*
X76347878Y-90192410D01*
X76268868Y-90310656D01*
X76136267Y-90279497D01*
X75195765Y-91220000D01*
X74924235Y-91220000D01*
X73983733Y-90279497D01*
X73790000Y-90325021D01*
X73596267Y-90279497D01*
X72655765Y-91220000D01*
X72384235Y-91220000D01*
X72370093Y-91205858D01*
X72505858Y-91070093D01*
X72520000Y-91084235D01*
X73460503Y-90143733D01*
X74119497Y-90143733D01*
X75060000Y-91084235D01*
X76000503Y-90143733D01*
X75932756Y-89855430D01*
X75649772Y-89711384D01*
X75344123Y-89625313D01*
X75027555Y-89600525D01*
X74712234Y-89637972D01*
X74410278Y-89736216D01*
X74187244Y-89855430D01*
X74119497Y-90143733D01*
X73460503Y-90143733D01*
X73401167Y-89891225D01*
X73436211Y-89848525D01*
X75522737Y-87762000D01*
X76885658Y-87762000D01*
X77049998Y-87778186D01*
X77950002Y-87778186D01*
X78148152Y-87758670D01*
X78338687Y-87700872D01*
X78514286Y-87607012D01*
X78668199Y-87480699D01*
X78794512Y-87326786D01*
X78888372Y-87151187D01*
X78946170Y-86960652D01*
X78965686Y-86762502D01*
X78965686Y-86237498D01*
X78946170Y-86039348D01*
X78915123Y-85937000D01*
X79165877Y-85937000D01*
X79377116Y-86148239D01*
X79665622Y-86341012D01*
X79986192Y-86473797D01*
X80326508Y-86541490D01*
X80673492Y-86541490D01*
X81013808Y-86473797D01*
X81334378Y-86341012D01*
X81622884Y-86148239D01*
X81868239Y-85902884D01*
X82061012Y-85614378D01*
X82192193Y-85297681D01*
X83738000Y-86843489D01*
X83738001Y-90947192D01*
X83571464Y-91196432D01*
X83449948Y-91489797D01*
X83388000Y-91801232D01*
X83388000Y-92118768D01*
X83449948Y-92430203D01*
X83571464Y-92723568D01*
X83747878Y-92987590D01*
X83756563Y-92996275D01*
X83724608Y-93013355D01*
X83608578Y-93108578D01*
X83513355Y-93224608D01*
X83442598Y-93356985D01*
X83399026Y-93500622D01*
X83384314Y-93650000D01*
X83384314Y-95350000D01*
X83399026Y-95499378D01*
X83442598Y-95643015D01*
X83513355Y-95775392D01*
X83608578Y-95891422D01*
X83724608Y-95986645D01*
X83856985Y-96057402D01*
X84000622Y-96100974D01*
X84150000Y-96115686D01*
X85850000Y-96115686D01*
X85999378Y-96100974D01*
X86143015Y-96057402D01*
X86275392Y-95986645D01*
X86391422Y-95891422D01*
X86486645Y-95775392D01*
X86557402Y-95643015D01*
X86600974Y-95499378D01*
X86615686Y-95350000D01*
X86615686Y-93900422D01*
X89238001Y-96522738D01*
X89238000Y-102022904D01*
X89100000Y-102009313D01*
X88886500Y-102013000D01*
X88696000Y-102203500D01*
X88696000Y-103404000D01*
X88716000Y-103404000D01*
X88716000Y-103596000D01*
X88696000Y-103596000D01*
X88696000Y-104796500D01*
X88787000Y-104887500D01*
X88646000Y-105028500D01*
X88646000Y-106404000D01*
X89696500Y-106404000D01*
X89887000Y-106213500D01*
X89890236Y-105674973D01*
X90159314Y-105944051D01*
X90159314Y-107150001D01*
X90178830Y-107348151D01*
X90213001Y-107460798D01*
X90213001Y-108458745D01*
X90211628Y-108461313D01*
X90153830Y-108651849D01*
X90134314Y-108849999D01*
X90134314Y-110150001D01*
X90153830Y-110348151D01*
X90211628Y-110538687D01*
X90213000Y-110541254D01*
X90213000Y-111458746D01*
X90211628Y-111461313D01*
X90153830Y-111651849D01*
X90134314Y-111849999D01*
X90134314Y-113150001D01*
X90153830Y-113348151D01*
X90211628Y-113538687D01*
X90305488Y-113714285D01*
X90431801Y-113868199D01*
X90585715Y-113994512D01*
X90761313Y-114088372D01*
X90951849Y-114146170D01*
X91149999Y-114165686D01*
X91800001Y-114165686D01*
X91998151Y-114146170D01*
X92188687Y-114088372D01*
X92364285Y-113994512D01*
X92518199Y-113868199D01*
X92644512Y-113714285D01*
X92738372Y-113538687D01*
X92796170Y-113348151D01*
X92815686Y-113150001D01*
X92815686Y-111849999D01*
X92809943Y-111791684D01*
X95588000Y-111791684D01*
X95588000Y-112168316D01*
X95661477Y-112537710D01*
X95805608Y-112885671D01*
X96014853Y-113198829D01*
X96281171Y-113465147D01*
X96594329Y-113674392D01*
X96942290Y-113818523D01*
X97311684Y-113892000D01*
X97688316Y-113892000D01*
X98057710Y-113818523D01*
X98405671Y-113674392D01*
X98718829Y-113465147D01*
X98985147Y-113198829D01*
X99194392Y-112885671D01*
X99338523Y-112537710D01*
X99412000Y-112168316D01*
X99412000Y-111791684D01*
X99338523Y-111422290D01*
X99194392Y-111074329D01*
X98985147Y-110761171D01*
X98718829Y-110494853D01*
X98405671Y-110285608D01*
X98057710Y-110141477D01*
X97688316Y-110068000D01*
X97311684Y-110068000D01*
X96942290Y-110141477D01*
X96594329Y-110285608D01*
X96281171Y-110494853D01*
X96014853Y-110761171D01*
X95805608Y-111074329D01*
X95661477Y-111422290D01*
X95588000Y-111791684D01*
X92809943Y-111791684D01*
X92796170Y-111651849D01*
X92738372Y-111461313D01*
X92737000Y-111458746D01*
X92737000Y-110541254D01*
X92738372Y-110538687D01*
X92796170Y-110348151D01*
X92815686Y-110150001D01*
X92815686Y-108849999D01*
X92796170Y-108651849D01*
X92738372Y-108461313D01*
X92737000Y-108458746D01*
X92737000Y-107762000D01*
X102539050Y-107762000D01*
X102479101Y-107821949D01*
X102392786Y-107892786D01*
X102110116Y-108237220D01*
X101965802Y-108507214D01*
X101900074Y-108630183D01*
X101771392Y-109054391D01*
X101770730Y-109056572D01*
X101738000Y-109388885D01*
X101738000Y-109388891D01*
X101727057Y-109500000D01*
X101738000Y-109611109D01*
X101738001Y-120638000D01*
X100388884Y-120638000D01*
X100056571Y-120670730D01*
X99630182Y-120800074D01*
X99237220Y-121010116D01*
X98892786Y-121292786D01*
X98610116Y-121637220D01*
X98400074Y-122030182D01*
X98270730Y-122456571D01*
X98227056Y-122900000D01*
X98270730Y-123343429D01*
X98400074Y-123769818D01*
X98610116Y-124162780D01*
X98797017Y-124390519D01*
X98811628Y-124438686D01*
X98905488Y-124614285D01*
X99031802Y-124768198D01*
X99185715Y-124894512D01*
X99361314Y-124988372D01*
X99551849Y-125046170D01*
X99750000Y-125065686D01*
X99846963Y-125065686D01*
X100056571Y-125129270D01*
X100388884Y-125162000D01*
X103888884Y-125162000D01*
X104000000Y-125172944D01*
X104111116Y-125162000D01*
X104443429Y-125129270D01*
X104869818Y-124999926D01*
X105262780Y-124789884D01*
X105607214Y-124507214D01*
X105889884Y-124162780D01*
X105927131Y-124093095D01*
X106088285Y-124358736D01*
X106321960Y-124613805D01*
X106600906Y-124818385D01*
X106914404Y-124964614D01*
X107129954Y-125022704D01*
X107404000Y-124868565D01*
X107404000Y-123096000D01*
X107596000Y-123096000D01*
X107596000Y-124868565D01*
X107870046Y-125022704D01*
X108085596Y-124964614D01*
X108399094Y-124818385D01*
X108678040Y-124613805D01*
X108911715Y-124358736D01*
X109091138Y-124062981D01*
X109209415Y-123737905D01*
X109250000Y-123474023D01*
X109290585Y-123737905D01*
X109408862Y-124062981D01*
X109588285Y-124358736D01*
X109821960Y-124613805D01*
X110100906Y-124818385D01*
X110414404Y-124964614D01*
X110629954Y-125022704D01*
X110904000Y-124868565D01*
X110904000Y-123096000D01*
X111096000Y-123096000D01*
X111096000Y-124868565D01*
X111370046Y-125022704D01*
X111585596Y-124964614D01*
X111899094Y-124818385D01*
X112178040Y-124613805D01*
X112411715Y-124358736D01*
X112591138Y-124062981D01*
X112709415Y-123737905D01*
X112762000Y-123396000D01*
X112762000Y-123096000D01*
X111096000Y-123096000D01*
X110904000Y-123096000D01*
X107596000Y-123096000D01*
X107404000Y-123096000D01*
X107384000Y-123096000D01*
X107384000Y-122904000D01*
X107404000Y-122904000D01*
X107404000Y-121131435D01*
X107596000Y-121131435D01*
X107596000Y-122904000D01*
X110904000Y-122904000D01*
X110904000Y-121131435D01*
X111096000Y-121131435D01*
X111096000Y-122904000D01*
X112762000Y-122904000D01*
X112762000Y-122604000D01*
X112709415Y-122262095D01*
X112591138Y-121937019D01*
X112411715Y-121641264D01*
X112178040Y-121386195D01*
X111899094Y-121181615D01*
X111585596Y-121035386D01*
X111370046Y-120977296D01*
X111096000Y-121131435D01*
X110904000Y-121131435D01*
X110629954Y-120977296D01*
X110414404Y-121035386D01*
X110100906Y-121181615D01*
X109821960Y-121386195D01*
X109588285Y-121641264D01*
X109408862Y-121937019D01*
X109290585Y-122262095D01*
X109250000Y-122525977D01*
X109209415Y-122262095D01*
X109091138Y-121937019D01*
X108911715Y-121641264D01*
X108678040Y-121386195D01*
X108399094Y-121181615D01*
X108085596Y-121035386D01*
X107870046Y-120977296D01*
X107596000Y-121131435D01*
X107404000Y-121131435D01*
X107129954Y-120977296D01*
X106914404Y-121035386D01*
X106600906Y-121181615D01*
X106321960Y-121386195D01*
X106262000Y-121451645D01*
X106262000Y-113269824D01*
X114125940Y-113269824D01*
X114229794Y-113588811D01*
X114563837Y-113762783D01*
X114925402Y-113868244D01*
X115300593Y-113901141D01*
X115674993Y-113860209D01*
X116034214Y-113747022D01*
X116330206Y-113588811D01*
X116434060Y-113269824D01*
X115280000Y-112115765D01*
X114125940Y-113269824D01*
X106262000Y-113269824D01*
X106262000Y-112000593D01*
X113358859Y-112000593D01*
X113399791Y-112374993D01*
X113512978Y-112734214D01*
X113671189Y-113030206D01*
X113990176Y-113134060D01*
X115144235Y-111980000D01*
X115415765Y-111980000D01*
X116569824Y-113134060D01*
X116888811Y-113030206D01*
X117062783Y-112696163D01*
X117168244Y-112334598D01*
X117201141Y-111959407D01*
X117160209Y-111585007D01*
X117047022Y-111225786D01*
X116888811Y-110929794D01*
X116569824Y-110825940D01*
X115415765Y-111980000D01*
X115144235Y-111980000D01*
X113990176Y-110825940D01*
X113671189Y-110929794D01*
X113497217Y-111263837D01*
X113391756Y-111625402D01*
X113358859Y-112000593D01*
X106262000Y-112000593D01*
X106262000Y-110690176D01*
X114125940Y-110690176D01*
X115280000Y-111844235D01*
X116434060Y-110690176D01*
X116330206Y-110371189D01*
X115996163Y-110197217D01*
X115634598Y-110091756D01*
X115259407Y-110058859D01*
X114885007Y-110099791D01*
X114525786Y-110212978D01*
X114229794Y-110371189D01*
X114125940Y-110690176D01*
X106262000Y-110690176D01*
X106262000Y-110436950D01*
X107536951Y-109162000D01*
X115391116Y-109162000D01*
X115723429Y-109129270D01*
X116149818Y-108999926D01*
X116542780Y-108789884D01*
X116887214Y-108507214D01*
X117169884Y-108162780D01*
X117379926Y-107769818D01*
X117509270Y-107343429D01*
X117552944Y-106900000D01*
X117509270Y-106456571D01*
X117379926Y-106030182D01*
X117169884Y-105637220D01*
X116887214Y-105292786D01*
X116542780Y-105010116D01*
X116149818Y-104800074D01*
X115723429Y-104670730D01*
X115391116Y-104638000D01*
X106711105Y-104638000D01*
X106599999Y-104627057D01*
X106488893Y-104638000D01*
X106488884Y-104638000D01*
X106156571Y-104670730D01*
X105730182Y-104800074D01*
X105337220Y-105010116D01*
X105059543Y-105238000D01*
X92739310Y-105238000D01*
X92671577Y-105014717D01*
X92658732Y-104990686D01*
X92554392Y-104795478D01*
X92396686Y-104603314D01*
X92348530Y-104563793D01*
X91765153Y-103980416D01*
X91765686Y-103975000D01*
X91765686Y-103754000D01*
X119746000Y-103754000D01*
X119746000Y-128746000D01*
X21254000Y-128746000D01*
X21254000Y-113707149D01*
X21796000Y-113707149D01*
X21796000Y-114692851D01*
X21988301Y-115659613D01*
X22365513Y-116570283D01*
X22913140Y-117389864D01*
X23610136Y-118086860D01*
X24429717Y-118634487D01*
X25340387Y-119011699D01*
X26307149Y-119204000D01*
X27292851Y-119204000D01*
X28259613Y-119011699D01*
X29170283Y-118634487D01*
X29989864Y-118086860D01*
X30686860Y-117389864D01*
X31234487Y-116570283D01*
X31611699Y-115659613D01*
X31804000Y-114692851D01*
X31804000Y-113707149D01*
X31611699Y-112740387D01*
X31234487Y-111829717D01*
X30686860Y-111010136D01*
X29989864Y-110313140D01*
X29296727Y-109850000D01*
X37884313Y-109850000D01*
X37899025Y-109999378D01*
X37942597Y-110143016D01*
X38013355Y-110275393D01*
X38108578Y-110391422D01*
X38224607Y-110486645D01*
X38356984Y-110557403D01*
X38500622Y-110600975D01*
X38650000Y-110615687D01*
X39213500Y-110612000D01*
X39404000Y-110421500D01*
X39404000Y-109096000D01*
X38078500Y-109096000D01*
X37888000Y-109286500D01*
X37884313Y-109850000D01*
X29296727Y-109850000D01*
X29170283Y-109765513D01*
X28259613Y-109388301D01*
X27292851Y-109196000D01*
X26307149Y-109196000D01*
X25340387Y-109388301D01*
X24429717Y-109765513D01*
X23610136Y-110313140D01*
X22913140Y-111010136D01*
X22365513Y-111829717D01*
X21988301Y-112740387D01*
X21796000Y-113707149D01*
X21254000Y-113707149D01*
X21254000Y-108150000D01*
X37884313Y-108150000D01*
X37888000Y-108713500D01*
X38078500Y-108904000D01*
X39404000Y-108904000D01*
X39404000Y-107578500D01*
X39596000Y-107578500D01*
X39596000Y-108904000D01*
X39616000Y-108904000D01*
X39616000Y-109096000D01*
X39596000Y-109096000D01*
X39596000Y-110421500D01*
X39786500Y-110612000D01*
X40350000Y-110615687D01*
X40499378Y-110600975D01*
X40643016Y-110557403D01*
X40738001Y-110506632D01*
X40738000Y-121077541D01*
X40685715Y-121105488D01*
X40531802Y-121231802D01*
X40405488Y-121385715D01*
X40311628Y-121561314D01*
X40253830Y-121751849D01*
X40234314Y-121950000D01*
X40234314Y-124050000D01*
X40253830Y-124248151D01*
X40311628Y-124438686D01*
X40405488Y-124614285D01*
X40531802Y-124768198D01*
X40685715Y-124894512D01*
X40861314Y-124988372D01*
X41051849Y-125046170D01*
X41250000Y-125065686D01*
X42750000Y-125065686D01*
X42948151Y-125046170D01*
X43138686Y-124988372D01*
X43314285Y-124894512D01*
X43468198Y-124768198D01*
X43594512Y-124614285D01*
X43688372Y-124438686D01*
X43746170Y-124248151D01*
X43765686Y-124050000D01*
X43765686Y-123652635D01*
X43864248Y-123977551D01*
X44027862Y-124283651D01*
X44248050Y-124551950D01*
X44516350Y-124772138D01*
X44822450Y-124935752D01*
X45154589Y-125036505D01*
X45500000Y-125070525D01*
X45845412Y-125036505D01*
X46177551Y-124935752D01*
X46483651Y-124772138D01*
X46751950Y-124551950D01*
X46972138Y-124283651D01*
X47135752Y-123977551D01*
X47236505Y-123645411D01*
X47250000Y-123508394D01*
X47263495Y-123645412D01*
X47364248Y-123977551D01*
X47527862Y-124283651D01*
X47748050Y-124551950D01*
X48016350Y-124772138D01*
X48322450Y-124935752D01*
X48654589Y-125036505D01*
X49000000Y-125070525D01*
X49345412Y-125036505D01*
X49677551Y-124935752D01*
X49983651Y-124772138D01*
X50251950Y-124551950D01*
X50472138Y-124283651D01*
X50635752Y-123977551D01*
X50736505Y-123645411D01*
X50750000Y-123508394D01*
X50763495Y-123645412D01*
X50864248Y-123977551D01*
X51027862Y-124283651D01*
X51248050Y-124551950D01*
X51516350Y-124772138D01*
X51822450Y-124935752D01*
X52154589Y-125036505D01*
X52500000Y-125070525D01*
X52845412Y-125036505D01*
X53177551Y-124935752D01*
X53483651Y-124772138D01*
X53751950Y-124551950D01*
X53972138Y-124283651D01*
X54135752Y-123977551D01*
X54236505Y-123645411D01*
X54250000Y-123508394D01*
X54263495Y-123645412D01*
X54364248Y-123977551D01*
X54527862Y-124283651D01*
X54748050Y-124551950D01*
X55016350Y-124772138D01*
X55322450Y-124935752D01*
X55654589Y-125036505D01*
X56000000Y-125070525D01*
X56345412Y-125036505D01*
X56677551Y-124935752D01*
X56983651Y-124772138D01*
X57251950Y-124551950D01*
X57472138Y-124283651D01*
X57635752Y-123977551D01*
X57736505Y-123645411D01*
X57750000Y-123508394D01*
X57763495Y-123645412D01*
X57864248Y-123977551D01*
X58027862Y-124283651D01*
X58248050Y-124551950D01*
X58516350Y-124772138D01*
X58822450Y-124935752D01*
X59154589Y-125036505D01*
X59500000Y-125070525D01*
X59845412Y-125036505D01*
X60177551Y-124935752D01*
X60483651Y-124772138D01*
X60751950Y-124551950D01*
X60972138Y-124283651D01*
X61135752Y-123977551D01*
X61236505Y-123645411D01*
X61250000Y-123508394D01*
X61263495Y-123645412D01*
X61364248Y-123977551D01*
X61527862Y-124283651D01*
X61748050Y-124551950D01*
X62016350Y-124772138D01*
X62322450Y-124935752D01*
X62654589Y-125036505D01*
X63000000Y-125070525D01*
X63345412Y-125036505D01*
X63677551Y-124935752D01*
X63983651Y-124772138D01*
X64251950Y-124551950D01*
X64472138Y-124283651D01*
X64635752Y-123977551D01*
X64736505Y-123645411D01*
X64750000Y-123508394D01*
X64763495Y-123645412D01*
X64864248Y-123977551D01*
X65027862Y-124283651D01*
X65248050Y-124551950D01*
X65516350Y-124772138D01*
X65822450Y-124935752D01*
X66154589Y-125036505D01*
X66500000Y-125070525D01*
X66845412Y-125036505D01*
X67177551Y-124935752D01*
X67483651Y-124772138D01*
X67751950Y-124551950D01*
X67972138Y-124283651D01*
X68135752Y-123977551D01*
X68236505Y-123645411D01*
X68262000Y-123386555D01*
X68262000Y-122613444D01*
X68236505Y-122354588D01*
X68135752Y-122022449D01*
X67972138Y-121716349D01*
X67762000Y-121460296D01*
X67762000Y-117561988D01*
X67768105Y-117500000D01*
X67762000Y-117438011D01*
X67762000Y-117438004D01*
X67743740Y-117252605D01*
X67671577Y-117014717D01*
X67554392Y-116795478D01*
X67396686Y-116603314D01*
X67348531Y-116563794D01*
X61082000Y-110297264D01*
X61082000Y-110076267D01*
X61419497Y-110076267D01*
X61487244Y-110364570D01*
X61770228Y-110508616D01*
X62075877Y-110594687D01*
X62392445Y-110619475D01*
X62707766Y-110582028D01*
X63009722Y-110483784D01*
X63232756Y-110364570D01*
X63300503Y-110076267D01*
X63959497Y-110076267D01*
X64027244Y-110364570D01*
X64310228Y-110508616D01*
X64615877Y-110594687D01*
X64932445Y-110619475D01*
X65247766Y-110582028D01*
X65549722Y-110483784D01*
X65772756Y-110364570D01*
X65840503Y-110076267D01*
X66499497Y-110076267D01*
X66567244Y-110364570D01*
X66850228Y-110508616D01*
X67155877Y-110594687D01*
X67472445Y-110619475D01*
X67787766Y-110582028D01*
X68089722Y-110483784D01*
X68312756Y-110364570D01*
X68380503Y-110076267D01*
X67440000Y-109135765D01*
X66499497Y-110076267D01*
X65840503Y-110076267D01*
X64900000Y-109135765D01*
X63959497Y-110076267D01*
X63300503Y-110076267D01*
X62360000Y-109135765D01*
X61419497Y-110076267D01*
X61082000Y-110076267D01*
X61082000Y-110012807D01*
X61151132Y-109909344D01*
X61283733Y-109940503D01*
X62224235Y-109000000D01*
X62495765Y-109000000D01*
X63436267Y-109940503D01*
X63630000Y-109894979D01*
X63823733Y-109940503D01*
X64764235Y-109000000D01*
X65035765Y-109000000D01*
X65976267Y-109940503D01*
X66170000Y-109894979D01*
X66363733Y-109940503D01*
X67304235Y-109000000D01*
X67575765Y-109000000D01*
X68516267Y-109940503D01*
X68804570Y-109872756D01*
X68948616Y-109589772D01*
X69034687Y-109284123D01*
X69059475Y-108967555D01*
X69044474Y-108841232D01*
X70908000Y-108841232D01*
X70908000Y-109158768D01*
X70969948Y-109470203D01*
X71091464Y-109763568D01*
X71267878Y-110027590D01*
X71492410Y-110252122D01*
X71756432Y-110428536D01*
X72049797Y-110550052D01*
X72361232Y-110612000D01*
X72678768Y-110612000D01*
X72990203Y-110550052D01*
X73283568Y-110428536D01*
X73547590Y-110252122D01*
X73772122Y-110027590D01*
X73948536Y-109763568D01*
X74070052Y-109470203D01*
X74132000Y-109158768D01*
X74132000Y-108841232D01*
X74070052Y-108529797D01*
X73948536Y-108236432D01*
X73772122Y-107972410D01*
X73547590Y-107747878D01*
X73283568Y-107571464D01*
X72990203Y-107449948D01*
X72678768Y-107388000D01*
X72361232Y-107388000D01*
X72049797Y-107449948D01*
X71756432Y-107571464D01*
X71492410Y-107747878D01*
X71267878Y-107972410D01*
X71091464Y-108236432D01*
X70969948Y-108529797D01*
X70908000Y-108841232D01*
X69044474Y-108841232D01*
X69022028Y-108652234D01*
X68923784Y-108350278D01*
X68804570Y-108127244D01*
X68516267Y-108059497D01*
X67575765Y-109000000D01*
X67304235Y-109000000D01*
X66363733Y-108059497D01*
X66170000Y-108105021D01*
X65976267Y-108059497D01*
X65035765Y-109000000D01*
X64764235Y-109000000D01*
X63823733Y-108059497D01*
X63630000Y-108105021D01*
X63436267Y-108059497D01*
X62495765Y-109000000D01*
X62224235Y-109000000D01*
X61283733Y-108059497D01*
X61151132Y-108090656D01*
X61072122Y-107972410D01*
X61023445Y-107923733D01*
X61419497Y-107923733D01*
X62360000Y-108864235D01*
X63300503Y-107923733D01*
X63959497Y-107923733D01*
X64900000Y-108864235D01*
X65840503Y-107923733D01*
X66499497Y-107923733D01*
X67440000Y-108864235D01*
X68380503Y-107923733D01*
X68312756Y-107635430D01*
X68029772Y-107491384D01*
X67724123Y-107405313D01*
X67407555Y-107380525D01*
X67092234Y-107417972D01*
X66790278Y-107516216D01*
X66567244Y-107635430D01*
X66499497Y-107923733D01*
X65840503Y-107923733D01*
X65772756Y-107635430D01*
X65489772Y-107491384D01*
X65184123Y-107405313D01*
X64867555Y-107380525D01*
X64552234Y-107417972D01*
X64250278Y-107516216D01*
X64027244Y-107635430D01*
X63959497Y-107923733D01*
X63300503Y-107923733D01*
X63232756Y-107635430D01*
X62949772Y-107491384D01*
X62644123Y-107405313D01*
X62327555Y-107380525D01*
X62012234Y-107417972D01*
X61710278Y-107516216D01*
X61487244Y-107635430D01*
X61419497Y-107923733D01*
X61023445Y-107923733D01*
X60847590Y-107747878D01*
X60583568Y-107571464D01*
X60290203Y-107449948D01*
X59978768Y-107388000D01*
X59661232Y-107388000D01*
X59349797Y-107449948D01*
X59056432Y-107571464D01*
X58792410Y-107747878D01*
X58567878Y-107972410D01*
X58550000Y-107999166D01*
X58532122Y-107972410D01*
X58307590Y-107747878D01*
X58043568Y-107571464D01*
X57750203Y-107449948D01*
X57438768Y-107388000D01*
X57121232Y-107388000D01*
X56809797Y-107449948D01*
X56516432Y-107571464D01*
X56252410Y-107747878D01*
X56027878Y-107972410D01*
X56010000Y-107999166D01*
X55992122Y-107972410D01*
X55767590Y-107747878D01*
X55503568Y-107571464D01*
X55210203Y-107449948D01*
X54898768Y-107388000D01*
X54581232Y-107388000D01*
X54269797Y-107449948D01*
X53976432Y-107571464D01*
X53712410Y-107747878D01*
X53487878Y-107972410D01*
X53470000Y-107999166D01*
X53452122Y-107972410D01*
X53227590Y-107747878D01*
X52963568Y-107571464D01*
X52670203Y-107449948D01*
X52358768Y-107388000D01*
X52041232Y-107388000D01*
X51729797Y-107449948D01*
X51436432Y-107571464D01*
X51172410Y-107747878D01*
X50947878Y-107972410D01*
X50930000Y-107999166D01*
X50912122Y-107972410D01*
X50687590Y-107747878D01*
X50423568Y-107571464D01*
X50130203Y-107449948D01*
X49818768Y-107388000D01*
X49501232Y-107388000D01*
X49189797Y-107449948D01*
X48896432Y-107571464D01*
X48632410Y-107747878D01*
X48407878Y-107972410D01*
X48390000Y-107999166D01*
X48372122Y-107972410D01*
X48147590Y-107747878D01*
X47883568Y-107571464D01*
X47590203Y-107449948D01*
X47278768Y-107388000D01*
X46961232Y-107388000D01*
X46649797Y-107449948D01*
X46356432Y-107571464D01*
X46092410Y-107747878D01*
X45867878Y-107972410D01*
X45850000Y-107999166D01*
X45832122Y-107972410D01*
X45607590Y-107747878D01*
X45343568Y-107571464D01*
X45050203Y-107449948D01*
X44738768Y-107388000D01*
X44421232Y-107388000D01*
X44109797Y-107449948D01*
X43816432Y-107571464D01*
X43552410Y-107747878D01*
X43327878Y-107972410D01*
X43310000Y-107999166D01*
X43292122Y-107972410D01*
X43067590Y-107747878D01*
X42803568Y-107571464D01*
X42510203Y-107449948D01*
X42198768Y-107388000D01*
X41881232Y-107388000D01*
X41569797Y-107449948D01*
X41276432Y-107571464D01*
X41012410Y-107747878D01*
X41003726Y-107756562D01*
X40986645Y-107724607D01*
X40891422Y-107608578D01*
X40775393Y-107513355D01*
X40643016Y-107442597D01*
X40499378Y-107399025D01*
X40350000Y-107384313D01*
X39786500Y-107388000D01*
X39596000Y-107578500D01*
X39404000Y-107578500D01*
X39213500Y-107388000D01*
X38650000Y-107384313D01*
X38500622Y-107399025D01*
X38356984Y-107442597D01*
X38224607Y-107513355D01*
X38108578Y-107608578D01*
X38013355Y-107724607D01*
X37942597Y-107856984D01*
X37899025Y-108000622D01*
X37884313Y-108150000D01*
X21254000Y-108150000D01*
X21254000Y-82254000D01*
X26238510Y-82254000D01*
X26238510Y-82413492D01*
G37*
%TD.AperFunction*%
%TD*%
M02*
