%TF.GenerationSoftware,KiCad,Pcbnew,5.1.7-a382d34a8~87~ubuntu18.04.1*%
%TF.CreationDate,2020-10-18T18:02:23+02:00*%
%TF.ProjectId,thermodrive,74686572-6d6f-4647-9269-76652e6b6963,rev?*%
%TF.SameCoordinates,Original*%
%TF.FileFunction,Copper,L1,Top*%
%TF.FilePolarity,Positive*%
%FSLAX46Y46*%
G04 Gerber Fmt 4.6, Leading zero omitted, Abs format (unit mm)*
G04 Created by KiCad (PCBNEW 5.1.7-a382d34a8~87~ubuntu18.04.1) date 2020-10-18 18:02:23*
%MOMM*%
%LPD*%
G01*
G04 APERTURE LIST*
%TA.AperFunction,ComponentPad*%
%ADD10C,1.700000*%
%TD*%
%TA.AperFunction,ComponentPad*%
%ADD11R,1.700000X1.700000*%
%TD*%
%TA.AperFunction,ComponentPad*%
%ADD12O,1.700000X1.700000*%
%TD*%
%TA.AperFunction,ComponentPad*%
%ADD13O,2.000000X2.600000*%
%TD*%
%TA.AperFunction,ComponentPad*%
%ADD14C,1.800000*%
%TD*%
%TA.AperFunction,ComponentPad*%
%ADD15C,2.300000*%
%TD*%
%TA.AperFunction,ComponentPad*%
%ADD16R,2.300000X2.000000*%
%TD*%
%TA.AperFunction,ComponentPad*%
%ADD17O,4.000000X2.500000*%
%TD*%
%TA.AperFunction,ComponentPad*%
%ADD18C,1.998980*%
%TD*%
%TA.AperFunction,ComponentPad*%
%ADD19C,2.600000*%
%TD*%
%TA.AperFunction,ComponentPad*%
%ADD20R,2.600000X2.600000*%
%TD*%
%TA.AperFunction,Conductor*%
%ADD21C,3.000000*%
%TD*%
%TA.AperFunction,Conductor*%
%ADD22C,1.000000*%
%TD*%
%TA.AperFunction,Conductor*%
%ADD23C,0.508000*%
%TD*%
%TA.AperFunction,Conductor*%
%ADD24C,0.100000*%
%TD*%
G04 APERTURE END LIST*
D10*
%TO.P,U7,32*%
%TO.N,Net-(U7-Pad32)*%
X39500000Y-91220000D03*
%TO.P,U7,31*%
%TO.N,Net-(R1-Pad1)*%
X42040000Y-91220000D03*
%TO.P,U7,30*%
%TO.N,Net-(R2-Pad2)*%
X44580000Y-91220000D03*
%TO.P,U7,29*%
%TO.N,Net-(R3-Pad2)*%
X47120000Y-91220000D03*
%TO.P,U7,28*%
%TO.N,Net-(R4-Pad2)*%
X49660000Y-91220000D03*
%TO.P,U7,27*%
%TO.N,Net-(R5-Pad2)*%
X52200000Y-91220000D03*
%TO.P,U7,26*%
%TO.N,Net-(R6-Pad2)*%
X54740000Y-91220000D03*
%TO.P,U7,25*%
%TO.N,Net-(J6-Pad2)*%
X57280000Y-91220000D03*
%TO.P,U7,24*%
%TO.N,Net-(J6-Pad3)*%
X59820000Y-91220000D03*
%TO.P,U7,23*%
%TO.N,GND*%
X62360000Y-91220000D03*
%TO.P,U7,22*%
X64900000Y-91220000D03*
%TO.P,U7,21*%
X67440000Y-91220000D03*
%TO.P,U7,20*%
X69980000Y-91220000D03*
%TO.P,U7,19*%
X72520000Y-91220000D03*
%TO.P,U7,18*%
X75060000Y-91220000D03*
%TO.P,U7,17*%
%TO.N,N/C*%
X77600000Y-91220000D03*
%TO.P,U7,16*%
%TO.N,Net-(J6-Pad1)*%
X77600000Y-109000000D03*
%TO.P,U7,14*%
%TO.N,Net-(JP1-Pad1)*%
X72520000Y-109000000D03*
%TO.P,U7,12*%
%TO.N,GND*%
X67440000Y-109000000D03*
%TO.P,U7,11*%
X64900000Y-109000000D03*
%TO.P,U7,10*%
X62360000Y-109000000D03*
%TO.P,U7,9*%
%TO.N,Net-(J5-Pad8)*%
X59820000Y-109000000D03*
%TO.P,U7,8*%
%TO.N,Net-(J5-Pad7)*%
X57280000Y-109000000D03*
%TO.P,U7,7*%
%TO.N,Net-(J5-Pad6)*%
X54740000Y-109000000D03*
%TO.P,U7,6*%
%TO.N,Net-(J5-Pad5)*%
X52200000Y-109000000D03*
%TO.P,U7,5*%
%TO.N,Net-(J5-Pad4)*%
X49660000Y-109000000D03*
%TO.P,U7,4*%
%TO.N,Net-(J5-Pad3)*%
X47120000Y-109000000D03*
%TO.P,U7,3*%
%TO.N,Net-(J5-Pad2)*%
X44580000Y-109000000D03*
%TO.P,U7,2*%
%TO.N,Net-(J5-Pad1)*%
X42040000Y-109000000D03*
D11*
%TO.P,U7,1*%
%TO.N,GND*%
X39500000Y-109000000D03*
%TD*%
D12*
%TO.P,JP1,2*%
%TO.N,+3V3*%
X85000000Y-91960000D03*
D11*
%TO.P,JP1,1*%
%TO.N,Net-(JP1-Pad1)*%
X85000000Y-94500000D03*
%TD*%
D13*
%TO.P,J6,4*%
%TO.N,GND*%
X89500000Y-123000000D03*
%TO.P,J6,3*%
%TO.N,Net-(J6-Pad3)*%
X86000000Y-123000000D03*
%TO.P,J6,2*%
%TO.N,Net-(J6-Pad2)*%
X82500000Y-123000000D03*
%TO.P,J6,1*%
%TO.N,Net-(J6-Pad1)*%
%TA.AperFunction,ComponentPad*%
G36*
G01*
X78000000Y-124050000D02*
X78000000Y-121950000D01*
G75*
G02*
X78250000Y-121700000I250000J0D01*
G01*
X79750000Y-121700000D01*
G75*
G02*
X80000000Y-121950000I0J-250000D01*
G01*
X80000000Y-124050000D01*
G75*
G02*
X79750000Y-124300000I-250000J0D01*
G01*
X78250000Y-124300000D01*
G75*
G02*
X78000000Y-124050000I0J250000D01*
G01*
G37*
%TD.AperFunction*%
%TD*%
D14*
%TO.P,RV6,2*%
%TO.N,Net-(J2-Pad6)*%
X76900000Y-64500000D03*
%TO.P,RV6,1*%
%TO.N,/NET_L*%
X75500000Y-72000000D03*
%TD*%
D15*
%TO.P,PS1,16*%
%TO.N,+3V3*%
X115280000Y-106900000D03*
%TO.P,PS1,14*%
%TO.N,GND*%
X115280000Y-111980000D03*
%TO.P,PS1,3*%
%TO.N,/NET_N*%
X97500000Y-86580000D03*
D16*
%TO.P,PS1,1*%
%TO.N,/NET_L*%
X97500000Y-81500000D03*
D15*
%TO.P,PS1,5*%
%TO.N,Net-(PS1-Pad5)*%
X97500000Y-111980000D03*
%TD*%
D13*
%TO.P,J5,8*%
%TO.N,Net-(J5-Pad8)*%
X66500000Y-123000000D03*
%TO.P,J5,7*%
%TO.N,Net-(J5-Pad7)*%
X63000000Y-123000000D03*
%TO.P,J5,6*%
%TO.N,Net-(J5-Pad6)*%
X59500000Y-123000000D03*
%TO.P,J5,5*%
%TO.N,Net-(J5-Pad5)*%
X56000000Y-123000000D03*
%TO.P,J5,4*%
%TO.N,Net-(J5-Pad4)*%
X52500000Y-123000000D03*
%TO.P,J5,3*%
%TO.N,Net-(J5-Pad3)*%
X49000000Y-123000000D03*
%TO.P,J5,2*%
%TO.N,Net-(J5-Pad2)*%
X45500000Y-123000000D03*
%TO.P,J5,1*%
%TO.N,Net-(J5-Pad1)*%
%TA.AperFunction,ComponentPad*%
G36*
G01*
X41000000Y-124050000D02*
X41000000Y-121950000D01*
G75*
G02*
X41250000Y-121700000I250000J0D01*
G01*
X42750000Y-121700000D01*
G75*
G02*
X43000000Y-121950000I0J-250000D01*
G01*
X43000000Y-124050000D01*
G75*
G02*
X42750000Y-124300000I-250000J0D01*
G01*
X41250000Y-124300000D01*
G75*
G02*
X41000000Y-124050000I0J250000D01*
G01*
G37*
%TD.AperFunction*%
%TD*%
%TO.P,J4,4*%
%TO.N,GND*%
X111000000Y-123000000D03*
%TO.P,J4,3*%
X107500000Y-123000000D03*
%TO.P,J4,2*%
%TO.N,+3V3*%
X104000000Y-123000000D03*
%TO.P,J4,1*%
%TA.AperFunction,ComponentPad*%
G36*
G01*
X99500000Y-124050000D02*
X99500000Y-121950000D01*
G75*
G02*
X99750000Y-121700000I250000J0D01*
G01*
X101250000Y-121700000D01*
G75*
G02*
X101500000Y-121950000I0J-250000D01*
G01*
X101500000Y-124050000D01*
G75*
G02*
X101250000Y-124300000I-250000J0D01*
G01*
X99750000Y-124300000D01*
G75*
G02*
X99500000Y-124050000I0J250000D01*
G01*
G37*
%TD.AperFunction*%
%TD*%
D17*
%TO.P,F1,1*%
%TO.N,Net-(F1-Pad1)*%
X117000000Y-71000000D03*
%TO.P,F1,2*%
%TO.N,/NET_L*%
X95000000Y-71000000D03*
%TD*%
D18*
%TO.P,U6,4*%
%TO.N,Net-(J2-Pad6)*%
X80500000Y-67000000D03*
%TO.P,U6,3*%
%TO.N,/NET_L*%
X80500000Y-72080000D03*
%TO.P,U6,2*%
%TO.N,+3V3*%
X80500000Y-82240000D03*
%TO.P,U6,1*%
%TO.N,Net-(R6-Pad1)*%
X80500000Y-84780000D03*
%TD*%
%TO.P,U5,4*%
%TO.N,Net-(J2-Pad5)*%
X70000000Y-67000000D03*
%TO.P,U5,3*%
%TO.N,/NET_L*%
X70000000Y-72080000D03*
%TO.P,U5,2*%
%TO.N,+3V3*%
X70000000Y-82240000D03*
%TO.P,U5,1*%
%TO.N,Net-(R5-Pad1)*%
X70000000Y-84780000D03*
%TD*%
%TO.P,U4,4*%
%TO.N,Net-(J2-Pad4)*%
X59500000Y-67000000D03*
%TO.P,U4,3*%
%TO.N,/NET_L*%
X59500000Y-72080000D03*
%TO.P,U4,2*%
%TO.N,+3V3*%
X59500000Y-82240000D03*
%TO.P,U4,1*%
%TO.N,Net-(R4-Pad1)*%
X59500000Y-84780000D03*
%TD*%
%TO.P,U3,4*%
%TO.N,Net-(J2-Pad3)*%
X49000000Y-67000000D03*
%TO.P,U3,3*%
%TO.N,/NET_L*%
X49000000Y-72080000D03*
%TO.P,U3,2*%
%TO.N,+3V3*%
X49000000Y-82240000D03*
%TO.P,U3,1*%
%TO.N,Net-(R3-Pad1)*%
X49000000Y-84780000D03*
%TD*%
%TO.P,U2,4*%
%TO.N,Net-(J2-Pad2)*%
X38500000Y-67000000D03*
%TO.P,U2,3*%
%TO.N,/NET_L*%
X38500000Y-72080000D03*
%TO.P,U2,2*%
%TO.N,+3V3*%
X38500000Y-82240000D03*
%TO.P,U2,1*%
%TO.N,Net-(R2-Pad1)*%
X38500000Y-84780000D03*
%TD*%
%TO.P,U1,4*%
%TO.N,Net-(J2-Pad1)*%
X28000000Y-67000000D03*
%TO.P,U1,3*%
%TO.N,/NET_L*%
X28000000Y-72080000D03*
%TO.P,U1,2*%
%TO.N,+3V3*%
X28000000Y-82240000D03*
%TO.P,U1,1*%
%TO.N,Net-(R1-Pad2)*%
X28000000Y-84780000D03*
%TD*%
D14*
%TO.P,RV5,2*%
%TO.N,Net-(J2-Pad5)*%
X66400000Y-64500000D03*
%TO.P,RV5,1*%
%TO.N,/NET_L*%
X65000000Y-72000000D03*
%TD*%
%TO.P,RV4,2*%
%TO.N,Net-(J2-Pad4)*%
X55900000Y-64500000D03*
%TO.P,RV4,1*%
%TO.N,/NET_L*%
X54500000Y-72000000D03*
%TD*%
%TO.P,RV3,2*%
%TO.N,Net-(J2-Pad3)*%
X45400000Y-64500000D03*
%TO.P,RV3,1*%
%TO.N,/NET_L*%
X44000000Y-72000000D03*
%TD*%
%TO.P,RV2,2*%
%TO.N,Net-(J2-Pad2)*%
X34900000Y-64500000D03*
%TO.P,RV2,1*%
%TO.N,/NET_L*%
X33500000Y-72000000D03*
%TD*%
%TO.P,RV1,2*%
%TO.N,Net-(J2-Pad1)*%
X24400000Y-64500000D03*
%TO.P,RV1,1*%
%TO.N,/NET_L*%
X23000000Y-72000000D03*
%TD*%
D19*
%TO.P,J3,3*%
%TO.N,/NET_N*%
X90000000Y-49500000D03*
%TO.P,J3,2*%
X82500000Y-49500000D03*
D20*
%TO.P,J3,1*%
X75000000Y-49500000D03*
%TD*%
D19*
%TO.P,J2,6*%
%TO.N,Net-(J2-Pad6)*%
X62000000Y-49500000D03*
%TO.P,J2,5*%
%TO.N,Net-(J2-Pad5)*%
X54500000Y-49500000D03*
%TO.P,J2,4*%
%TO.N,Net-(J2-Pad4)*%
X47000000Y-49500000D03*
%TO.P,J2,3*%
%TO.N,Net-(J2-Pad3)*%
X39500000Y-49500000D03*
%TO.P,J2,2*%
%TO.N,Net-(J2-Pad2)*%
X32000000Y-49500000D03*
D20*
%TO.P,J2,1*%
%TO.N,Net-(J2-Pad1)*%
X24500000Y-49500000D03*
%TD*%
D19*
%TO.P,J1,3*%
%TO.N,Net-(F1-Pad1)*%
X116500000Y-49500000D03*
%TO.P,J1,2*%
X109000000Y-49500000D03*
D20*
%TO.P,J1,1*%
X101500000Y-49500000D03*
%TD*%
D21*
%TO.N,/NET_L*%
X91500000Y-71000000D02*
X95000000Y-71000000D01*
X23525010Y-72499491D02*
X90000509Y-72499491D01*
X90000509Y-72499491D02*
X91500000Y-71000000D01*
X95000000Y-71000000D02*
X95000000Y-74000000D01*
X97500000Y-76500000D02*
X97500000Y-80929999D01*
X95000000Y-74000000D02*
X97500000Y-76500000D01*
%TO.N,Net-(F1-Pad1)*%
X116500000Y-49500000D02*
X101500000Y-49500000D01*
X101500000Y-49500000D02*
X101500000Y-61000000D01*
X111500000Y-71000000D02*
X117000000Y-71000000D01*
X101500000Y-61000000D02*
X111500000Y-71000000D01*
D22*
%TO.N,Net-(JP1-Pad1)*%
X72520000Y-106980000D02*
X85000000Y-94500000D01*
X72520000Y-109000000D02*
X72520000Y-106980000D01*
%TD*%
D23*
%TO.N,GND*%
X26238510Y-82413492D02*
X26306203Y-82753808D01*
X26438988Y-83074378D01*
X26631761Y-83362884D01*
X26778877Y-83510000D01*
X26631761Y-83657116D01*
X26438988Y-83945622D01*
X26306203Y-84266192D01*
X26238510Y-84606508D01*
X26238510Y-84953492D01*
X26306203Y-85293808D01*
X26438988Y-85614378D01*
X26631761Y-85902884D01*
X26877116Y-86148239D01*
X27165622Y-86341012D01*
X27486192Y-86473797D01*
X27826508Y-86541490D01*
X28173492Y-86541490D01*
X28513808Y-86473797D01*
X28834378Y-86341012D01*
X29122884Y-86148239D01*
X29368239Y-85902884D01*
X29561012Y-85614378D01*
X29693797Y-85293808D01*
X29761490Y-84953492D01*
X29761490Y-84606508D01*
X29693797Y-84266192D01*
X29561012Y-83945622D01*
X29368239Y-83657116D01*
X29221123Y-83510000D01*
X29368239Y-83362884D01*
X29561012Y-83074378D01*
X29693797Y-82753808D01*
X29761490Y-82413492D01*
X29761490Y-82254000D01*
X36738510Y-82254000D01*
X36738510Y-82413492D01*
X36806203Y-82753808D01*
X36938988Y-83074378D01*
X37131761Y-83362884D01*
X37278877Y-83510000D01*
X37131761Y-83657116D01*
X36938988Y-83945622D01*
X36806203Y-84266192D01*
X36738510Y-84606508D01*
X36738510Y-84953492D01*
X36806203Y-85293808D01*
X36938988Y-85614378D01*
X37131761Y-85902884D01*
X37377116Y-86148239D01*
X37665622Y-86341012D01*
X37986192Y-86473797D01*
X38326508Y-86541490D01*
X38673492Y-86541490D01*
X39013808Y-86473797D01*
X39334378Y-86341012D01*
X39622884Y-86148239D01*
X39868239Y-85902884D01*
X40061012Y-85614378D01*
X40193797Y-85293808D01*
X40261490Y-84953492D01*
X40261490Y-84606508D01*
X40193797Y-84266192D01*
X40061012Y-83945622D01*
X39868239Y-83657116D01*
X39721123Y-83510000D01*
X39868239Y-83362884D01*
X40061012Y-83074378D01*
X40193797Y-82753808D01*
X40261490Y-82413492D01*
X40261490Y-82254000D01*
X47238510Y-82254000D01*
X47238510Y-82413492D01*
X47306203Y-82753808D01*
X47438988Y-83074378D01*
X47631761Y-83362884D01*
X47778877Y-83510000D01*
X47631761Y-83657116D01*
X47438988Y-83945622D01*
X47306203Y-84266192D01*
X47238510Y-84606508D01*
X47238510Y-84953492D01*
X47306203Y-85293808D01*
X47438988Y-85614378D01*
X47631761Y-85902884D01*
X47877116Y-86148239D01*
X48165622Y-86341012D01*
X48486192Y-86473797D01*
X48826508Y-86541490D01*
X49173492Y-86541490D01*
X49513808Y-86473797D01*
X49834378Y-86341012D01*
X50122884Y-86148239D01*
X50368239Y-85902884D01*
X50561012Y-85614378D01*
X50693797Y-85293808D01*
X50761490Y-84953492D01*
X50761490Y-84606508D01*
X50693797Y-84266192D01*
X50561012Y-83945622D01*
X50368239Y-83657116D01*
X50221123Y-83510000D01*
X50368239Y-83362884D01*
X50561012Y-83074378D01*
X50693797Y-82753808D01*
X50761490Y-82413492D01*
X50761490Y-82254000D01*
X57738510Y-82254000D01*
X57738510Y-82413492D01*
X57806203Y-82753808D01*
X57938988Y-83074378D01*
X58131761Y-83362884D01*
X58278877Y-83510000D01*
X58131761Y-83657116D01*
X57938988Y-83945622D01*
X57806203Y-84266192D01*
X57738510Y-84606508D01*
X57738510Y-84953492D01*
X57806203Y-85293808D01*
X57938988Y-85614378D01*
X58131761Y-85902884D01*
X58377116Y-86148239D01*
X58665622Y-86341012D01*
X58986192Y-86473797D01*
X59326508Y-86541490D01*
X59673492Y-86541490D01*
X60013808Y-86473797D01*
X60334378Y-86341012D01*
X60622884Y-86148239D01*
X60868239Y-85902884D01*
X61061012Y-85614378D01*
X61193797Y-85293808D01*
X61261490Y-84953492D01*
X61261490Y-84606508D01*
X61193797Y-84266192D01*
X61061012Y-83945622D01*
X60868239Y-83657116D01*
X60721123Y-83510000D01*
X60868239Y-83362884D01*
X61061012Y-83074378D01*
X61193797Y-82753808D01*
X61261490Y-82413492D01*
X61261490Y-82254000D01*
X68238510Y-82254000D01*
X68238510Y-82413492D01*
X68306203Y-82753808D01*
X68438988Y-83074378D01*
X68631761Y-83362884D01*
X68778877Y-83510000D01*
X68631761Y-83657116D01*
X68438988Y-83945622D01*
X68306203Y-84266192D01*
X68238510Y-84606508D01*
X68238510Y-84953492D01*
X68306203Y-85293808D01*
X68438988Y-85614378D01*
X68631761Y-85902884D01*
X68877116Y-86148239D01*
X69165622Y-86341012D01*
X69486192Y-86473797D01*
X69826508Y-86541490D01*
X70173492Y-86541490D01*
X70513808Y-86473797D01*
X70834378Y-86341012D01*
X71122884Y-86148239D01*
X71368239Y-85902884D01*
X71561012Y-85614378D01*
X71693797Y-85293808D01*
X71761490Y-84953492D01*
X71761490Y-84606508D01*
X71693797Y-84266192D01*
X71561012Y-83945622D01*
X71368239Y-83657116D01*
X71221123Y-83510000D01*
X71368239Y-83362884D01*
X71561012Y-83074378D01*
X71693797Y-82753808D01*
X71761490Y-82413492D01*
X71761490Y-82254000D01*
X78738510Y-82254000D01*
X78738510Y-82413492D01*
X78806203Y-82753808D01*
X78938988Y-83074378D01*
X79131761Y-83362884D01*
X79278877Y-83510000D01*
X79131761Y-83657116D01*
X78938988Y-83945622D01*
X78806203Y-84266192D01*
X78738510Y-84606508D01*
X78738510Y-84953492D01*
X78806203Y-85293808D01*
X78938988Y-85614378D01*
X79131761Y-85902884D01*
X79377116Y-86148239D01*
X79665622Y-86341012D01*
X79986192Y-86473797D01*
X80326508Y-86541490D01*
X80673492Y-86541490D01*
X81013808Y-86473797D01*
X81334378Y-86341012D01*
X81622884Y-86148239D01*
X81868239Y-85902884D01*
X82061012Y-85614378D01*
X82193797Y-85293808D01*
X82261490Y-84953492D01*
X82261490Y-84606508D01*
X82193797Y-84266192D01*
X82061012Y-83945622D01*
X81868239Y-83657116D01*
X81721123Y-83510000D01*
X81868239Y-83362884D01*
X82061012Y-83074378D01*
X82193797Y-82753808D01*
X82261490Y-82413492D01*
X82261490Y-82254000D01*
X86246000Y-82254000D01*
X86246000Y-90000000D01*
X86250881Y-90049553D01*
X86265335Y-90097202D01*
X86288807Y-90141115D01*
X86320395Y-90179605D01*
X91246000Y-95105210D01*
X91246000Y-103500000D01*
X91250881Y-103549553D01*
X91265335Y-103597202D01*
X91288807Y-103641115D01*
X91320395Y-103679605D01*
X91358885Y-103711193D01*
X91402798Y-103734665D01*
X91450447Y-103749119D01*
X91500000Y-103754000D01*
X119746000Y-103754000D01*
X119746000Y-128746000D01*
X21254000Y-128746000D01*
X21254000Y-121950000D01*
X40234314Y-121950000D01*
X40234314Y-124050000D01*
X40253830Y-124248151D01*
X40311628Y-124438686D01*
X40405488Y-124614285D01*
X40531802Y-124768198D01*
X40685715Y-124894512D01*
X40861314Y-124988372D01*
X41051849Y-125046170D01*
X41250000Y-125065686D01*
X42750000Y-125065686D01*
X42948151Y-125046170D01*
X43138686Y-124988372D01*
X43314285Y-124894512D01*
X43468198Y-124768198D01*
X43594512Y-124614285D01*
X43688372Y-124438686D01*
X43746170Y-124248151D01*
X43765686Y-124050000D01*
X43765686Y-123652635D01*
X43864248Y-123977551D01*
X44027862Y-124283651D01*
X44248050Y-124551950D01*
X44516350Y-124772138D01*
X44822450Y-124935752D01*
X45154589Y-125036505D01*
X45500000Y-125070525D01*
X45845412Y-125036505D01*
X46177551Y-124935752D01*
X46483651Y-124772138D01*
X46751950Y-124551950D01*
X46972138Y-124283651D01*
X47135752Y-123977551D01*
X47236505Y-123645411D01*
X47250000Y-123508394D01*
X47263495Y-123645412D01*
X47364248Y-123977551D01*
X47527862Y-124283651D01*
X47748050Y-124551950D01*
X48016350Y-124772138D01*
X48322450Y-124935752D01*
X48654589Y-125036505D01*
X49000000Y-125070525D01*
X49345412Y-125036505D01*
X49677551Y-124935752D01*
X49983651Y-124772138D01*
X50251950Y-124551950D01*
X50472138Y-124283651D01*
X50635752Y-123977551D01*
X50736505Y-123645411D01*
X50750000Y-123508394D01*
X50763495Y-123645412D01*
X50864248Y-123977551D01*
X51027862Y-124283651D01*
X51248050Y-124551950D01*
X51516350Y-124772138D01*
X51822450Y-124935752D01*
X52154589Y-125036505D01*
X52500000Y-125070525D01*
X52845412Y-125036505D01*
X53177551Y-124935752D01*
X53483651Y-124772138D01*
X53751950Y-124551950D01*
X53972138Y-124283651D01*
X54135752Y-123977551D01*
X54236505Y-123645411D01*
X54250000Y-123508394D01*
X54263495Y-123645412D01*
X54364248Y-123977551D01*
X54527862Y-124283651D01*
X54748050Y-124551950D01*
X55016350Y-124772138D01*
X55322450Y-124935752D01*
X55654589Y-125036505D01*
X56000000Y-125070525D01*
X56345412Y-125036505D01*
X56677551Y-124935752D01*
X56983651Y-124772138D01*
X57251950Y-124551950D01*
X57472138Y-124283651D01*
X57635752Y-123977551D01*
X57736505Y-123645411D01*
X57750000Y-123508394D01*
X57763495Y-123645412D01*
X57864248Y-123977551D01*
X58027862Y-124283651D01*
X58248050Y-124551950D01*
X58516350Y-124772138D01*
X58822450Y-124935752D01*
X59154589Y-125036505D01*
X59500000Y-125070525D01*
X59845412Y-125036505D01*
X60177551Y-124935752D01*
X60483651Y-124772138D01*
X60751950Y-124551950D01*
X60972138Y-124283651D01*
X61135752Y-123977551D01*
X61236505Y-123645411D01*
X61250000Y-123508394D01*
X61263495Y-123645412D01*
X61364248Y-123977551D01*
X61527862Y-124283651D01*
X61748050Y-124551950D01*
X62016350Y-124772138D01*
X62322450Y-124935752D01*
X62654589Y-125036505D01*
X63000000Y-125070525D01*
X63345412Y-125036505D01*
X63677551Y-124935752D01*
X63983651Y-124772138D01*
X64251950Y-124551950D01*
X64472138Y-124283651D01*
X64635752Y-123977551D01*
X64736505Y-123645411D01*
X64750000Y-123508394D01*
X64763495Y-123645412D01*
X64864248Y-123977551D01*
X65027862Y-124283651D01*
X65248050Y-124551950D01*
X65516350Y-124772138D01*
X65822450Y-124935752D01*
X66154589Y-125036505D01*
X66500000Y-125070525D01*
X66845412Y-125036505D01*
X67177551Y-124935752D01*
X67483651Y-124772138D01*
X67751950Y-124551950D01*
X67972138Y-124283651D01*
X68135752Y-123977551D01*
X68236505Y-123645411D01*
X68262000Y-123386555D01*
X68262000Y-122613444D01*
X68236505Y-122354588D01*
X68135752Y-122022449D01*
X68097028Y-121950000D01*
X77234314Y-121950000D01*
X77234314Y-124050000D01*
X77253830Y-124248151D01*
X77311628Y-124438686D01*
X77405488Y-124614285D01*
X77531802Y-124768198D01*
X77685715Y-124894512D01*
X77861314Y-124988372D01*
X78051849Y-125046170D01*
X78250000Y-125065686D01*
X79750000Y-125065686D01*
X79948151Y-125046170D01*
X80138686Y-124988372D01*
X80314285Y-124894512D01*
X80468198Y-124768198D01*
X80594512Y-124614285D01*
X80688372Y-124438686D01*
X80746170Y-124248151D01*
X80765686Y-124050000D01*
X80765686Y-123652635D01*
X80864248Y-123977551D01*
X81027862Y-124283651D01*
X81248050Y-124551950D01*
X81516350Y-124772138D01*
X81822450Y-124935752D01*
X82154589Y-125036505D01*
X82500000Y-125070525D01*
X82845412Y-125036505D01*
X83177551Y-124935752D01*
X83483651Y-124772138D01*
X83751950Y-124551950D01*
X83972138Y-124283651D01*
X84135752Y-123977551D01*
X84236505Y-123645411D01*
X84250000Y-123508394D01*
X84263495Y-123645412D01*
X84364248Y-123977551D01*
X84527862Y-124283651D01*
X84748050Y-124551950D01*
X85016350Y-124772138D01*
X85322450Y-124935752D01*
X85654589Y-125036505D01*
X86000000Y-125070525D01*
X86345412Y-125036505D01*
X86677551Y-124935752D01*
X86983651Y-124772138D01*
X87251950Y-124551950D01*
X87472138Y-124283651D01*
X87635752Y-123977551D01*
X87736505Y-123645411D01*
X87752064Y-123487441D01*
X87790585Y-123737905D01*
X87908862Y-124062981D01*
X88088285Y-124358736D01*
X88321960Y-124613805D01*
X88600906Y-124818385D01*
X88914404Y-124964614D01*
X89129954Y-125022704D01*
X89404000Y-124868565D01*
X89404000Y-123096000D01*
X89596000Y-123096000D01*
X89596000Y-124868565D01*
X89870046Y-125022704D01*
X90085596Y-124964614D01*
X90399094Y-124818385D01*
X90678040Y-124613805D01*
X90911715Y-124358736D01*
X91091138Y-124062981D01*
X91209415Y-123737905D01*
X91262000Y-123396000D01*
X91262000Y-123096000D01*
X89596000Y-123096000D01*
X89404000Y-123096000D01*
X89384000Y-123096000D01*
X89384000Y-122904000D01*
X89404000Y-122904000D01*
X89404000Y-121131435D01*
X89596000Y-121131435D01*
X89596000Y-122904000D01*
X91262000Y-122904000D01*
X91262000Y-122604000D01*
X91209415Y-122262095D01*
X91095862Y-121950000D01*
X98734314Y-121950000D01*
X98734314Y-124050000D01*
X98753830Y-124248151D01*
X98811628Y-124438686D01*
X98905488Y-124614285D01*
X99031802Y-124768198D01*
X99185715Y-124894512D01*
X99361314Y-124988372D01*
X99551849Y-125046170D01*
X99750000Y-125065686D01*
X101250000Y-125065686D01*
X101448151Y-125046170D01*
X101638686Y-124988372D01*
X101814285Y-124894512D01*
X101968198Y-124768198D01*
X102094512Y-124614285D01*
X102188372Y-124438686D01*
X102246170Y-124248151D01*
X102265686Y-124050000D01*
X102265686Y-123652635D01*
X102364248Y-123977551D01*
X102527862Y-124283651D01*
X102748050Y-124551950D01*
X103016350Y-124772138D01*
X103322450Y-124935752D01*
X103654589Y-125036505D01*
X104000000Y-125070525D01*
X104345412Y-125036505D01*
X104677551Y-124935752D01*
X104983651Y-124772138D01*
X105251950Y-124551950D01*
X105472138Y-124283651D01*
X105635752Y-123977551D01*
X105736505Y-123645411D01*
X105752064Y-123487441D01*
X105790585Y-123737905D01*
X105908862Y-124062981D01*
X106088285Y-124358736D01*
X106321960Y-124613805D01*
X106600906Y-124818385D01*
X106914404Y-124964614D01*
X107129954Y-125022704D01*
X107404000Y-124868565D01*
X107404000Y-123096000D01*
X107596000Y-123096000D01*
X107596000Y-124868565D01*
X107870046Y-125022704D01*
X108085596Y-124964614D01*
X108399094Y-124818385D01*
X108678040Y-124613805D01*
X108911715Y-124358736D01*
X109091138Y-124062981D01*
X109209415Y-123737905D01*
X109250000Y-123474023D01*
X109290585Y-123737905D01*
X109408862Y-124062981D01*
X109588285Y-124358736D01*
X109821960Y-124613805D01*
X110100906Y-124818385D01*
X110414404Y-124964614D01*
X110629954Y-125022704D01*
X110904000Y-124868565D01*
X110904000Y-123096000D01*
X111096000Y-123096000D01*
X111096000Y-124868565D01*
X111370046Y-125022704D01*
X111585596Y-124964614D01*
X111899094Y-124818385D01*
X112178040Y-124613805D01*
X112411715Y-124358736D01*
X112591138Y-124062981D01*
X112709415Y-123737905D01*
X112762000Y-123396000D01*
X112762000Y-123096000D01*
X111096000Y-123096000D01*
X110904000Y-123096000D01*
X107596000Y-123096000D01*
X107404000Y-123096000D01*
X107384000Y-123096000D01*
X107384000Y-122904000D01*
X107404000Y-122904000D01*
X107404000Y-121131435D01*
X107596000Y-121131435D01*
X107596000Y-122904000D01*
X110904000Y-122904000D01*
X110904000Y-121131435D01*
X111096000Y-121131435D01*
X111096000Y-122904000D01*
X112762000Y-122904000D01*
X112762000Y-122604000D01*
X112709415Y-122262095D01*
X112591138Y-121937019D01*
X112411715Y-121641264D01*
X112178040Y-121386195D01*
X111899094Y-121181615D01*
X111585596Y-121035386D01*
X111370046Y-120977296D01*
X111096000Y-121131435D01*
X110904000Y-121131435D01*
X110629954Y-120977296D01*
X110414404Y-121035386D01*
X110100906Y-121181615D01*
X109821960Y-121386195D01*
X109588285Y-121641264D01*
X109408862Y-121937019D01*
X109290585Y-122262095D01*
X109250000Y-122525977D01*
X109209415Y-122262095D01*
X109091138Y-121937019D01*
X108911715Y-121641264D01*
X108678040Y-121386195D01*
X108399094Y-121181615D01*
X108085596Y-121035386D01*
X107870046Y-120977296D01*
X107596000Y-121131435D01*
X107404000Y-121131435D01*
X107129954Y-120977296D01*
X106914404Y-121035386D01*
X106600906Y-121181615D01*
X106321960Y-121386195D01*
X106088285Y-121641264D01*
X105908862Y-121937019D01*
X105790585Y-122262095D01*
X105752064Y-122512559D01*
X105736505Y-122354588D01*
X105635752Y-122022449D01*
X105472138Y-121716349D01*
X105251950Y-121448050D01*
X104983650Y-121227862D01*
X104677550Y-121064248D01*
X104345411Y-120963495D01*
X104000000Y-120929475D01*
X103654588Y-120963495D01*
X103322449Y-121064248D01*
X103016349Y-121227862D01*
X102748050Y-121448050D01*
X102527862Y-121716350D01*
X102364248Y-122022450D01*
X102265686Y-122347366D01*
X102265686Y-121950000D01*
X102246170Y-121751849D01*
X102188372Y-121561314D01*
X102094512Y-121385715D01*
X101968198Y-121231802D01*
X101814285Y-121105488D01*
X101638686Y-121011628D01*
X101448151Y-120953830D01*
X101250000Y-120934314D01*
X99750000Y-120934314D01*
X99551849Y-120953830D01*
X99361314Y-121011628D01*
X99185715Y-121105488D01*
X99031802Y-121231802D01*
X98905488Y-121385715D01*
X98811628Y-121561314D01*
X98753830Y-121751849D01*
X98734314Y-121950000D01*
X91095862Y-121950000D01*
X91091138Y-121937019D01*
X90911715Y-121641264D01*
X90678040Y-121386195D01*
X90399094Y-121181615D01*
X90085596Y-121035386D01*
X89870046Y-120977296D01*
X89596000Y-121131435D01*
X89404000Y-121131435D01*
X89129954Y-120977296D01*
X88914404Y-121035386D01*
X88600906Y-121181615D01*
X88321960Y-121386195D01*
X88088285Y-121641264D01*
X87908862Y-121937019D01*
X87790585Y-122262095D01*
X87752064Y-122512559D01*
X87736505Y-122354588D01*
X87635752Y-122022449D01*
X87472138Y-121716349D01*
X87251950Y-121448050D01*
X86983650Y-121227862D01*
X86677550Y-121064248D01*
X86345411Y-120963495D01*
X86000000Y-120929475D01*
X85654588Y-120963495D01*
X85322449Y-121064248D01*
X85016349Y-121227862D01*
X84748050Y-121448050D01*
X84527862Y-121716350D01*
X84364248Y-122022450D01*
X84263495Y-122354589D01*
X84250000Y-122491606D01*
X84236505Y-122354588D01*
X84135752Y-122022449D01*
X83972138Y-121716349D01*
X83751950Y-121448050D01*
X83483650Y-121227862D01*
X83177550Y-121064248D01*
X82845411Y-120963495D01*
X82500000Y-120929475D01*
X82154588Y-120963495D01*
X81822449Y-121064248D01*
X81516349Y-121227862D01*
X81248050Y-121448050D01*
X81027862Y-121716350D01*
X80864248Y-122022450D01*
X80765686Y-122347366D01*
X80765686Y-121950000D01*
X80746170Y-121751849D01*
X80688372Y-121561314D01*
X80594512Y-121385715D01*
X80468198Y-121231802D01*
X80314285Y-121105488D01*
X80138686Y-121011628D01*
X79948151Y-120953830D01*
X79750000Y-120934314D01*
X78250000Y-120934314D01*
X78051849Y-120953830D01*
X77861314Y-121011628D01*
X77685715Y-121105488D01*
X77531802Y-121231802D01*
X77405488Y-121385715D01*
X77311628Y-121561314D01*
X77253830Y-121751849D01*
X77234314Y-121950000D01*
X68097028Y-121950000D01*
X67972138Y-121716349D01*
X67751950Y-121448050D01*
X67483650Y-121227862D01*
X67177550Y-121064248D01*
X66845411Y-120963495D01*
X66500000Y-120929475D01*
X66154588Y-120963495D01*
X65822449Y-121064248D01*
X65516349Y-121227862D01*
X65248050Y-121448050D01*
X65027862Y-121716350D01*
X64864248Y-122022450D01*
X64763495Y-122354589D01*
X64750000Y-122491606D01*
X64736505Y-122354588D01*
X64635752Y-122022449D01*
X64472138Y-121716349D01*
X64251950Y-121448050D01*
X63983650Y-121227862D01*
X63677550Y-121064248D01*
X63345411Y-120963495D01*
X63000000Y-120929475D01*
X62654588Y-120963495D01*
X62322449Y-121064248D01*
X62016349Y-121227862D01*
X61748050Y-121448050D01*
X61527862Y-121716350D01*
X61364248Y-122022450D01*
X61263495Y-122354589D01*
X61250000Y-122491606D01*
X61236505Y-122354588D01*
X61135752Y-122022449D01*
X60972138Y-121716349D01*
X60751950Y-121448050D01*
X60483650Y-121227862D01*
X60177550Y-121064248D01*
X59845411Y-120963495D01*
X59500000Y-120929475D01*
X59154588Y-120963495D01*
X58822449Y-121064248D01*
X58516349Y-121227862D01*
X58248050Y-121448050D01*
X58027862Y-121716350D01*
X57864248Y-122022450D01*
X57763495Y-122354589D01*
X57750000Y-122491606D01*
X57736505Y-122354588D01*
X57635752Y-122022449D01*
X57472138Y-121716349D01*
X57251950Y-121448050D01*
X56983650Y-121227862D01*
X56677550Y-121064248D01*
X56345411Y-120963495D01*
X56000000Y-120929475D01*
X55654588Y-120963495D01*
X55322449Y-121064248D01*
X55016349Y-121227862D01*
X54748050Y-121448050D01*
X54527862Y-121716350D01*
X54364248Y-122022450D01*
X54263495Y-122354589D01*
X54250000Y-122491606D01*
X54236505Y-122354588D01*
X54135752Y-122022449D01*
X53972138Y-121716349D01*
X53751950Y-121448050D01*
X53483650Y-121227862D01*
X53177550Y-121064248D01*
X52845411Y-120963495D01*
X52500000Y-120929475D01*
X52154588Y-120963495D01*
X51822449Y-121064248D01*
X51516349Y-121227862D01*
X51248050Y-121448050D01*
X51027862Y-121716350D01*
X50864248Y-122022450D01*
X50763495Y-122354589D01*
X50750000Y-122491606D01*
X50736505Y-122354588D01*
X50635752Y-122022449D01*
X50472138Y-121716349D01*
X50251950Y-121448050D01*
X49983650Y-121227862D01*
X49677550Y-121064248D01*
X49345411Y-120963495D01*
X49000000Y-120929475D01*
X48654588Y-120963495D01*
X48322449Y-121064248D01*
X48016349Y-121227862D01*
X47748050Y-121448050D01*
X47527862Y-121716350D01*
X47364248Y-122022450D01*
X47263495Y-122354589D01*
X47250000Y-122491606D01*
X47236505Y-122354588D01*
X47135752Y-122022449D01*
X46972138Y-121716349D01*
X46751950Y-121448050D01*
X46483650Y-121227862D01*
X46177550Y-121064248D01*
X45845411Y-120963495D01*
X45500000Y-120929475D01*
X45154588Y-120963495D01*
X44822449Y-121064248D01*
X44516349Y-121227862D01*
X44248050Y-121448050D01*
X44027862Y-121716350D01*
X43864248Y-122022450D01*
X43765686Y-122347366D01*
X43765686Y-121950000D01*
X43746170Y-121751849D01*
X43688372Y-121561314D01*
X43594512Y-121385715D01*
X43468198Y-121231802D01*
X43314285Y-121105488D01*
X43138686Y-121011628D01*
X42948151Y-120953830D01*
X42750000Y-120934314D01*
X41250000Y-120934314D01*
X41051849Y-120953830D01*
X40861314Y-121011628D01*
X40685715Y-121105488D01*
X40531802Y-121231802D01*
X40405488Y-121385715D01*
X40311628Y-121561314D01*
X40253830Y-121751849D01*
X40234314Y-121950000D01*
X21254000Y-121950000D01*
X21254000Y-113707149D01*
X21796000Y-113707149D01*
X21796000Y-114692851D01*
X21988301Y-115659613D01*
X22365513Y-116570283D01*
X22913140Y-117389864D01*
X23610136Y-118086860D01*
X24429717Y-118634487D01*
X25340387Y-119011699D01*
X26307149Y-119204000D01*
X27292851Y-119204000D01*
X28259613Y-119011699D01*
X29170283Y-118634487D01*
X29989864Y-118086860D01*
X30686860Y-117389864D01*
X31234487Y-116570283D01*
X31611699Y-115659613D01*
X31804000Y-114692851D01*
X31804000Y-113707149D01*
X31611699Y-112740387D01*
X31234487Y-111829717D01*
X31209075Y-111791684D01*
X95588000Y-111791684D01*
X95588000Y-112168316D01*
X95661477Y-112537710D01*
X95805608Y-112885671D01*
X96014853Y-113198829D01*
X96281171Y-113465147D01*
X96594329Y-113674392D01*
X96942290Y-113818523D01*
X97311684Y-113892000D01*
X97688316Y-113892000D01*
X98057710Y-113818523D01*
X98405671Y-113674392D01*
X98718829Y-113465147D01*
X98914152Y-113269824D01*
X114125940Y-113269824D01*
X114229794Y-113588811D01*
X114563837Y-113762783D01*
X114925402Y-113868244D01*
X115300593Y-113901141D01*
X115674993Y-113860209D01*
X116034214Y-113747022D01*
X116330206Y-113588811D01*
X116434060Y-113269824D01*
X115280000Y-112115765D01*
X114125940Y-113269824D01*
X98914152Y-113269824D01*
X98985147Y-113198829D01*
X99194392Y-112885671D01*
X99338523Y-112537710D01*
X99412000Y-112168316D01*
X99412000Y-112000593D01*
X113358859Y-112000593D01*
X113399791Y-112374993D01*
X113512978Y-112734214D01*
X113671189Y-113030206D01*
X113990176Y-113134060D01*
X115144235Y-111980000D01*
X115415765Y-111980000D01*
X116569824Y-113134060D01*
X116888811Y-113030206D01*
X117062783Y-112696163D01*
X117168244Y-112334598D01*
X117201141Y-111959407D01*
X117160209Y-111585007D01*
X117047022Y-111225786D01*
X116888811Y-110929794D01*
X116569824Y-110825940D01*
X115415765Y-111980000D01*
X115144235Y-111980000D01*
X113990176Y-110825940D01*
X113671189Y-110929794D01*
X113497217Y-111263837D01*
X113391756Y-111625402D01*
X113358859Y-112000593D01*
X99412000Y-112000593D01*
X99412000Y-111791684D01*
X99338523Y-111422290D01*
X99194392Y-111074329D01*
X98985147Y-110761171D01*
X98914152Y-110690176D01*
X114125940Y-110690176D01*
X115280000Y-111844235D01*
X116434060Y-110690176D01*
X116330206Y-110371189D01*
X115996163Y-110197217D01*
X115634598Y-110091756D01*
X115259407Y-110058859D01*
X114885007Y-110099791D01*
X114525786Y-110212978D01*
X114229794Y-110371189D01*
X114125940Y-110690176D01*
X98914152Y-110690176D01*
X98718829Y-110494853D01*
X98405671Y-110285608D01*
X98057710Y-110141477D01*
X97688316Y-110068000D01*
X97311684Y-110068000D01*
X96942290Y-110141477D01*
X96594329Y-110285608D01*
X96281171Y-110494853D01*
X96014853Y-110761171D01*
X95805608Y-111074329D01*
X95661477Y-111422290D01*
X95588000Y-111791684D01*
X31209075Y-111791684D01*
X30686860Y-111010136D01*
X29989864Y-110313140D01*
X29296727Y-109850000D01*
X37884313Y-109850000D01*
X37899025Y-109999378D01*
X37942597Y-110143016D01*
X38013355Y-110275393D01*
X38108578Y-110391422D01*
X38224607Y-110486645D01*
X38356984Y-110557403D01*
X38500622Y-110600975D01*
X38650000Y-110615687D01*
X39213500Y-110612000D01*
X39404000Y-110421500D01*
X39404000Y-109096000D01*
X38078500Y-109096000D01*
X37888000Y-109286500D01*
X37884313Y-109850000D01*
X29296727Y-109850000D01*
X29170283Y-109765513D01*
X28259613Y-109388301D01*
X27292851Y-109196000D01*
X26307149Y-109196000D01*
X25340387Y-109388301D01*
X24429717Y-109765513D01*
X23610136Y-110313140D01*
X22913140Y-111010136D01*
X22365513Y-111829717D01*
X21988301Y-112740387D01*
X21796000Y-113707149D01*
X21254000Y-113707149D01*
X21254000Y-108150000D01*
X37884313Y-108150000D01*
X37888000Y-108713500D01*
X38078500Y-108904000D01*
X39404000Y-108904000D01*
X39404000Y-107578500D01*
X39596000Y-107578500D01*
X39596000Y-108904000D01*
X39616000Y-108904000D01*
X39616000Y-109096000D01*
X39596000Y-109096000D01*
X39596000Y-110421500D01*
X39786500Y-110612000D01*
X40350000Y-110615687D01*
X40499378Y-110600975D01*
X40643016Y-110557403D01*
X40775393Y-110486645D01*
X40891422Y-110391422D01*
X40986645Y-110275393D01*
X41003726Y-110243438D01*
X41012410Y-110252122D01*
X41276432Y-110428536D01*
X41569797Y-110550052D01*
X41881232Y-110612000D01*
X42198768Y-110612000D01*
X42510203Y-110550052D01*
X42803568Y-110428536D01*
X43067590Y-110252122D01*
X43292122Y-110027590D01*
X43310000Y-110000834D01*
X43327878Y-110027590D01*
X43552410Y-110252122D01*
X43816432Y-110428536D01*
X44109797Y-110550052D01*
X44421232Y-110612000D01*
X44738768Y-110612000D01*
X45050203Y-110550052D01*
X45343568Y-110428536D01*
X45607590Y-110252122D01*
X45832122Y-110027590D01*
X45850000Y-110000834D01*
X45867878Y-110027590D01*
X46092410Y-110252122D01*
X46356432Y-110428536D01*
X46649797Y-110550052D01*
X46961232Y-110612000D01*
X47278768Y-110612000D01*
X47590203Y-110550052D01*
X47883568Y-110428536D01*
X48147590Y-110252122D01*
X48372122Y-110027590D01*
X48390000Y-110000834D01*
X48407878Y-110027590D01*
X48632410Y-110252122D01*
X48896432Y-110428536D01*
X49189797Y-110550052D01*
X49501232Y-110612000D01*
X49818768Y-110612000D01*
X50130203Y-110550052D01*
X50423568Y-110428536D01*
X50687590Y-110252122D01*
X50912122Y-110027590D01*
X50930000Y-110000834D01*
X50947878Y-110027590D01*
X51172410Y-110252122D01*
X51436432Y-110428536D01*
X51729797Y-110550052D01*
X52041232Y-110612000D01*
X52358768Y-110612000D01*
X52670203Y-110550052D01*
X52963568Y-110428536D01*
X53227590Y-110252122D01*
X53452122Y-110027590D01*
X53470000Y-110000834D01*
X53487878Y-110027590D01*
X53712410Y-110252122D01*
X53976432Y-110428536D01*
X54269797Y-110550052D01*
X54581232Y-110612000D01*
X54898768Y-110612000D01*
X55210203Y-110550052D01*
X55503568Y-110428536D01*
X55767590Y-110252122D01*
X55992122Y-110027590D01*
X56010000Y-110000834D01*
X56027878Y-110027590D01*
X56252410Y-110252122D01*
X56516432Y-110428536D01*
X56809797Y-110550052D01*
X57121232Y-110612000D01*
X57438768Y-110612000D01*
X57750203Y-110550052D01*
X58043568Y-110428536D01*
X58307590Y-110252122D01*
X58532122Y-110027590D01*
X58550000Y-110000834D01*
X58567878Y-110027590D01*
X58792410Y-110252122D01*
X59056432Y-110428536D01*
X59349797Y-110550052D01*
X59661232Y-110612000D01*
X59978768Y-110612000D01*
X60290203Y-110550052D01*
X60583568Y-110428536D01*
X60847590Y-110252122D01*
X61023445Y-110076267D01*
X61419497Y-110076267D01*
X61487244Y-110364570D01*
X61770228Y-110508616D01*
X62075877Y-110594687D01*
X62392445Y-110619475D01*
X62707766Y-110582028D01*
X63009722Y-110483784D01*
X63232756Y-110364570D01*
X63300503Y-110076267D01*
X63959497Y-110076267D01*
X64027244Y-110364570D01*
X64310228Y-110508616D01*
X64615877Y-110594687D01*
X64932445Y-110619475D01*
X65247766Y-110582028D01*
X65549722Y-110483784D01*
X65772756Y-110364570D01*
X65840503Y-110076267D01*
X66499497Y-110076267D01*
X66567244Y-110364570D01*
X66850228Y-110508616D01*
X67155877Y-110594687D01*
X67472445Y-110619475D01*
X67787766Y-110582028D01*
X68089722Y-110483784D01*
X68312756Y-110364570D01*
X68380503Y-110076267D01*
X67440000Y-109135765D01*
X66499497Y-110076267D01*
X65840503Y-110076267D01*
X64900000Y-109135765D01*
X63959497Y-110076267D01*
X63300503Y-110076267D01*
X62360000Y-109135765D01*
X61419497Y-110076267D01*
X61023445Y-110076267D01*
X61072122Y-110027590D01*
X61151132Y-109909344D01*
X61283733Y-109940503D01*
X62224235Y-109000000D01*
X62495765Y-109000000D01*
X63436267Y-109940503D01*
X63630000Y-109894979D01*
X63823733Y-109940503D01*
X64764235Y-109000000D01*
X65035765Y-109000000D01*
X65976267Y-109940503D01*
X66170000Y-109894979D01*
X66363733Y-109940503D01*
X67304235Y-109000000D01*
X67575765Y-109000000D01*
X68516267Y-109940503D01*
X68804570Y-109872756D01*
X68948616Y-109589772D01*
X69034687Y-109284123D01*
X69059475Y-108967555D01*
X69044474Y-108841232D01*
X70908000Y-108841232D01*
X70908000Y-109158768D01*
X70969948Y-109470203D01*
X71091464Y-109763568D01*
X71267878Y-110027590D01*
X71492410Y-110252122D01*
X71756432Y-110428536D01*
X72049797Y-110550052D01*
X72361232Y-110612000D01*
X72678768Y-110612000D01*
X72990203Y-110550052D01*
X73283568Y-110428536D01*
X73547590Y-110252122D01*
X73772122Y-110027590D01*
X73948536Y-109763568D01*
X74070052Y-109470203D01*
X74132000Y-109158768D01*
X74132000Y-108841232D01*
X75988000Y-108841232D01*
X75988000Y-109158768D01*
X76049948Y-109470203D01*
X76171464Y-109763568D01*
X76347878Y-110027590D01*
X76572410Y-110252122D01*
X76836432Y-110428536D01*
X77129797Y-110550052D01*
X77441232Y-110612000D01*
X77758768Y-110612000D01*
X78070203Y-110550052D01*
X78363568Y-110428536D01*
X78627590Y-110252122D01*
X78852122Y-110027590D01*
X79028536Y-109763568D01*
X79150052Y-109470203D01*
X79212000Y-109158768D01*
X79212000Y-108841232D01*
X79150052Y-108529797D01*
X79028536Y-108236432D01*
X78852122Y-107972410D01*
X78627590Y-107747878D01*
X78363568Y-107571464D01*
X78070203Y-107449948D01*
X77758768Y-107388000D01*
X77441232Y-107388000D01*
X77129797Y-107449948D01*
X76836432Y-107571464D01*
X76572410Y-107747878D01*
X76347878Y-107972410D01*
X76171464Y-108236432D01*
X76049948Y-108529797D01*
X75988000Y-108841232D01*
X74132000Y-108841232D01*
X74070052Y-108529797D01*
X73948536Y-108236432D01*
X73782000Y-107987193D01*
X73782000Y-107502736D01*
X74573052Y-106711684D01*
X113368000Y-106711684D01*
X113368000Y-107088316D01*
X113441477Y-107457710D01*
X113585608Y-107805671D01*
X113794853Y-108118829D01*
X114061171Y-108385147D01*
X114374329Y-108594392D01*
X114722290Y-108738523D01*
X115091684Y-108812000D01*
X115468316Y-108812000D01*
X115837710Y-108738523D01*
X116185671Y-108594392D01*
X116498829Y-108385147D01*
X116765147Y-108118829D01*
X116974392Y-107805671D01*
X117118523Y-107457710D01*
X117192000Y-107088316D01*
X117192000Y-106711684D01*
X117118523Y-106342290D01*
X116974392Y-105994329D01*
X116765147Y-105681171D01*
X116498829Y-105414853D01*
X116185671Y-105205608D01*
X115837710Y-105061477D01*
X115468316Y-104988000D01*
X115091684Y-104988000D01*
X114722290Y-105061477D01*
X114374329Y-105205608D01*
X114061171Y-105414853D01*
X113794853Y-105681171D01*
X113585608Y-105994329D01*
X113441477Y-106342290D01*
X113368000Y-106711684D01*
X74573052Y-106711684D01*
X85169052Y-96115686D01*
X85850000Y-96115686D01*
X85999378Y-96100974D01*
X86143015Y-96057402D01*
X86275392Y-95986645D01*
X86391422Y-95891422D01*
X86486645Y-95775392D01*
X86557402Y-95643015D01*
X86600974Y-95499378D01*
X86615686Y-95350000D01*
X86615686Y-93650000D01*
X86600974Y-93500622D01*
X86557402Y-93356985D01*
X86486645Y-93224608D01*
X86391422Y-93108578D01*
X86275392Y-93013355D01*
X86243437Y-92996275D01*
X86252122Y-92987590D01*
X86428536Y-92723568D01*
X86550052Y-92430203D01*
X86612000Y-92118768D01*
X86612000Y-91801232D01*
X86550052Y-91489797D01*
X86428536Y-91196432D01*
X86252122Y-90932410D01*
X86027590Y-90707878D01*
X85763568Y-90531464D01*
X85470203Y-90409948D01*
X85158768Y-90348000D01*
X84841232Y-90348000D01*
X84529797Y-90409948D01*
X84236432Y-90531464D01*
X83972410Y-90707878D01*
X83747878Y-90932410D01*
X83571464Y-91196432D01*
X83449948Y-91489797D01*
X83388000Y-91801232D01*
X83388000Y-92118768D01*
X83449948Y-92430203D01*
X83571464Y-92723568D01*
X83747878Y-92987590D01*
X83756563Y-92996275D01*
X83724608Y-93013355D01*
X83608578Y-93108578D01*
X83513355Y-93224608D01*
X83442598Y-93356985D01*
X83399026Y-93500622D01*
X83384314Y-93650000D01*
X83384314Y-94330948D01*
X71671470Y-106043794D01*
X71623315Y-106083314D01*
X71583795Y-106131469D01*
X71583794Y-106131470D01*
X71465609Y-106275478D01*
X71348424Y-106494717D01*
X71276260Y-106732605D01*
X71251895Y-106980000D01*
X71258001Y-107041998D01*
X71258001Y-107987193D01*
X71091464Y-108236432D01*
X70969948Y-108529797D01*
X70908000Y-108841232D01*
X69044474Y-108841232D01*
X69022028Y-108652234D01*
X68923784Y-108350278D01*
X68804570Y-108127244D01*
X68516267Y-108059497D01*
X67575765Y-109000000D01*
X67304235Y-109000000D01*
X66363733Y-108059497D01*
X66170000Y-108105021D01*
X65976267Y-108059497D01*
X65035765Y-109000000D01*
X64764235Y-109000000D01*
X63823733Y-108059497D01*
X63630000Y-108105021D01*
X63436267Y-108059497D01*
X62495765Y-109000000D01*
X62224235Y-109000000D01*
X61283733Y-108059497D01*
X61151132Y-108090656D01*
X61072122Y-107972410D01*
X61023445Y-107923733D01*
X61419497Y-107923733D01*
X62360000Y-108864235D01*
X63300503Y-107923733D01*
X63959497Y-107923733D01*
X64900000Y-108864235D01*
X65840503Y-107923733D01*
X66499497Y-107923733D01*
X67440000Y-108864235D01*
X68380503Y-107923733D01*
X68312756Y-107635430D01*
X68029772Y-107491384D01*
X67724123Y-107405313D01*
X67407555Y-107380525D01*
X67092234Y-107417972D01*
X66790278Y-107516216D01*
X66567244Y-107635430D01*
X66499497Y-107923733D01*
X65840503Y-107923733D01*
X65772756Y-107635430D01*
X65489772Y-107491384D01*
X65184123Y-107405313D01*
X64867555Y-107380525D01*
X64552234Y-107417972D01*
X64250278Y-107516216D01*
X64027244Y-107635430D01*
X63959497Y-107923733D01*
X63300503Y-107923733D01*
X63232756Y-107635430D01*
X62949772Y-107491384D01*
X62644123Y-107405313D01*
X62327555Y-107380525D01*
X62012234Y-107417972D01*
X61710278Y-107516216D01*
X61487244Y-107635430D01*
X61419497Y-107923733D01*
X61023445Y-107923733D01*
X60847590Y-107747878D01*
X60583568Y-107571464D01*
X60290203Y-107449948D01*
X59978768Y-107388000D01*
X59661232Y-107388000D01*
X59349797Y-107449948D01*
X59056432Y-107571464D01*
X58792410Y-107747878D01*
X58567878Y-107972410D01*
X58550000Y-107999166D01*
X58532122Y-107972410D01*
X58307590Y-107747878D01*
X58043568Y-107571464D01*
X57750203Y-107449948D01*
X57438768Y-107388000D01*
X57121232Y-107388000D01*
X56809797Y-107449948D01*
X56516432Y-107571464D01*
X56252410Y-107747878D01*
X56027878Y-107972410D01*
X56010000Y-107999166D01*
X55992122Y-107972410D01*
X55767590Y-107747878D01*
X55503568Y-107571464D01*
X55210203Y-107449948D01*
X54898768Y-107388000D01*
X54581232Y-107388000D01*
X54269797Y-107449948D01*
X53976432Y-107571464D01*
X53712410Y-107747878D01*
X53487878Y-107972410D01*
X53470000Y-107999166D01*
X53452122Y-107972410D01*
X53227590Y-107747878D01*
X52963568Y-107571464D01*
X52670203Y-107449948D01*
X52358768Y-107388000D01*
X52041232Y-107388000D01*
X51729797Y-107449948D01*
X51436432Y-107571464D01*
X51172410Y-107747878D01*
X50947878Y-107972410D01*
X50930000Y-107999166D01*
X50912122Y-107972410D01*
X50687590Y-107747878D01*
X50423568Y-107571464D01*
X50130203Y-107449948D01*
X49818768Y-107388000D01*
X49501232Y-107388000D01*
X49189797Y-107449948D01*
X48896432Y-107571464D01*
X48632410Y-107747878D01*
X48407878Y-107972410D01*
X48390000Y-107999166D01*
X48372122Y-107972410D01*
X48147590Y-107747878D01*
X47883568Y-107571464D01*
X47590203Y-107449948D01*
X47278768Y-107388000D01*
X46961232Y-107388000D01*
X46649797Y-107449948D01*
X46356432Y-107571464D01*
X46092410Y-107747878D01*
X45867878Y-107972410D01*
X45850000Y-107999166D01*
X45832122Y-107972410D01*
X45607590Y-107747878D01*
X45343568Y-107571464D01*
X45050203Y-107449948D01*
X44738768Y-107388000D01*
X44421232Y-107388000D01*
X44109797Y-107449948D01*
X43816432Y-107571464D01*
X43552410Y-107747878D01*
X43327878Y-107972410D01*
X43310000Y-107999166D01*
X43292122Y-107972410D01*
X43067590Y-107747878D01*
X42803568Y-107571464D01*
X42510203Y-107449948D01*
X42198768Y-107388000D01*
X41881232Y-107388000D01*
X41569797Y-107449948D01*
X41276432Y-107571464D01*
X41012410Y-107747878D01*
X41003726Y-107756562D01*
X40986645Y-107724607D01*
X40891422Y-107608578D01*
X40775393Y-107513355D01*
X40643016Y-107442597D01*
X40499378Y-107399025D01*
X40350000Y-107384313D01*
X39786500Y-107388000D01*
X39596000Y-107578500D01*
X39404000Y-107578500D01*
X39213500Y-107388000D01*
X38650000Y-107384313D01*
X38500622Y-107399025D01*
X38356984Y-107442597D01*
X38224607Y-107513355D01*
X38108578Y-107608578D01*
X38013355Y-107724607D01*
X37942597Y-107856984D01*
X37899025Y-108000622D01*
X37884313Y-108150000D01*
X21254000Y-108150000D01*
X21254000Y-91061232D01*
X37888000Y-91061232D01*
X37888000Y-91378768D01*
X37949948Y-91690203D01*
X38071464Y-91983568D01*
X38247878Y-92247590D01*
X38472410Y-92472122D01*
X38736432Y-92648536D01*
X39029797Y-92770052D01*
X39341232Y-92832000D01*
X39658768Y-92832000D01*
X39970203Y-92770052D01*
X40263568Y-92648536D01*
X40527590Y-92472122D01*
X40752122Y-92247590D01*
X40770000Y-92220834D01*
X40787878Y-92247590D01*
X41012410Y-92472122D01*
X41276432Y-92648536D01*
X41569797Y-92770052D01*
X41881232Y-92832000D01*
X42198768Y-92832000D01*
X42510203Y-92770052D01*
X42803568Y-92648536D01*
X43067590Y-92472122D01*
X43292122Y-92247590D01*
X43310000Y-92220834D01*
X43327878Y-92247590D01*
X43552410Y-92472122D01*
X43816432Y-92648536D01*
X44109797Y-92770052D01*
X44421232Y-92832000D01*
X44738768Y-92832000D01*
X45050203Y-92770052D01*
X45343568Y-92648536D01*
X45607590Y-92472122D01*
X45832122Y-92247590D01*
X45850000Y-92220834D01*
X45867878Y-92247590D01*
X46092410Y-92472122D01*
X46356432Y-92648536D01*
X46649797Y-92770052D01*
X46961232Y-92832000D01*
X47278768Y-92832000D01*
X47590203Y-92770052D01*
X47883568Y-92648536D01*
X48147590Y-92472122D01*
X48372122Y-92247590D01*
X48390000Y-92220834D01*
X48407878Y-92247590D01*
X48632410Y-92472122D01*
X48896432Y-92648536D01*
X49189797Y-92770052D01*
X49501232Y-92832000D01*
X49818768Y-92832000D01*
X50130203Y-92770052D01*
X50423568Y-92648536D01*
X50687590Y-92472122D01*
X50912122Y-92247590D01*
X50930000Y-92220834D01*
X50947878Y-92247590D01*
X51172410Y-92472122D01*
X51436432Y-92648536D01*
X51729797Y-92770052D01*
X52041232Y-92832000D01*
X52358768Y-92832000D01*
X52670203Y-92770052D01*
X52963568Y-92648536D01*
X53227590Y-92472122D01*
X53452122Y-92247590D01*
X53470000Y-92220834D01*
X53487878Y-92247590D01*
X53712410Y-92472122D01*
X53976432Y-92648536D01*
X54269797Y-92770052D01*
X54581232Y-92832000D01*
X54898768Y-92832000D01*
X55210203Y-92770052D01*
X55503568Y-92648536D01*
X55767590Y-92472122D01*
X55992122Y-92247590D01*
X56010000Y-92220834D01*
X56027878Y-92247590D01*
X56252410Y-92472122D01*
X56516432Y-92648536D01*
X56809797Y-92770052D01*
X57121232Y-92832000D01*
X57438768Y-92832000D01*
X57750203Y-92770052D01*
X58043568Y-92648536D01*
X58307590Y-92472122D01*
X58532122Y-92247590D01*
X58550000Y-92220834D01*
X58567878Y-92247590D01*
X58792410Y-92472122D01*
X59056432Y-92648536D01*
X59349797Y-92770052D01*
X59661232Y-92832000D01*
X59978768Y-92832000D01*
X60290203Y-92770052D01*
X60583568Y-92648536D01*
X60847590Y-92472122D01*
X61023445Y-92296267D01*
X61419497Y-92296267D01*
X61487244Y-92584570D01*
X61770228Y-92728616D01*
X62075877Y-92814687D01*
X62392445Y-92839475D01*
X62707766Y-92802028D01*
X63009722Y-92703784D01*
X63232756Y-92584570D01*
X63300503Y-92296267D01*
X63959497Y-92296267D01*
X64027244Y-92584570D01*
X64310228Y-92728616D01*
X64615877Y-92814687D01*
X64932445Y-92839475D01*
X65247766Y-92802028D01*
X65549722Y-92703784D01*
X65772756Y-92584570D01*
X65840503Y-92296267D01*
X66499497Y-92296267D01*
X66567244Y-92584570D01*
X66850228Y-92728616D01*
X67155877Y-92814687D01*
X67472445Y-92839475D01*
X67787766Y-92802028D01*
X68089722Y-92703784D01*
X68312756Y-92584570D01*
X68380503Y-92296267D01*
X69039497Y-92296267D01*
X69107244Y-92584570D01*
X69390228Y-92728616D01*
X69695877Y-92814687D01*
X70012445Y-92839475D01*
X70327766Y-92802028D01*
X70629722Y-92703784D01*
X70852756Y-92584570D01*
X70920503Y-92296267D01*
X71579497Y-92296267D01*
X71647244Y-92584570D01*
X71930228Y-92728616D01*
X72235877Y-92814687D01*
X72552445Y-92839475D01*
X72867766Y-92802028D01*
X73169722Y-92703784D01*
X73392756Y-92584570D01*
X73460503Y-92296267D01*
X74119497Y-92296267D01*
X74187244Y-92584570D01*
X74470228Y-92728616D01*
X74775877Y-92814687D01*
X75092445Y-92839475D01*
X75407766Y-92802028D01*
X75709722Y-92703784D01*
X75932756Y-92584570D01*
X76000503Y-92296267D01*
X75060000Y-91355765D01*
X74119497Y-92296267D01*
X73460503Y-92296267D01*
X72520000Y-91355765D01*
X71579497Y-92296267D01*
X70920503Y-92296267D01*
X69980000Y-91355765D01*
X69039497Y-92296267D01*
X68380503Y-92296267D01*
X67440000Y-91355765D01*
X66499497Y-92296267D01*
X65840503Y-92296267D01*
X64900000Y-91355765D01*
X63959497Y-92296267D01*
X63300503Y-92296267D01*
X62360000Y-91355765D01*
X61419497Y-92296267D01*
X61023445Y-92296267D01*
X61072122Y-92247590D01*
X61151132Y-92129344D01*
X61283733Y-92160503D01*
X62224235Y-91220000D01*
X62495765Y-91220000D01*
X63436267Y-92160503D01*
X63630000Y-92114979D01*
X63823733Y-92160503D01*
X64764235Y-91220000D01*
X65035765Y-91220000D01*
X65976267Y-92160503D01*
X66170000Y-92114979D01*
X66363733Y-92160503D01*
X67304235Y-91220000D01*
X67575765Y-91220000D01*
X68516267Y-92160503D01*
X68710000Y-92114979D01*
X68903733Y-92160503D01*
X69844235Y-91220000D01*
X70115765Y-91220000D01*
X71056267Y-92160503D01*
X71250000Y-92114979D01*
X71443733Y-92160503D01*
X72384235Y-91220000D01*
X72655765Y-91220000D01*
X73596267Y-92160503D01*
X73790000Y-92114979D01*
X73983733Y-92160503D01*
X74924235Y-91220000D01*
X75195765Y-91220000D01*
X76136267Y-92160503D01*
X76268868Y-92129344D01*
X76347878Y-92247590D01*
X76572410Y-92472122D01*
X76836432Y-92648536D01*
X77129797Y-92770052D01*
X77441232Y-92832000D01*
X77758768Y-92832000D01*
X78070203Y-92770052D01*
X78363568Y-92648536D01*
X78627590Y-92472122D01*
X78852122Y-92247590D01*
X79028536Y-91983568D01*
X79150052Y-91690203D01*
X79212000Y-91378768D01*
X79212000Y-91061232D01*
X79150052Y-90749797D01*
X79028536Y-90456432D01*
X78852122Y-90192410D01*
X78627590Y-89967878D01*
X78363568Y-89791464D01*
X78070203Y-89669948D01*
X77758768Y-89608000D01*
X77441232Y-89608000D01*
X77129797Y-89669948D01*
X76836432Y-89791464D01*
X76572410Y-89967878D01*
X76347878Y-90192410D01*
X76268868Y-90310656D01*
X76136267Y-90279497D01*
X75195765Y-91220000D01*
X74924235Y-91220000D01*
X73983733Y-90279497D01*
X73790000Y-90325021D01*
X73596267Y-90279497D01*
X72655765Y-91220000D01*
X72384235Y-91220000D01*
X71443733Y-90279497D01*
X71250000Y-90325021D01*
X71056267Y-90279497D01*
X70115765Y-91220000D01*
X69844235Y-91220000D01*
X68903733Y-90279497D01*
X68710000Y-90325021D01*
X68516267Y-90279497D01*
X67575765Y-91220000D01*
X67304235Y-91220000D01*
X66363733Y-90279497D01*
X66170000Y-90325021D01*
X65976267Y-90279497D01*
X65035765Y-91220000D01*
X64764235Y-91220000D01*
X63823733Y-90279497D01*
X63630000Y-90325021D01*
X63436267Y-90279497D01*
X62495765Y-91220000D01*
X62224235Y-91220000D01*
X61283733Y-90279497D01*
X61151132Y-90310656D01*
X61072122Y-90192410D01*
X61023445Y-90143733D01*
X61419497Y-90143733D01*
X62360000Y-91084235D01*
X63300503Y-90143733D01*
X63959497Y-90143733D01*
X64900000Y-91084235D01*
X65840503Y-90143733D01*
X66499497Y-90143733D01*
X67440000Y-91084235D01*
X68380503Y-90143733D01*
X69039497Y-90143733D01*
X69980000Y-91084235D01*
X70920503Y-90143733D01*
X71579497Y-90143733D01*
X72520000Y-91084235D01*
X73460503Y-90143733D01*
X74119497Y-90143733D01*
X75060000Y-91084235D01*
X76000503Y-90143733D01*
X75932756Y-89855430D01*
X75649772Y-89711384D01*
X75344123Y-89625313D01*
X75027555Y-89600525D01*
X74712234Y-89637972D01*
X74410278Y-89736216D01*
X74187244Y-89855430D01*
X74119497Y-90143733D01*
X73460503Y-90143733D01*
X73392756Y-89855430D01*
X73109772Y-89711384D01*
X72804123Y-89625313D01*
X72487555Y-89600525D01*
X72172234Y-89637972D01*
X71870278Y-89736216D01*
X71647244Y-89855430D01*
X71579497Y-90143733D01*
X70920503Y-90143733D01*
X70852756Y-89855430D01*
X70569772Y-89711384D01*
X70264123Y-89625313D01*
X69947555Y-89600525D01*
X69632234Y-89637972D01*
X69330278Y-89736216D01*
X69107244Y-89855430D01*
X69039497Y-90143733D01*
X68380503Y-90143733D01*
X68312756Y-89855430D01*
X68029772Y-89711384D01*
X67724123Y-89625313D01*
X67407555Y-89600525D01*
X67092234Y-89637972D01*
X66790278Y-89736216D01*
X66567244Y-89855430D01*
X66499497Y-90143733D01*
X65840503Y-90143733D01*
X65772756Y-89855430D01*
X65489772Y-89711384D01*
X65184123Y-89625313D01*
X64867555Y-89600525D01*
X64552234Y-89637972D01*
X64250278Y-89736216D01*
X64027244Y-89855430D01*
X63959497Y-90143733D01*
X63300503Y-90143733D01*
X63232756Y-89855430D01*
X62949772Y-89711384D01*
X62644123Y-89625313D01*
X62327555Y-89600525D01*
X62012234Y-89637972D01*
X61710278Y-89736216D01*
X61487244Y-89855430D01*
X61419497Y-90143733D01*
X61023445Y-90143733D01*
X60847590Y-89967878D01*
X60583568Y-89791464D01*
X60290203Y-89669948D01*
X59978768Y-89608000D01*
X59661232Y-89608000D01*
X59349797Y-89669948D01*
X59056432Y-89791464D01*
X58792410Y-89967878D01*
X58567878Y-90192410D01*
X58550000Y-90219166D01*
X58532122Y-90192410D01*
X58307590Y-89967878D01*
X58043568Y-89791464D01*
X57750203Y-89669948D01*
X57438768Y-89608000D01*
X57121232Y-89608000D01*
X56809797Y-89669948D01*
X56516432Y-89791464D01*
X56252410Y-89967878D01*
X56027878Y-90192410D01*
X56010000Y-90219166D01*
X55992122Y-90192410D01*
X55767590Y-89967878D01*
X55503568Y-89791464D01*
X55210203Y-89669948D01*
X54898768Y-89608000D01*
X54581232Y-89608000D01*
X54269797Y-89669948D01*
X53976432Y-89791464D01*
X53712410Y-89967878D01*
X53487878Y-90192410D01*
X53470000Y-90219166D01*
X53452122Y-90192410D01*
X53227590Y-89967878D01*
X52963568Y-89791464D01*
X52670203Y-89669948D01*
X52358768Y-89608000D01*
X52041232Y-89608000D01*
X51729797Y-89669948D01*
X51436432Y-89791464D01*
X51172410Y-89967878D01*
X50947878Y-90192410D01*
X50930000Y-90219166D01*
X50912122Y-90192410D01*
X50687590Y-89967878D01*
X50423568Y-89791464D01*
X50130203Y-89669948D01*
X49818768Y-89608000D01*
X49501232Y-89608000D01*
X49189797Y-89669948D01*
X48896432Y-89791464D01*
X48632410Y-89967878D01*
X48407878Y-90192410D01*
X48390000Y-90219166D01*
X48372122Y-90192410D01*
X48147590Y-89967878D01*
X47883568Y-89791464D01*
X47590203Y-89669948D01*
X47278768Y-89608000D01*
X46961232Y-89608000D01*
X46649797Y-89669948D01*
X46356432Y-89791464D01*
X46092410Y-89967878D01*
X45867878Y-90192410D01*
X45850000Y-90219166D01*
X45832122Y-90192410D01*
X45607590Y-89967878D01*
X45343568Y-89791464D01*
X45050203Y-89669948D01*
X44738768Y-89608000D01*
X44421232Y-89608000D01*
X44109797Y-89669948D01*
X43816432Y-89791464D01*
X43552410Y-89967878D01*
X43327878Y-90192410D01*
X43310000Y-90219166D01*
X43292122Y-90192410D01*
X43067590Y-89967878D01*
X42803568Y-89791464D01*
X42510203Y-89669948D01*
X42198768Y-89608000D01*
X41881232Y-89608000D01*
X41569797Y-89669948D01*
X41276432Y-89791464D01*
X41012410Y-89967878D01*
X40787878Y-90192410D01*
X40770000Y-90219166D01*
X40752122Y-90192410D01*
X40527590Y-89967878D01*
X40263568Y-89791464D01*
X39970203Y-89669948D01*
X39658768Y-89608000D01*
X39341232Y-89608000D01*
X39029797Y-89669948D01*
X38736432Y-89791464D01*
X38472410Y-89967878D01*
X38247878Y-90192410D01*
X38071464Y-90456432D01*
X37949948Y-90749797D01*
X37888000Y-91061232D01*
X21254000Y-91061232D01*
X21254000Y-82254000D01*
X26238510Y-82254000D01*
X26238510Y-82413492D01*
%TA.AperFunction,Conductor*%
D24*
G36*
X26238510Y-82413492D02*
G01*
X26306203Y-82753808D01*
X26438988Y-83074378D01*
X26631761Y-83362884D01*
X26778877Y-83510000D01*
X26631761Y-83657116D01*
X26438988Y-83945622D01*
X26306203Y-84266192D01*
X26238510Y-84606508D01*
X26238510Y-84953492D01*
X26306203Y-85293808D01*
X26438988Y-85614378D01*
X26631761Y-85902884D01*
X26877116Y-86148239D01*
X27165622Y-86341012D01*
X27486192Y-86473797D01*
X27826508Y-86541490D01*
X28173492Y-86541490D01*
X28513808Y-86473797D01*
X28834378Y-86341012D01*
X29122884Y-86148239D01*
X29368239Y-85902884D01*
X29561012Y-85614378D01*
X29693797Y-85293808D01*
X29761490Y-84953492D01*
X29761490Y-84606508D01*
X29693797Y-84266192D01*
X29561012Y-83945622D01*
X29368239Y-83657116D01*
X29221123Y-83510000D01*
X29368239Y-83362884D01*
X29561012Y-83074378D01*
X29693797Y-82753808D01*
X29761490Y-82413492D01*
X29761490Y-82254000D01*
X36738510Y-82254000D01*
X36738510Y-82413492D01*
X36806203Y-82753808D01*
X36938988Y-83074378D01*
X37131761Y-83362884D01*
X37278877Y-83510000D01*
X37131761Y-83657116D01*
X36938988Y-83945622D01*
X36806203Y-84266192D01*
X36738510Y-84606508D01*
X36738510Y-84953492D01*
X36806203Y-85293808D01*
X36938988Y-85614378D01*
X37131761Y-85902884D01*
X37377116Y-86148239D01*
X37665622Y-86341012D01*
X37986192Y-86473797D01*
X38326508Y-86541490D01*
X38673492Y-86541490D01*
X39013808Y-86473797D01*
X39334378Y-86341012D01*
X39622884Y-86148239D01*
X39868239Y-85902884D01*
X40061012Y-85614378D01*
X40193797Y-85293808D01*
X40261490Y-84953492D01*
X40261490Y-84606508D01*
X40193797Y-84266192D01*
X40061012Y-83945622D01*
X39868239Y-83657116D01*
X39721123Y-83510000D01*
X39868239Y-83362884D01*
X40061012Y-83074378D01*
X40193797Y-82753808D01*
X40261490Y-82413492D01*
X40261490Y-82254000D01*
X47238510Y-82254000D01*
X47238510Y-82413492D01*
X47306203Y-82753808D01*
X47438988Y-83074378D01*
X47631761Y-83362884D01*
X47778877Y-83510000D01*
X47631761Y-83657116D01*
X47438988Y-83945622D01*
X47306203Y-84266192D01*
X47238510Y-84606508D01*
X47238510Y-84953492D01*
X47306203Y-85293808D01*
X47438988Y-85614378D01*
X47631761Y-85902884D01*
X47877116Y-86148239D01*
X48165622Y-86341012D01*
X48486192Y-86473797D01*
X48826508Y-86541490D01*
X49173492Y-86541490D01*
X49513808Y-86473797D01*
X49834378Y-86341012D01*
X50122884Y-86148239D01*
X50368239Y-85902884D01*
X50561012Y-85614378D01*
X50693797Y-85293808D01*
X50761490Y-84953492D01*
X50761490Y-84606508D01*
X50693797Y-84266192D01*
X50561012Y-83945622D01*
X50368239Y-83657116D01*
X50221123Y-83510000D01*
X50368239Y-83362884D01*
X50561012Y-83074378D01*
X50693797Y-82753808D01*
X50761490Y-82413492D01*
X50761490Y-82254000D01*
X57738510Y-82254000D01*
X57738510Y-82413492D01*
X57806203Y-82753808D01*
X57938988Y-83074378D01*
X58131761Y-83362884D01*
X58278877Y-83510000D01*
X58131761Y-83657116D01*
X57938988Y-83945622D01*
X57806203Y-84266192D01*
X57738510Y-84606508D01*
X57738510Y-84953492D01*
X57806203Y-85293808D01*
X57938988Y-85614378D01*
X58131761Y-85902884D01*
X58377116Y-86148239D01*
X58665622Y-86341012D01*
X58986192Y-86473797D01*
X59326508Y-86541490D01*
X59673492Y-86541490D01*
X60013808Y-86473797D01*
X60334378Y-86341012D01*
X60622884Y-86148239D01*
X60868239Y-85902884D01*
X61061012Y-85614378D01*
X61193797Y-85293808D01*
X61261490Y-84953492D01*
X61261490Y-84606508D01*
X61193797Y-84266192D01*
X61061012Y-83945622D01*
X60868239Y-83657116D01*
X60721123Y-83510000D01*
X60868239Y-83362884D01*
X61061012Y-83074378D01*
X61193797Y-82753808D01*
X61261490Y-82413492D01*
X61261490Y-82254000D01*
X68238510Y-82254000D01*
X68238510Y-82413492D01*
X68306203Y-82753808D01*
X68438988Y-83074378D01*
X68631761Y-83362884D01*
X68778877Y-83510000D01*
X68631761Y-83657116D01*
X68438988Y-83945622D01*
X68306203Y-84266192D01*
X68238510Y-84606508D01*
X68238510Y-84953492D01*
X68306203Y-85293808D01*
X68438988Y-85614378D01*
X68631761Y-85902884D01*
X68877116Y-86148239D01*
X69165622Y-86341012D01*
X69486192Y-86473797D01*
X69826508Y-86541490D01*
X70173492Y-86541490D01*
X70513808Y-86473797D01*
X70834378Y-86341012D01*
X71122884Y-86148239D01*
X71368239Y-85902884D01*
X71561012Y-85614378D01*
X71693797Y-85293808D01*
X71761490Y-84953492D01*
X71761490Y-84606508D01*
X71693797Y-84266192D01*
X71561012Y-83945622D01*
X71368239Y-83657116D01*
X71221123Y-83510000D01*
X71368239Y-83362884D01*
X71561012Y-83074378D01*
X71693797Y-82753808D01*
X71761490Y-82413492D01*
X71761490Y-82254000D01*
X78738510Y-82254000D01*
X78738510Y-82413492D01*
X78806203Y-82753808D01*
X78938988Y-83074378D01*
X79131761Y-83362884D01*
X79278877Y-83510000D01*
X79131761Y-83657116D01*
X78938988Y-83945622D01*
X78806203Y-84266192D01*
X78738510Y-84606508D01*
X78738510Y-84953492D01*
X78806203Y-85293808D01*
X78938988Y-85614378D01*
X79131761Y-85902884D01*
X79377116Y-86148239D01*
X79665622Y-86341012D01*
X79986192Y-86473797D01*
X80326508Y-86541490D01*
X80673492Y-86541490D01*
X81013808Y-86473797D01*
X81334378Y-86341012D01*
X81622884Y-86148239D01*
X81868239Y-85902884D01*
X82061012Y-85614378D01*
X82193797Y-85293808D01*
X82261490Y-84953492D01*
X82261490Y-84606508D01*
X82193797Y-84266192D01*
X82061012Y-83945622D01*
X81868239Y-83657116D01*
X81721123Y-83510000D01*
X81868239Y-83362884D01*
X82061012Y-83074378D01*
X82193797Y-82753808D01*
X82261490Y-82413492D01*
X82261490Y-82254000D01*
X86246000Y-82254000D01*
X86246000Y-90000000D01*
X86250881Y-90049553D01*
X86265335Y-90097202D01*
X86288807Y-90141115D01*
X86320395Y-90179605D01*
X91246000Y-95105210D01*
X91246000Y-103500000D01*
X91250881Y-103549553D01*
X91265335Y-103597202D01*
X91288807Y-103641115D01*
X91320395Y-103679605D01*
X91358885Y-103711193D01*
X91402798Y-103734665D01*
X91450447Y-103749119D01*
X91500000Y-103754000D01*
X119746000Y-103754000D01*
X119746000Y-128746000D01*
X21254000Y-128746000D01*
X21254000Y-121950000D01*
X40234314Y-121950000D01*
X40234314Y-124050000D01*
X40253830Y-124248151D01*
X40311628Y-124438686D01*
X40405488Y-124614285D01*
X40531802Y-124768198D01*
X40685715Y-124894512D01*
X40861314Y-124988372D01*
X41051849Y-125046170D01*
X41250000Y-125065686D01*
X42750000Y-125065686D01*
X42948151Y-125046170D01*
X43138686Y-124988372D01*
X43314285Y-124894512D01*
X43468198Y-124768198D01*
X43594512Y-124614285D01*
X43688372Y-124438686D01*
X43746170Y-124248151D01*
X43765686Y-124050000D01*
X43765686Y-123652635D01*
X43864248Y-123977551D01*
X44027862Y-124283651D01*
X44248050Y-124551950D01*
X44516350Y-124772138D01*
X44822450Y-124935752D01*
X45154589Y-125036505D01*
X45500000Y-125070525D01*
X45845412Y-125036505D01*
X46177551Y-124935752D01*
X46483651Y-124772138D01*
X46751950Y-124551950D01*
X46972138Y-124283651D01*
X47135752Y-123977551D01*
X47236505Y-123645411D01*
X47250000Y-123508394D01*
X47263495Y-123645412D01*
X47364248Y-123977551D01*
X47527862Y-124283651D01*
X47748050Y-124551950D01*
X48016350Y-124772138D01*
X48322450Y-124935752D01*
X48654589Y-125036505D01*
X49000000Y-125070525D01*
X49345412Y-125036505D01*
X49677551Y-124935752D01*
X49983651Y-124772138D01*
X50251950Y-124551950D01*
X50472138Y-124283651D01*
X50635752Y-123977551D01*
X50736505Y-123645411D01*
X50750000Y-123508394D01*
X50763495Y-123645412D01*
X50864248Y-123977551D01*
X51027862Y-124283651D01*
X51248050Y-124551950D01*
X51516350Y-124772138D01*
X51822450Y-124935752D01*
X52154589Y-125036505D01*
X52500000Y-125070525D01*
X52845412Y-125036505D01*
X53177551Y-124935752D01*
X53483651Y-124772138D01*
X53751950Y-124551950D01*
X53972138Y-124283651D01*
X54135752Y-123977551D01*
X54236505Y-123645411D01*
X54250000Y-123508394D01*
X54263495Y-123645412D01*
X54364248Y-123977551D01*
X54527862Y-124283651D01*
X54748050Y-124551950D01*
X55016350Y-124772138D01*
X55322450Y-124935752D01*
X55654589Y-125036505D01*
X56000000Y-125070525D01*
X56345412Y-125036505D01*
X56677551Y-124935752D01*
X56983651Y-124772138D01*
X57251950Y-124551950D01*
X57472138Y-124283651D01*
X57635752Y-123977551D01*
X57736505Y-123645411D01*
X57750000Y-123508394D01*
X57763495Y-123645412D01*
X57864248Y-123977551D01*
X58027862Y-124283651D01*
X58248050Y-124551950D01*
X58516350Y-124772138D01*
X58822450Y-124935752D01*
X59154589Y-125036505D01*
X59500000Y-125070525D01*
X59845412Y-125036505D01*
X60177551Y-124935752D01*
X60483651Y-124772138D01*
X60751950Y-124551950D01*
X60972138Y-124283651D01*
X61135752Y-123977551D01*
X61236505Y-123645411D01*
X61250000Y-123508394D01*
X61263495Y-123645412D01*
X61364248Y-123977551D01*
X61527862Y-124283651D01*
X61748050Y-124551950D01*
X62016350Y-124772138D01*
X62322450Y-124935752D01*
X62654589Y-125036505D01*
X63000000Y-125070525D01*
X63345412Y-125036505D01*
X63677551Y-124935752D01*
X63983651Y-124772138D01*
X64251950Y-124551950D01*
X64472138Y-124283651D01*
X64635752Y-123977551D01*
X64736505Y-123645411D01*
X64750000Y-123508394D01*
X64763495Y-123645412D01*
X64864248Y-123977551D01*
X65027862Y-124283651D01*
X65248050Y-124551950D01*
X65516350Y-124772138D01*
X65822450Y-124935752D01*
X66154589Y-125036505D01*
X66500000Y-125070525D01*
X66845412Y-125036505D01*
X67177551Y-124935752D01*
X67483651Y-124772138D01*
X67751950Y-124551950D01*
X67972138Y-124283651D01*
X68135752Y-123977551D01*
X68236505Y-123645411D01*
X68262000Y-123386555D01*
X68262000Y-122613444D01*
X68236505Y-122354588D01*
X68135752Y-122022449D01*
X68097028Y-121950000D01*
X77234314Y-121950000D01*
X77234314Y-124050000D01*
X77253830Y-124248151D01*
X77311628Y-124438686D01*
X77405488Y-124614285D01*
X77531802Y-124768198D01*
X77685715Y-124894512D01*
X77861314Y-124988372D01*
X78051849Y-125046170D01*
X78250000Y-125065686D01*
X79750000Y-125065686D01*
X79948151Y-125046170D01*
X80138686Y-124988372D01*
X80314285Y-124894512D01*
X80468198Y-124768198D01*
X80594512Y-124614285D01*
X80688372Y-124438686D01*
X80746170Y-124248151D01*
X80765686Y-124050000D01*
X80765686Y-123652635D01*
X80864248Y-123977551D01*
X81027862Y-124283651D01*
X81248050Y-124551950D01*
X81516350Y-124772138D01*
X81822450Y-124935752D01*
X82154589Y-125036505D01*
X82500000Y-125070525D01*
X82845412Y-125036505D01*
X83177551Y-124935752D01*
X83483651Y-124772138D01*
X83751950Y-124551950D01*
X83972138Y-124283651D01*
X84135752Y-123977551D01*
X84236505Y-123645411D01*
X84250000Y-123508394D01*
X84263495Y-123645412D01*
X84364248Y-123977551D01*
X84527862Y-124283651D01*
X84748050Y-124551950D01*
X85016350Y-124772138D01*
X85322450Y-124935752D01*
X85654589Y-125036505D01*
X86000000Y-125070525D01*
X86345412Y-125036505D01*
X86677551Y-124935752D01*
X86983651Y-124772138D01*
X87251950Y-124551950D01*
X87472138Y-124283651D01*
X87635752Y-123977551D01*
X87736505Y-123645411D01*
X87752064Y-123487441D01*
X87790585Y-123737905D01*
X87908862Y-124062981D01*
X88088285Y-124358736D01*
X88321960Y-124613805D01*
X88600906Y-124818385D01*
X88914404Y-124964614D01*
X89129954Y-125022704D01*
X89404000Y-124868565D01*
X89404000Y-123096000D01*
X89596000Y-123096000D01*
X89596000Y-124868565D01*
X89870046Y-125022704D01*
X90085596Y-124964614D01*
X90399094Y-124818385D01*
X90678040Y-124613805D01*
X90911715Y-124358736D01*
X91091138Y-124062981D01*
X91209415Y-123737905D01*
X91262000Y-123396000D01*
X91262000Y-123096000D01*
X89596000Y-123096000D01*
X89404000Y-123096000D01*
X89384000Y-123096000D01*
X89384000Y-122904000D01*
X89404000Y-122904000D01*
X89404000Y-121131435D01*
X89596000Y-121131435D01*
X89596000Y-122904000D01*
X91262000Y-122904000D01*
X91262000Y-122604000D01*
X91209415Y-122262095D01*
X91095862Y-121950000D01*
X98734314Y-121950000D01*
X98734314Y-124050000D01*
X98753830Y-124248151D01*
X98811628Y-124438686D01*
X98905488Y-124614285D01*
X99031802Y-124768198D01*
X99185715Y-124894512D01*
X99361314Y-124988372D01*
X99551849Y-125046170D01*
X99750000Y-125065686D01*
X101250000Y-125065686D01*
X101448151Y-125046170D01*
X101638686Y-124988372D01*
X101814285Y-124894512D01*
X101968198Y-124768198D01*
X102094512Y-124614285D01*
X102188372Y-124438686D01*
X102246170Y-124248151D01*
X102265686Y-124050000D01*
X102265686Y-123652635D01*
X102364248Y-123977551D01*
X102527862Y-124283651D01*
X102748050Y-124551950D01*
X103016350Y-124772138D01*
X103322450Y-124935752D01*
X103654589Y-125036505D01*
X104000000Y-125070525D01*
X104345412Y-125036505D01*
X104677551Y-124935752D01*
X104983651Y-124772138D01*
X105251950Y-124551950D01*
X105472138Y-124283651D01*
X105635752Y-123977551D01*
X105736505Y-123645411D01*
X105752064Y-123487441D01*
X105790585Y-123737905D01*
X105908862Y-124062981D01*
X106088285Y-124358736D01*
X106321960Y-124613805D01*
X106600906Y-124818385D01*
X106914404Y-124964614D01*
X107129954Y-125022704D01*
X107404000Y-124868565D01*
X107404000Y-123096000D01*
X107596000Y-123096000D01*
X107596000Y-124868565D01*
X107870046Y-125022704D01*
X108085596Y-124964614D01*
X108399094Y-124818385D01*
X108678040Y-124613805D01*
X108911715Y-124358736D01*
X109091138Y-124062981D01*
X109209415Y-123737905D01*
X109250000Y-123474023D01*
X109290585Y-123737905D01*
X109408862Y-124062981D01*
X109588285Y-124358736D01*
X109821960Y-124613805D01*
X110100906Y-124818385D01*
X110414404Y-124964614D01*
X110629954Y-125022704D01*
X110904000Y-124868565D01*
X110904000Y-123096000D01*
X111096000Y-123096000D01*
X111096000Y-124868565D01*
X111370046Y-125022704D01*
X111585596Y-124964614D01*
X111899094Y-124818385D01*
X112178040Y-124613805D01*
X112411715Y-124358736D01*
X112591138Y-124062981D01*
X112709415Y-123737905D01*
X112762000Y-123396000D01*
X112762000Y-123096000D01*
X111096000Y-123096000D01*
X110904000Y-123096000D01*
X107596000Y-123096000D01*
X107404000Y-123096000D01*
X107384000Y-123096000D01*
X107384000Y-122904000D01*
X107404000Y-122904000D01*
X107404000Y-121131435D01*
X107596000Y-121131435D01*
X107596000Y-122904000D01*
X110904000Y-122904000D01*
X110904000Y-121131435D01*
X111096000Y-121131435D01*
X111096000Y-122904000D01*
X112762000Y-122904000D01*
X112762000Y-122604000D01*
X112709415Y-122262095D01*
X112591138Y-121937019D01*
X112411715Y-121641264D01*
X112178040Y-121386195D01*
X111899094Y-121181615D01*
X111585596Y-121035386D01*
X111370046Y-120977296D01*
X111096000Y-121131435D01*
X110904000Y-121131435D01*
X110629954Y-120977296D01*
X110414404Y-121035386D01*
X110100906Y-121181615D01*
X109821960Y-121386195D01*
X109588285Y-121641264D01*
X109408862Y-121937019D01*
X109290585Y-122262095D01*
X109250000Y-122525977D01*
X109209415Y-122262095D01*
X109091138Y-121937019D01*
X108911715Y-121641264D01*
X108678040Y-121386195D01*
X108399094Y-121181615D01*
X108085596Y-121035386D01*
X107870046Y-120977296D01*
X107596000Y-121131435D01*
X107404000Y-121131435D01*
X107129954Y-120977296D01*
X106914404Y-121035386D01*
X106600906Y-121181615D01*
X106321960Y-121386195D01*
X106088285Y-121641264D01*
X105908862Y-121937019D01*
X105790585Y-122262095D01*
X105752064Y-122512559D01*
X105736505Y-122354588D01*
X105635752Y-122022449D01*
X105472138Y-121716349D01*
X105251950Y-121448050D01*
X104983650Y-121227862D01*
X104677550Y-121064248D01*
X104345411Y-120963495D01*
X104000000Y-120929475D01*
X103654588Y-120963495D01*
X103322449Y-121064248D01*
X103016349Y-121227862D01*
X102748050Y-121448050D01*
X102527862Y-121716350D01*
X102364248Y-122022450D01*
X102265686Y-122347366D01*
X102265686Y-121950000D01*
X102246170Y-121751849D01*
X102188372Y-121561314D01*
X102094512Y-121385715D01*
X101968198Y-121231802D01*
X101814285Y-121105488D01*
X101638686Y-121011628D01*
X101448151Y-120953830D01*
X101250000Y-120934314D01*
X99750000Y-120934314D01*
X99551849Y-120953830D01*
X99361314Y-121011628D01*
X99185715Y-121105488D01*
X99031802Y-121231802D01*
X98905488Y-121385715D01*
X98811628Y-121561314D01*
X98753830Y-121751849D01*
X98734314Y-121950000D01*
X91095862Y-121950000D01*
X91091138Y-121937019D01*
X90911715Y-121641264D01*
X90678040Y-121386195D01*
X90399094Y-121181615D01*
X90085596Y-121035386D01*
X89870046Y-120977296D01*
X89596000Y-121131435D01*
X89404000Y-121131435D01*
X89129954Y-120977296D01*
X88914404Y-121035386D01*
X88600906Y-121181615D01*
X88321960Y-121386195D01*
X88088285Y-121641264D01*
X87908862Y-121937019D01*
X87790585Y-122262095D01*
X87752064Y-122512559D01*
X87736505Y-122354588D01*
X87635752Y-122022449D01*
X87472138Y-121716349D01*
X87251950Y-121448050D01*
X86983650Y-121227862D01*
X86677550Y-121064248D01*
X86345411Y-120963495D01*
X86000000Y-120929475D01*
X85654588Y-120963495D01*
X85322449Y-121064248D01*
X85016349Y-121227862D01*
X84748050Y-121448050D01*
X84527862Y-121716350D01*
X84364248Y-122022450D01*
X84263495Y-122354589D01*
X84250000Y-122491606D01*
X84236505Y-122354588D01*
X84135752Y-122022449D01*
X83972138Y-121716349D01*
X83751950Y-121448050D01*
X83483650Y-121227862D01*
X83177550Y-121064248D01*
X82845411Y-120963495D01*
X82500000Y-120929475D01*
X82154588Y-120963495D01*
X81822449Y-121064248D01*
X81516349Y-121227862D01*
X81248050Y-121448050D01*
X81027862Y-121716350D01*
X80864248Y-122022450D01*
X80765686Y-122347366D01*
X80765686Y-121950000D01*
X80746170Y-121751849D01*
X80688372Y-121561314D01*
X80594512Y-121385715D01*
X80468198Y-121231802D01*
X80314285Y-121105488D01*
X80138686Y-121011628D01*
X79948151Y-120953830D01*
X79750000Y-120934314D01*
X78250000Y-120934314D01*
X78051849Y-120953830D01*
X77861314Y-121011628D01*
X77685715Y-121105488D01*
X77531802Y-121231802D01*
X77405488Y-121385715D01*
X77311628Y-121561314D01*
X77253830Y-121751849D01*
X77234314Y-121950000D01*
X68097028Y-121950000D01*
X67972138Y-121716349D01*
X67751950Y-121448050D01*
X67483650Y-121227862D01*
X67177550Y-121064248D01*
X66845411Y-120963495D01*
X66500000Y-120929475D01*
X66154588Y-120963495D01*
X65822449Y-121064248D01*
X65516349Y-121227862D01*
X65248050Y-121448050D01*
X65027862Y-121716350D01*
X64864248Y-122022450D01*
X64763495Y-122354589D01*
X64750000Y-122491606D01*
X64736505Y-122354588D01*
X64635752Y-122022449D01*
X64472138Y-121716349D01*
X64251950Y-121448050D01*
X63983650Y-121227862D01*
X63677550Y-121064248D01*
X63345411Y-120963495D01*
X63000000Y-120929475D01*
X62654588Y-120963495D01*
X62322449Y-121064248D01*
X62016349Y-121227862D01*
X61748050Y-121448050D01*
X61527862Y-121716350D01*
X61364248Y-122022450D01*
X61263495Y-122354589D01*
X61250000Y-122491606D01*
X61236505Y-122354588D01*
X61135752Y-122022449D01*
X60972138Y-121716349D01*
X60751950Y-121448050D01*
X60483650Y-121227862D01*
X60177550Y-121064248D01*
X59845411Y-120963495D01*
X59500000Y-120929475D01*
X59154588Y-120963495D01*
X58822449Y-121064248D01*
X58516349Y-121227862D01*
X58248050Y-121448050D01*
X58027862Y-121716350D01*
X57864248Y-122022450D01*
X57763495Y-122354589D01*
X57750000Y-122491606D01*
X57736505Y-122354588D01*
X57635752Y-122022449D01*
X57472138Y-121716349D01*
X57251950Y-121448050D01*
X56983650Y-121227862D01*
X56677550Y-121064248D01*
X56345411Y-120963495D01*
X56000000Y-120929475D01*
X55654588Y-120963495D01*
X55322449Y-121064248D01*
X55016349Y-121227862D01*
X54748050Y-121448050D01*
X54527862Y-121716350D01*
X54364248Y-122022450D01*
X54263495Y-122354589D01*
X54250000Y-122491606D01*
X54236505Y-122354588D01*
X54135752Y-122022449D01*
X53972138Y-121716349D01*
X53751950Y-121448050D01*
X53483650Y-121227862D01*
X53177550Y-121064248D01*
X52845411Y-120963495D01*
X52500000Y-120929475D01*
X52154588Y-120963495D01*
X51822449Y-121064248D01*
X51516349Y-121227862D01*
X51248050Y-121448050D01*
X51027862Y-121716350D01*
X50864248Y-122022450D01*
X50763495Y-122354589D01*
X50750000Y-122491606D01*
X50736505Y-122354588D01*
X50635752Y-122022449D01*
X50472138Y-121716349D01*
X50251950Y-121448050D01*
X49983650Y-121227862D01*
X49677550Y-121064248D01*
X49345411Y-120963495D01*
X49000000Y-120929475D01*
X48654588Y-120963495D01*
X48322449Y-121064248D01*
X48016349Y-121227862D01*
X47748050Y-121448050D01*
X47527862Y-121716350D01*
X47364248Y-122022450D01*
X47263495Y-122354589D01*
X47250000Y-122491606D01*
X47236505Y-122354588D01*
X47135752Y-122022449D01*
X46972138Y-121716349D01*
X46751950Y-121448050D01*
X46483650Y-121227862D01*
X46177550Y-121064248D01*
X45845411Y-120963495D01*
X45500000Y-120929475D01*
X45154588Y-120963495D01*
X44822449Y-121064248D01*
X44516349Y-121227862D01*
X44248050Y-121448050D01*
X44027862Y-121716350D01*
X43864248Y-122022450D01*
X43765686Y-122347366D01*
X43765686Y-121950000D01*
X43746170Y-121751849D01*
X43688372Y-121561314D01*
X43594512Y-121385715D01*
X43468198Y-121231802D01*
X43314285Y-121105488D01*
X43138686Y-121011628D01*
X42948151Y-120953830D01*
X42750000Y-120934314D01*
X41250000Y-120934314D01*
X41051849Y-120953830D01*
X40861314Y-121011628D01*
X40685715Y-121105488D01*
X40531802Y-121231802D01*
X40405488Y-121385715D01*
X40311628Y-121561314D01*
X40253830Y-121751849D01*
X40234314Y-121950000D01*
X21254000Y-121950000D01*
X21254000Y-113707149D01*
X21796000Y-113707149D01*
X21796000Y-114692851D01*
X21988301Y-115659613D01*
X22365513Y-116570283D01*
X22913140Y-117389864D01*
X23610136Y-118086860D01*
X24429717Y-118634487D01*
X25340387Y-119011699D01*
X26307149Y-119204000D01*
X27292851Y-119204000D01*
X28259613Y-119011699D01*
X29170283Y-118634487D01*
X29989864Y-118086860D01*
X30686860Y-117389864D01*
X31234487Y-116570283D01*
X31611699Y-115659613D01*
X31804000Y-114692851D01*
X31804000Y-113707149D01*
X31611699Y-112740387D01*
X31234487Y-111829717D01*
X31209075Y-111791684D01*
X95588000Y-111791684D01*
X95588000Y-112168316D01*
X95661477Y-112537710D01*
X95805608Y-112885671D01*
X96014853Y-113198829D01*
X96281171Y-113465147D01*
X96594329Y-113674392D01*
X96942290Y-113818523D01*
X97311684Y-113892000D01*
X97688316Y-113892000D01*
X98057710Y-113818523D01*
X98405671Y-113674392D01*
X98718829Y-113465147D01*
X98914152Y-113269824D01*
X114125940Y-113269824D01*
X114229794Y-113588811D01*
X114563837Y-113762783D01*
X114925402Y-113868244D01*
X115300593Y-113901141D01*
X115674993Y-113860209D01*
X116034214Y-113747022D01*
X116330206Y-113588811D01*
X116434060Y-113269824D01*
X115280000Y-112115765D01*
X114125940Y-113269824D01*
X98914152Y-113269824D01*
X98985147Y-113198829D01*
X99194392Y-112885671D01*
X99338523Y-112537710D01*
X99412000Y-112168316D01*
X99412000Y-112000593D01*
X113358859Y-112000593D01*
X113399791Y-112374993D01*
X113512978Y-112734214D01*
X113671189Y-113030206D01*
X113990176Y-113134060D01*
X115144235Y-111980000D01*
X115415765Y-111980000D01*
X116569824Y-113134060D01*
X116888811Y-113030206D01*
X117062783Y-112696163D01*
X117168244Y-112334598D01*
X117201141Y-111959407D01*
X117160209Y-111585007D01*
X117047022Y-111225786D01*
X116888811Y-110929794D01*
X116569824Y-110825940D01*
X115415765Y-111980000D01*
X115144235Y-111980000D01*
X113990176Y-110825940D01*
X113671189Y-110929794D01*
X113497217Y-111263837D01*
X113391756Y-111625402D01*
X113358859Y-112000593D01*
X99412000Y-112000593D01*
X99412000Y-111791684D01*
X99338523Y-111422290D01*
X99194392Y-111074329D01*
X98985147Y-110761171D01*
X98914152Y-110690176D01*
X114125940Y-110690176D01*
X115280000Y-111844235D01*
X116434060Y-110690176D01*
X116330206Y-110371189D01*
X115996163Y-110197217D01*
X115634598Y-110091756D01*
X115259407Y-110058859D01*
X114885007Y-110099791D01*
X114525786Y-110212978D01*
X114229794Y-110371189D01*
X114125940Y-110690176D01*
X98914152Y-110690176D01*
X98718829Y-110494853D01*
X98405671Y-110285608D01*
X98057710Y-110141477D01*
X97688316Y-110068000D01*
X97311684Y-110068000D01*
X96942290Y-110141477D01*
X96594329Y-110285608D01*
X96281171Y-110494853D01*
X96014853Y-110761171D01*
X95805608Y-111074329D01*
X95661477Y-111422290D01*
X95588000Y-111791684D01*
X31209075Y-111791684D01*
X30686860Y-111010136D01*
X29989864Y-110313140D01*
X29296727Y-109850000D01*
X37884313Y-109850000D01*
X37899025Y-109999378D01*
X37942597Y-110143016D01*
X38013355Y-110275393D01*
X38108578Y-110391422D01*
X38224607Y-110486645D01*
X38356984Y-110557403D01*
X38500622Y-110600975D01*
X38650000Y-110615687D01*
X39213500Y-110612000D01*
X39404000Y-110421500D01*
X39404000Y-109096000D01*
X38078500Y-109096000D01*
X37888000Y-109286500D01*
X37884313Y-109850000D01*
X29296727Y-109850000D01*
X29170283Y-109765513D01*
X28259613Y-109388301D01*
X27292851Y-109196000D01*
X26307149Y-109196000D01*
X25340387Y-109388301D01*
X24429717Y-109765513D01*
X23610136Y-110313140D01*
X22913140Y-111010136D01*
X22365513Y-111829717D01*
X21988301Y-112740387D01*
X21796000Y-113707149D01*
X21254000Y-113707149D01*
X21254000Y-108150000D01*
X37884313Y-108150000D01*
X37888000Y-108713500D01*
X38078500Y-108904000D01*
X39404000Y-108904000D01*
X39404000Y-107578500D01*
X39596000Y-107578500D01*
X39596000Y-108904000D01*
X39616000Y-108904000D01*
X39616000Y-109096000D01*
X39596000Y-109096000D01*
X39596000Y-110421500D01*
X39786500Y-110612000D01*
X40350000Y-110615687D01*
X40499378Y-110600975D01*
X40643016Y-110557403D01*
X40775393Y-110486645D01*
X40891422Y-110391422D01*
X40986645Y-110275393D01*
X41003726Y-110243438D01*
X41012410Y-110252122D01*
X41276432Y-110428536D01*
X41569797Y-110550052D01*
X41881232Y-110612000D01*
X42198768Y-110612000D01*
X42510203Y-110550052D01*
X42803568Y-110428536D01*
X43067590Y-110252122D01*
X43292122Y-110027590D01*
X43310000Y-110000834D01*
X43327878Y-110027590D01*
X43552410Y-110252122D01*
X43816432Y-110428536D01*
X44109797Y-110550052D01*
X44421232Y-110612000D01*
X44738768Y-110612000D01*
X45050203Y-110550052D01*
X45343568Y-110428536D01*
X45607590Y-110252122D01*
X45832122Y-110027590D01*
X45850000Y-110000834D01*
X45867878Y-110027590D01*
X46092410Y-110252122D01*
X46356432Y-110428536D01*
X46649797Y-110550052D01*
X46961232Y-110612000D01*
X47278768Y-110612000D01*
X47590203Y-110550052D01*
X47883568Y-110428536D01*
X48147590Y-110252122D01*
X48372122Y-110027590D01*
X48390000Y-110000834D01*
X48407878Y-110027590D01*
X48632410Y-110252122D01*
X48896432Y-110428536D01*
X49189797Y-110550052D01*
X49501232Y-110612000D01*
X49818768Y-110612000D01*
X50130203Y-110550052D01*
X50423568Y-110428536D01*
X50687590Y-110252122D01*
X50912122Y-110027590D01*
X50930000Y-110000834D01*
X50947878Y-110027590D01*
X51172410Y-110252122D01*
X51436432Y-110428536D01*
X51729797Y-110550052D01*
X52041232Y-110612000D01*
X52358768Y-110612000D01*
X52670203Y-110550052D01*
X52963568Y-110428536D01*
X53227590Y-110252122D01*
X53452122Y-110027590D01*
X53470000Y-110000834D01*
X53487878Y-110027590D01*
X53712410Y-110252122D01*
X53976432Y-110428536D01*
X54269797Y-110550052D01*
X54581232Y-110612000D01*
X54898768Y-110612000D01*
X55210203Y-110550052D01*
X55503568Y-110428536D01*
X55767590Y-110252122D01*
X55992122Y-110027590D01*
X56010000Y-110000834D01*
X56027878Y-110027590D01*
X56252410Y-110252122D01*
X56516432Y-110428536D01*
X56809797Y-110550052D01*
X57121232Y-110612000D01*
X57438768Y-110612000D01*
X57750203Y-110550052D01*
X58043568Y-110428536D01*
X58307590Y-110252122D01*
X58532122Y-110027590D01*
X58550000Y-110000834D01*
X58567878Y-110027590D01*
X58792410Y-110252122D01*
X59056432Y-110428536D01*
X59349797Y-110550052D01*
X59661232Y-110612000D01*
X59978768Y-110612000D01*
X60290203Y-110550052D01*
X60583568Y-110428536D01*
X60847590Y-110252122D01*
X61023445Y-110076267D01*
X61419497Y-110076267D01*
X61487244Y-110364570D01*
X61770228Y-110508616D01*
X62075877Y-110594687D01*
X62392445Y-110619475D01*
X62707766Y-110582028D01*
X63009722Y-110483784D01*
X63232756Y-110364570D01*
X63300503Y-110076267D01*
X63959497Y-110076267D01*
X64027244Y-110364570D01*
X64310228Y-110508616D01*
X64615877Y-110594687D01*
X64932445Y-110619475D01*
X65247766Y-110582028D01*
X65549722Y-110483784D01*
X65772756Y-110364570D01*
X65840503Y-110076267D01*
X66499497Y-110076267D01*
X66567244Y-110364570D01*
X66850228Y-110508616D01*
X67155877Y-110594687D01*
X67472445Y-110619475D01*
X67787766Y-110582028D01*
X68089722Y-110483784D01*
X68312756Y-110364570D01*
X68380503Y-110076267D01*
X67440000Y-109135765D01*
X66499497Y-110076267D01*
X65840503Y-110076267D01*
X64900000Y-109135765D01*
X63959497Y-110076267D01*
X63300503Y-110076267D01*
X62360000Y-109135765D01*
X61419497Y-110076267D01*
X61023445Y-110076267D01*
X61072122Y-110027590D01*
X61151132Y-109909344D01*
X61283733Y-109940503D01*
X62224235Y-109000000D01*
X62495765Y-109000000D01*
X63436267Y-109940503D01*
X63630000Y-109894979D01*
X63823733Y-109940503D01*
X64764235Y-109000000D01*
X65035765Y-109000000D01*
X65976267Y-109940503D01*
X66170000Y-109894979D01*
X66363733Y-109940503D01*
X67304235Y-109000000D01*
X67575765Y-109000000D01*
X68516267Y-109940503D01*
X68804570Y-109872756D01*
X68948616Y-109589772D01*
X69034687Y-109284123D01*
X69059475Y-108967555D01*
X69044474Y-108841232D01*
X70908000Y-108841232D01*
X70908000Y-109158768D01*
X70969948Y-109470203D01*
X71091464Y-109763568D01*
X71267878Y-110027590D01*
X71492410Y-110252122D01*
X71756432Y-110428536D01*
X72049797Y-110550052D01*
X72361232Y-110612000D01*
X72678768Y-110612000D01*
X72990203Y-110550052D01*
X73283568Y-110428536D01*
X73547590Y-110252122D01*
X73772122Y-110027590D01*
X73948536Y-109763568D01*
X74070052Y-109470203D01*
X74132000Y-109158768D01*
X74132000Y-108841232D01*
X75988000Y-108841232D01*
X75988000Y-109158768D01*
X76049948Y-109470203D01*
X76171464Y-109763568D01*
X76347878Y-110027590D01*
X76572410Y-110252122D01*
X76836432Y-110428536D01*
X77129797Y-110550052D01*
X77441232Y-110612000D01*
X77758768Y-110612000D01*
X78070203Y-110550052D01*
X78363568Y-110428536D01*
X78627590Y-110252122D01*
X78852122Y-110027590D01*
X79028536Y-109763568D01*
X79150052Y-109470203D01*
X79212000Y-109158768D01*
X79212000Y-108841232D01*
X79150052Y-108529797D01*
X79028536Y-108236432D01*
X78852122Y-107972410D01*
X78627590Y-107747878D01*
X78363568Y-107571464D01*
X78070203Y-107449948D01*
X77758768Y-107388000D01*
X77441232Y-107388000D01*
X77129797Y-107449948D01*
X76836432Y-107571464D01*
X76572410Y-107747878D01*
X76347878Y-107972410D01*
X76171464Y-108236432D01*
X76049948Y-108529797D01*
X75988000Y-108841232D01*
X74132000Y-108841232D01*
X74070052Y-108529797D01*
X73948536Y-108236432D01*
X73782000Y-107987193D01*
X73782000Y-107502736D01*
X74573052Y-106711684D01*
X113368000Y-106711684D01*
X113368000Y-107088316D01*
X113441477Y-107457710D01*
X113585608Y-107805671D01*
X113794853Y-108118829D01*
X114061171Y-108385147D01*
X114374329Y-108594392D01*
X114722290Y-108738523D01*
X115091684Y-108812000D01*
X115468316Y-108812000D01*
X115837710Y-108738523D01*
X116185671Y-108594392D01*
X116498829Y-108385147D01*
X116765147Y-108118829D01*
X116974392Y-107805671D01*
X117118523Y-107457710D01*
X117192000Y-107088316D01*
X117192000Y-106711684D01*
X117118523Y-106342290D01*
X116974392Y-105994329D01*
X116765147Y-105681171D01*
X116498829Y-105414853D01*
X116185671Y-105205608D01*
X115837710Y-105061477D01*
X115468316Y-104988000D01*
X115091684Y-104988000D01*
X114722290Y-105061477D01*
X114374329Y-105205608D01*
X114061171Y-105414853D01*
X113794853Y-105681171D01*
X113585608Y-105994329D01*
X113441477Y-106342290D01*
X113368000Y-106711684D01*
X74573052Y-106711684D01*
X85169052Y-96115686D01*
X85850000Y-96115686D01*
X85999378Y-96100974D01*
X86143015Y-96057402D01*
X86275392Y-95986645D01*
X86391422Y-95891422D01*
X86486645Y-95775392D01*
X86557402Y-95643015D01*
X86600974Y-95499378D01*
X86615686Y-95350000D01*
X86615686Y-93650000D01*
X86600974Y-93500622D01*
X86557402Y-93356985D01*
X86486645Y-93224608D01*
X86391422Y-93108578D01*
X86275392Y-93013355D01*
X86243437Y-92996275D01*
X86252122Y-92987590D01*
X86428536Y-92723568D01*
X86550052Y-92430203D01*
X86612000Y-92118768D01*
X86612000Y-91801232D01*
X86550052Y-91489797D01*
X86428536Y-91196432D01*
X86252122Y-90932410D01*
X86027590Y-90707878D01*
X85763568Y-90531464D01*
X85470203Y-90409948D01*
X85158768Y-90348000D01*
X84841232Y-90348000D01*
X84529797Y-90409948D01*
X84236432Y-90531464D01*
X83972410Y-90707878D01*
X83747878Y-90932410D01*
X83571464Y-91196432D01*
X83449948Y-91489797D01*
X83388000Y-91801232D01*
X83388000Y-92118768D01*
X83449948Y-92430203D01*
X83571464Y-92723568D01*
X83747878Y-92987590D01*
X83756563Y-92996275D01*
X83724608Y-93013355D01*
X83608578Y-93108578D01*
X83513355Y-93224608D01*
X83442598Y-93356985D01*
X83399026Y-93500622D01*
X83384314Y-93650000D01*
X83384314Y-94330948D01*
X71671470Y-106043794D01*
X71623315Y-106083314D01*
X71583795Y-106131469D01*
X71583794Y-106131470D01*
X71465609Y-106275478D01*
X71348424Y-106494717D01*
X71276260Y-106732605D01*
X71251895Y-106980000D01*
X71258001Y-107041998D01*
X71258001Y-107987193D01*
X71091464Y-108236432D01*
X70969948Y-108529797D01*
X70908000Y-108841232D01*
X69044474Y-108841232D01*
X69022028Y-108652234D01*
X68923784Y-108350278D01*
X68804570Y-108127244D01*
X68516267Y-108059497D01*
X67575765Y-109000000D01*
X67304235Y-109000000D01*
X66363733Y-108059497D01*
X66170000Y-108105021D01*
X65976267Y-108059497D01*
X65035765Y-109000000D01*
X64764235Y-109000000D01*
X63823733Y-108059497D01*
X63630000Y-108105021D01*
X63436267Y-108059497D01*
X62495765Y-109000000D01*
X62224235Y-109000000D01*
X61283733Y-108059497D01*
X61151132Y-108090656D01*
X61072122Y-107972410D01*
X61023445Y-107923733D01*
X61419497Y-107923733D01*
X62360000Y-108864235D01*
X63300503Y-107923733D01*
X63959497Y-107923733D01*
X64900000Y-108864235D01*
X65840503Y-107923733D01*
X66499497Y-107923733D01*
X67440000Y-108864235D01*
X68380503Y-107923733D01*
X68312756Y-107635430D01*
X68029772Y-107491384D01*
X67724123Y-107405313D01*
X67407555Y-107380525D01*
X67092234Y-107417972D01*
X66790278Y-107516216D01*
X66567244Y-107635430D01*
X66499497Y-107923733D01*
X65840503Y-107923733D01*
X65772756Y-107635430D01*
X65489772Y-107491384D01*
X65184123Y-107405313D01*
X64867555Y-107380525D01*
X64552234Y-107417972D01*
X64250278Y-107516216D01*
X64027244Y-107635430D01*
X63959497Y-107923733D01*
X63300503Y-107923733D01*
X63232756Y-107635430D01*
X62949772Y-107491384D01*
X62644123Y-107405313D01*
X62327555Y-107380525D01*
X62012234Y-107417972D01*
X61710278Y-107516216D01*
X61487244Y-107635430D01*
X61419497Y-107923733D01*
X61023445Y-107923733D01*
X60847590Y-107747878D01*
X60583568Y-107571464D01*
X60290203Y-107449948D01*
X59978768Y-107388000D01*
X59661232Y-107388000D01*
X59349797Y-107449948D01*
X59056432Y-107571464D01*
X58792410Y-107747878D01*
X58567878Y-107972410D01*
X58550000Y-107999166D01*
X58532122Y-107972410D01*
X58307590Y-107747878D01*
X58043568Y-107571464D01*
X57750203Y-107449948D01*
X57438768Y-107388000D01*
X57121232Y-107388000D01*
X56809797Y-107449948D01*
X56516432Y-107571464D01*
X56252410Y-107747878D01*
X56027878Y-107972410D01*
X56010000Y-107999166D01*
X55992122Y-107972410D01*
X55767590Y-107747878D01*
X55503568Y-107571464D01*
X55210203Y-107449948D01*
X54898768Y-107388000D01*
X54581232Y-107388000D01*
X54269797Y-107449948D01*
X53976432Y-107571464D01*
X53712410Y-107747878D01*
X53487878Y-107972410D01*
X53470000Y-107999166D01*
X53452122Y-107972410D01*
X53227590Y-107747878D01*
X52963568Y-107571464D01*
X52670203Y-107449948D01*
X52358768Y-107388000D01*
X52041232Y-107388000D01*
X51729797Y-107449948D01*
X51436432Y-107571464D01*
X51172410Y-107747878D01*
X50947878Y-107972410D01*
X50930000Y-107999166D01*
X50912122Y-107972410D01*
X50687590Y-107747878D01*
X50423568Y-107571464D01*
X50130203Y-107449948D01*
X49818768Y-107388000D01*
X49501232Y-107388000D01*
X49189797Y-107449948D01*
X48896432Y-107571464D01*
X48632410Y-107747878D01*
X48407878Y-107972410D01*
X48390000Y-107999166D01*
X48372122Y-107972410D01*
X48147590Y-107747878D01*
X47883568Y-107571464D01*
X47590203Y-107449948D01*
X47278768Y-107388000D01*
X46961232Y-107388000D01*
X46649797Y-107449948D01*
X46356432Y-107571464D01*
X46092410Y-107747878D01*
X45867878Y-107972410D01*
X45850000Y-107999166D01*
X45832122Y-107972410D01*
X45607590Y-107747878D01*
X45343568Y-107571464D01*
X45050203Y-107449948D01*
X44738768Y-107388000D01*
X44421232Y-107388000D01*
X44109797Y-107449948D01*
X43816432Y-107571464D01*
X43552410Y-107747878D01*
X43327878Y-107972410D01*
X43310000Y-107999166D01*
X43292122Y-107972410D01*
X43067590Y-107747878D01*
X42803568Y-107571464D01*
X42510203Y-107449948D01*
X42198768Y-107388000D01*
X41881232Y-107388000D01*
X41569797Y-107449948D01*
X41276432Y-107571464D01*
X41012410Y-107747878D01*
X41003726Y-107756562D01*
X40986645Y-107724607D01*
X40891422Y-107608578D01*
X40775393Y-107513355D01*
X40643016Y-107442597D01*
X40499378Y-107399025D01*
X40350000Y-107384313D01*
X39786500Y-107388000D01*
X39596000Y-107578500D01*
X39404000Y-107578500D01*
X39213500Y-107388000D01*
X38650000Y-107384313D01*
X38500622Y-107399025D01*
X38356984Y-107442597D01*
X38224607Y-107513355D01*
X38108578Y-107608578D01*
X38013355Y-107724607D01*
X37942597Y-107856984D01*
X37899025Y-108000622D01*
X37884313Y-108150000D01*
X21254000Y-108150000D01*
X21254000Y-91061232D01*
X37888000Y-91061232D01*
X37888000Y-91378768D01*
X37949948Y-91690203D01*
X38071464Y-91983568D01*
X38247878Y-92247590D01*
X38472410Y-92472122D01*
X38736432Y-92648536D01*
X39029797Y-92770052D01*
X39341232Y-92832000D01*
X39658768Y-92832000D01*
X39970203Y-92770052D01*
X40263568Y-92648536D01*
X40527590Y-92472122D01*
X40752122Y-92247590D01*
X40770000Y-92220834D01*
X40787878Y-92247590D01*
X41012410Y-92472122D01*
X41276432Y-92648536D01*
X41569797Y-92770052D01*
X41881232Y-92832000D01*
X42198768Y-92832000D01*
X42510203Y-92770052D01*
X42803568Y-92648536D01*
X43067590Y-92472122D01*
X43292122Y-92247590D01*
X43310000Y-92220834D01*
X43327878Y-92247590D01*
X43552410Y-92472122D01*
X43816432Y-92648536D01*
X44109797Y-92770052D01*
X44421232Y-92832000D01*
X44738768Y-92832000D01*
X45050203Y-92770052D01*
X45343568Y-92648536D01*
X45607590Y-92472122D01*
X45832122Y-92247590D01*
X45850000Y-92220834D01*
X45867878Y-92247590D01*
X46092410Y-92472122D01*
X46356432Y-92648536D01*
X46649797Y-92770052D01*
X46961232Y-92832000D01*
X47278768Y-92832000D01*
X47590203Y-92770052D01*
X47883568Y-92648536D01*
X48147590Y-92472122D01*
X48372122Y-92247590D01*
X48390000Y-92220834D01*
X48407878Y-92247590D01*
X48632410Y-92472122D01*
X48896432Y-92648536D01*
X49189797Y-92770052D01*
X49501232Y-92832000D01*
X49818768Y-92832000D01*
X50130203Y-92770052D01*
X50423568Y-92648536D01*
X50687590Y-92472122D01*
X50912122Y-92247590D01*
X50930000Y-92220834D01*
X50947878Y-92247590D01*
X51172410Y-92472122D01*
X51436432Y-92648536D01*
X51729797Y-92770052D01*
X52041232Y-92832000D01*
X52358768Y-92832000D01*
X52670203Y-92770052D01*
X52963568Y-92648536D01*
X53227590Y-92472122D01*
X53452122Y-92247590D01*
X53470000Y-92220834D01*
X53487878Y-92247590D01*
X53712410Y-92472122D01*
X53976432Y-92648536D01*
X54269797Y-92770052D01*
X54581232Y-92832000D01*
X54898768Y-92832000D01*
X55210203Y-92770052D01*
X55503568Y-92648536D01*
X55767590Y-92472122D01*
X55992122Y-92247590D01*
X56010000Y-92220834D01*
X56027878Y-92247590D01*
X56252410Y-92472122D01*
X56516432Y-92648536D01*
X56809797Y-92770052D01*
X57121232Y-92832000D01*
X57438768Y-92832000D01*
X57750203Y-92770052D01*
X58043568Y-92648536D01*
X58307590Y-92472122D01*
X58532122Y-92247590D01*
X58550000Y-92220834D01*
X58567878Y-92247590D01*
X58792410Y-92472122D01*
X59056432Y-92648536D01*
X59349797Y-92770052D01*
X59661232Y-92832000D01*
X59978768Y-92832000D01*
X60290203Y-92770052D01*
X60583568Y-92648536D01*
X60847590Y-92472122D01*
X61023445Y-92296267D01*
X61419497Y-92296267D01*
X61487244Y-92584570D01*
X61770228Y-92728616D01*
X62075877Y-92814687D01*
X62392445Y-92839475D01*
X62707766Y-92802028D01*
X63009722Y-92703784D01*
X63232756Y-92584570D01*
X63300503Y-92296267D01*
X63959497Y-92296267D01*
X64027244Y-92584570D01*
X64310228Y-92728616D01*
X64615877Y-92814687D01*
X64932445Y-92839475D01*
X65247766Y-92802028D01*
X65549722Y-92703784D01*
X65772756Y-92584570D01*
X65840503Y-92296267D01*
X66499497Y-92296267D01*
X66567244Y-92584570D01*
X66850228Y-92728616D01*
X67155877Y-92814687D01*
X67472445Y-92839475D01*
X67787766Y-92802028D01*
X68089722Y-92703784D01*
X68312756Y-92584570D01*
X68380503Y-92296267D01*
X69039497Y-92296267D01*
X69107244Y-92584570D01*
X69390228Y-92728616D01*
X69695877Y-92814687D01*
X70012445Y-92839475D01*
X70327766Y-92802028D01*
X70629722Y-92703784D01*
X70852756Y-92584570D01*
X70920503Y-92296267D01*
X71579497Y-92296267D01*
X71647244Y-92584570D01*
X71930228Y-92728616D01*
X72235877Y-92814687D01*
X72552445Y-92839475D01*
X72867766Y-92802028D01*
X73169722Y-92703784D01*
X73392756Y-92584570D01*
X73460503Y-92296267D01*
X74119497Y-92296267D01*
X74187244Y-92584570D01*
X74470228Y-92728616D01*
X74775877Y-92814687D01*
X75092445Y-92839475D01*
X75407766Y-92802028D01*
X75709722Y-92703784D01*
X75932756Y-92584570D01*
X76000503Y-92296267D01*
X75060000Y-91355765D01*
X74119497Y-92296267D01*
X73460503Y-92296267D01*
X72520000Y-91355765D01*
X71579497Y-92296267D01*
X70920503Y-92296267D01*
X69980000Y-91355765D01*
X69039497Y-92296267D01*
X68380503Y-92296267D01*
X67440000Y-91355765D01*
X66499497Y-92296267D01*
X65840503Y-92296267D01*
X64900000Y-91355765D01*
X63959497Y-92296267D01*
X63300503Y-92296267D01*
X62360000Y-91355765D01*
X61419497Y-92296267D01*
X61023445Y-92296267D01*
X61072122Y-92247590D01*
X61151132Y-92129344D01*
X61283733Y-92160503D01*
X62224235Y-91220000D01*
X62495765Y-91220000D01*
X63436267Y-92160503D01*
X63630000Y-92114979D01*
X63823733Y-92160503D01*
X64764235Y-91220000D01*
X65035765Y-91220000D01*
X65976267Y-92160503D01*
X66170000Y-92114979D01*
X66363733Y-92160503D01*
X67304235Y-91220000D01*
X67575765Y-91220000D01*
X68516267Y-92160503D01*
X68710000Y-92114979D01*
X68903733Y-92160503D01*
X69844235Y-91220000D01*
X70115765Y-91220000D01*
X71056267Y-92160503D01*
X71250000Y-92114979D01*
X71443733Y-92160503D01*
X72384235Y-91220000D01*
X72655765Y-91220000D01*
X73596267Y-92160503D01*
X73790000Y-92114979D01*
X73983733Y-92160503D01*
X74924235Y-91220000D01*
X75195765Y-91220000D01*
X76136267Y-92160503D01*
X76268868Y-92129344D01*
X76347878Y-92247590D01*
X76572410Y-92472122D01*
X76836432Y-92648536D01*
X77129797Y-92770052D01*
X77441232Y-92832000D01*
X77758768Y-92832000D01*
X78070203Y-92770052D01*
X78363568Y-92648536D01*
X78627590Y-92472122D01*
X78852122Y-92247590D01*
X79028536Y-91983568D01*
X79150052Y-91690203D01*
X79212000Y-91378768D01*
X79212000Y-91061232D01*
X79150052Y-90749797D01*
X79028536Y-90456432D01*
X78852122Y-90192410D01*
X78627590Y-89967878D01*
X78363568Y-89791464D01*
X78070203Y-89669948D01*
X77758768Y-89608000D01*
X77441232Y-89608000D01*
X77129797Y-89669948D01*
X76836432Y-89791464D01*
X76572410Y-89967878D01*
X76347878Y-90192410D01*
X76268868Y-90310656D01*
X76136267Y-90279497D01*
X75195765Y-91220000D01*
X74924235Y-91220000D01*
X73983733Y-90279497D01*
X73790000Y-90325021D01*
X73596267Y-90279497D01*
X72655765Y-91220000D01*
X72384235Y-91220000D01*
X71443733Y-90279497D01*
X71250000Y-90325021D01*
X71056267Y-90279497D01*
X70115765Y-91220000D01*
X69844235Y-91220000D01*
X68903733Y-90279497D01*
X68710000Y-90325021D01*
X68516267Y-90279497D01*
X67575765Y-91220000D01*
X67304235Y-91220000D01*
X66363733Y-90279497D01*
X66170000Y-90325021D01*
X65976267Y-90279497D01*
X65035765Y-91220000D01*
X64764235Y-91220000D01*
X63823733Y-90279497D01*
X63630000Y-90325021D01*
X63436267Y-90279497D01*
X62495765Y-91220000D01*
X62224235Y-91220000D01*
X61283733Y-90279497D01*
X61151132Y-90310656D01*
X61072122Y-90192410D01*
X61023445Y-90143733D01*
X61419497Y-90143733D01*
X62360000Y-91084235D01*
X63300503Y-90143733D01*
X63959497Y-90143733D01*
X64900000Y-91084235D01*
X65840503Y-90143733D01*
X66499497Y-90143733D01*
X67440000Y-91084235D01*
X68380503Y-90143733D01*
X69039497Y-90143733D01*
X69980000Y-91084235D01*
X70920503Y-90143733D01*
X71579497Y-90143733D01*
X72520000Y-91084235D01*
X73460503Y-90143733D01*
X74119497Y-90143733D01*
X75060000Y-91084235D01*
X76000503Y-90143733D01*
X75932756Y-89855430D01*
X75649772Y-89711384D01*
X75344123Y-89625313D01*
X75027555Y-89600525D01*
X74712234Y-89637972D01*
X74410278Y-89736216D01*
X74187244Y-89855430D01*
X74119497Y-90143733D01*
X73460503Y-90143733D01*
X73392756Y-89855430D01*
X73109772Y-89711384D01*
X72804123Y-89625313D01*
X72487555Y-89600525D01*
X72172234Y-89637972D01*
X71870278Y-89736216D01*
X71647244Y-89855430D01*
X71579497Y-90143733D01*
X70920503Y-90143733D01*
X70852756Y-89855430D01*
X70569772Y-89711384D01*
X70264123Y-89625313D01*
X69947555Y-89600525D01*
X69632234Y-89637972D01*
X69330278Y-89736216D01*
X69107244Y-89855430D01*
X69039497Y-90143733D01*
X68380503Y-90143733D01*
X68312756Y-89855430D01*
X68029772Y-89711384D01*
X67724123Y-89625313D01*
X67407555Y-89600525D01*
X67092234Y-89637972D01*
X66790278Y-89736216D01*
X66567244Y-89855430D01*
X66499497Y-90143733D01*
X65840503Y-90143733D01*
X65772756Y-89855430D01*
X65489772Y-89711384D01*
X65184123Y-89625313D01*
X64867555Y-89600525D01*
X64552234Y-89637972D01*
X64250278Y-89736216D01*
X64027244Y-89855430D01*
X63959497Y-90143733D01*
X63300503Y-90143733D01*
X63232756Y-89855430D01*
X62949772Y-89711384D01*
X62644123Y-89625313D01*
X62327555Y-89600525D01*
X62012234Y-89637972D01*
X61710278Y-89736216D01*
X61487244Y-89855430D01*
X61419497Y-90143733D01*
X61023445Y-90143733D01*
X60847590Y-89967878D01*
X60583568Y-89791464D01*
X60290203Y-89669948D01*
X59978768Y-89608000D01*
X59661232Y-89608000D01*
X59349797Y-89669948D01*
X59056432Y-89791464D01*
X58792410Y-89967878D01*
X58567878Y-90192410D01*
X58550000Y-90219166D01*
X58532122Y-90192410D01*
X58307590Y-89967878D01*
X58043568Y-89791464D01*
X57750203Y-89669948D01*
X57438768Y-89608000D01*
X57121232Y-89608000D01*
X56809797Y-89669948D01*
X56516432Y-89791464D01*
X56252410Y-89967878D01*
X56027878Y-90192410D01*
X56010000Y-90219166D01*
X55992122Y-90192410D01*
X55767590Y-89967878D01*
X55503568Y-89791464D01*
X55210203Y-89669948D01*
X54898768Y-89608000D01*
X54581232Y-89608000D01*
X54269797Y-89669948D01*
X53976432Y-89791464D01*
X53712410Y-89967878D01*
X53487878Y-90192410D01*
X53470000Y-90219166D01*
X53452122Y-90192410D01*
X53227590Y-89967878D01*
X52963568Y-89791464D01*
X52670203Y-89669948D01*
X52358768Y-89608000D01*
X52041232Y-89608000D01*
X51729797Y-89669948D01*
X51436432Y-89791464D01*
X51172410Y-89967878D01*
X50947878Y-90192410D01*
X50930000Y-90219166D01*
X50912122Y-90192410D01*
X50687590Y-89967878D01*
X50423568Y-89791464D01*
X50130203Y-89669948D01*
X49818768Y-89608000D01*
X49501232Y-89608000D01*
X49189797Y-89669948D01*
X48896432Y-89791464D01*
X48632410Y-89967878D01*
X48407878Y-90192410D01*
X48390000Y-90219166D01*
X48372122Y-90192410D01*
X48147590Y-89967878D01*
X47883568Y-89791464D01*
X47590203Y-89669948D01*
X47278768Y-89608000D01*
X46961232Y-89608000D01*
X46649797Y-89669948D01*
X46356432Y-89791464D01*
X46092410Y-89967878D01*
X45867878Y-90192410D01*
X45850000Y-90219166D01*
X45832122Y-90192410D01*
X45607590Y-89967878D01*
X45343568Y-89791464D01*
X45050203Y-89669948D01*
X44738768Y-89608000D01*
X44421232Y-89608000D01*
X44109797Y-89669948D01*
X43816432Y-89791464D01*
X43552410Y-89967878D01*
X43327878Y-90192410D01*
X43310000Y-90219166D01*
X43292122Y-90192410D01*
X43067590Y-89967878D01*
X42803568Y-89791464D01*
X42510203Y-89669948D01*
X42198768Y-89608000D01*
X41881232Y-89608000D01*
X41569797Y-89669948D01*
X41276432Y-89791464D01*
X41012410Y-89967878D01*
X40787878Y-90192410D01*
X40770000Y-90219166D01*
X40752122Y-90192410D01*
X40527590Y-89967878D01*
X40263568Y-89791464D01*
X39970203Y-89669948D01*
X39658768Y-89608000D01*
X39341232Y-89608000D01*
X39029797Y-89669948D01*
X38736432Y-89791464D01*
X38472410Y-89967878D01*
X38247878Y-90192410D01*
X38071464Y-90456432D01*
X37949948Y-90749797D01*
X37888000Y-91061232D01*
X21254000Y-91061232D01*
X21254000Y-82254000D01*
X26238510Y-82254000D01*
X26238510Y-82413492D01*
G37*
%TD.AperFunction*%
%TD*%
M02*
